<?xml version="1.0" encoding="utf-8" standalone="no"?>
<!DOCTYPE svg PUBLIC "-//W3C//DTD SVG 1.1//EN"
  "http://www.w3.org/Graphics/SVG/1.1/DTD/svg11.dtd">
<svg xmlns:xlink="http://www.w3.org/1999/xlink" width="608.35875pt" height="344.594063pt" viewBox="0 0 608.35875 344.594063" xmlns="http://www.w3.org/2000/svg" version="1.1">
 <metadata>
  <rdf:RDF xmlns:dc="http://purl.org/dc/elements/1.1/" xmlns:cc="http://creativecommons.org/ns#" xmlns:rdf="http://www.w3.org/1999/02/22-rdf-syntax-ns#">
   <cc:Work>
    <dc:type rdf:resource="http://purl.org/dc/dcmitype/StillImage"/>
    <dc:date>2026-02-16T11:19:28.000884</dc:date>
    <dc:format>image/svg+xml</dc:format>
    <dc:creator>
     <cc:Agent>
      <dc:title>Matplotlib v3.10.8, https://matplotlib.org/</dc:title>
     </cc:Agent>
    </dc:creator>
   </cc:Work>
  </rdf:RDF>
 </metadata>
 <defs>
  <style type="text/css">*{stroke-linejoin: round; stroke-linecap: butt}</style>
 </defs>
 <g id="figure_1">
  <g id="patch_1">
   <path d="M 0 344.594063 
L 608.35875 344.594063 
L 608.35875 0 
L 0 0 
L 0 344.594063 
z
" style="fill: none"/>
  </g>
  <g id="axes_1">
   <g id="patch_2">
    <path d="M 43.15875 307.037812 
L 601.15875 307.037812 
L 601.15875 29.837812 
L 43.15875 29.837812 
L 43.15875 307.037812 
z
" style="fill: none"/>
   </g>
   <g id="matplotlib.axis_1">
    <g id="xtick_1">
     <g id="line2d_1">
      <path d="M 43.15875 307.037812 
L 43.15875 29.837812 
" clip-path="url(#p207717bd36)" style="fill: none; stroke: #30363d; stroke-opacity: 0.3; stroke-width: 0.5; stroke-linecap: square"/>
     </g>
     <g id="line2d_2">
      <defs>
       <path id="m48322dded2" d="M 0 0 
L 0 3.5 
" style="stroke: #8b949e; stroke-width: 0.8"/>
      </defs>
      <g>
       <use xlink:href="#m48322dded2" x="43.15875" y="307.037812" style="fill: #8b949e; stroke: #8b949e; stroke-width: 0.8"/>
      </g>
     </g>
     <g id="text_1">
      <!-- 0m -->
      <g style="fill: #8b949e" transform="translate(35.912344 320.876406) scale(0.09 -0.09)">
       <defs>
        <path id="DejaVuSans-30" d="M 2034 4250 
Q 1547 4250 1301 3770 
Q 1056 3291 1056 2328 
Q 1056 1369 1301 889 
Q 1547 409 2034 409 
Q 2525 409 2770 889 
Q 3016 1369 3016 2328 
Q 3016 3291 2770 3770 
Q 2525 4250 2034 4250 
z
M 2034 4750 
Q 2819 4750 3233 4129 
Q 3647 3509 3647 2328 
Q 3647 1150 3233 529 
Q 2819 -91 2034 -91 
Q 1250 -91 836 529 
Q 422 1150 422 2328 
Q 422 3509 836 4129 
Q 1250 4750 2034 4750 
z
" transform="scale(0.015625)"/>
        <path id="DejaVuSans-6d" d="M 3328 2828 
Q 3544 3216 3844 3400 
Q 4144 3584 4550 3584 
Q 5097 3584 5394 3201 
Q 5691 2819 5691 2113 
L 5691 0 
L 5113 0 
L 5113 2094 
Q 5113 2597 4934 2840 
Q 4756 3084 4391 3084 
Q 3944 3084 3684 2787 
Q 3425 2491 3425 1978 
L 3425 0 
L 2847 0 
L 2847 2094 
Q 2847 2600 2669 2842 
Q 2491 3084 2119 3084 
Q 1678 3084 1418 2786 
Q 1159 2488 1159 1978 
L 1159 0 
L 581 0 
L 581 3500 
L 1159 3500 
L 1159 2956 
Q 1356 3278 1631 3431 
Q 1906 3584 2284 3584 
Q 2666 3584 2933 3390 
Q 3200 3197 3328 2828 
z
" transform="scale(0.015625)"/>
       </defs>
       <use xlink:href="#DejaVuSans-30"/>
       <use xlink:href="#DejaVuSans-6d" transform="translate(63.623047 0)"/>
      </g>
     </g>
    </g>
    <g id="xtick_2">
     <g id="line2d_3">
      <path d="M 131.484828 307.037812 
L 131.484828 29.837812 
" clip-path="url(#p207717bd36)" style="fill: none; stroke: #30363d; stroke-opacity: 0.3; stroke-width: 0.5; stroke-linecap: square"/>
     </g>
     <g id="line2d_4">
      <g>
       <use xlink:href="#m48322dded2" x="131.484828" y="307.037812" style="fill: #8b949e; stroke: #8b949e; stroke-width: 0.8"/>
      </g>
     </g>
     <g id="text_2">
      <!-- 5m -->
      <g style="fill: #8b949e" transform="translate(124.238422 320.876406) scale(0.09 -0.09)">
       <defs>
        <path id="DejaVuSans-35" d="M 691 4666 
L 3169 4666 
L 3169 4134 
L 1269 4134 
L 1269 2991 
Q 1406 3038 1543 3061 
Q 1681 3084 1819 3084 
Q 2600 3084 3056 2656 
Q 3513 2228 3513 1497 
Q 3513 744 3044 326 
Q 2575 -91 1722 -91 
Q 1428 -91 1123 -41 
Q 819 9 494 109 
L 494 744 
Q 775 591 1075 516 
Q 1375 441 1709 441 
Q 2250 441 2565 725 
Q 2881 1009 2881 1497 
Q 2881 1984 2565 2268 
Q 2250 2553 1709 2553 
Q 1456 2553 1204 2497 
Q 953 2441 691 2322 
L 691 4666 
z
" transform="scale(0.015625)"/>
       </defs>
       <use xlink:href="#DejaVuSans-35"/>
       <use xlink:href="#DejaVuSans-6d" transform="translate(63.623047 0)"/>
      </g>
     </g>
    </g>
    <g id="xtick_3">
     <g id="line2d_5">
      <path d="M 219.810907 307.037812 
L 219.810907 29.837812 
" clip-path="url(#p207717bd36)" style="fill: none; stroke: #30363d; stroke-opacity: 0.3; stroke-width: 0.5; stroke-linecap: square"/>
     </g>
     <g id="line2d_6">
      <g>
       <use xlink:href="#m48322dded2" x="219.810907" y="307.037812" style="fill: #8b949e; stroke: #8b949e; stroke-width: 0.8"/>
      </g>
     </g>
     <g id="text_3">
      <!-- 10m -->
      <g style="fill: #8b949e" transform="translate(209.701375 320.876406) scale(0.09 -0.09)">
       <defs>
        <path id="DejaVuSans-31" d="M 794 531 
L 1825 531 
L 1825 4091 
L 703 3866 
L 703 4441 
L 1819 4666 
L 2450 4666 
L 2450 531 
L 3481 531 
L 3481 0 
L 794 0 
L 794 531 
z
" transform="scale(0.015625)"/>
       </defs>
       <use xlink:href="#DejaVuSans-31"/>
       <use xlink:href="#DejaVuSans-30" transform="translate(63.623047 0)"/>
       <use xlink:href="#DejaVuSans-6d" transform="translate(127.246094 0)"/>
      </g>
     </g>
    </g>
    <g id="xtick_4">
     <g id="line2d_7">
      <path d="M 308.136985 307.037812 
L 308.136985 29.837812 
" clip-path="url(#p207717bd36)" style="fill: none; stroke: #30363d; stroke-opacity: 0.3; stroke-width: 0.5; stroke-linecap: square"/>
     </g>
     <g id="line2d_8">
      <g>
       <use xlink:href="#m48322dded2" x="308.136985" y="307.037812" style="fill: #8b949e; stroke: #8b949e; stroke-width: 0.8"/>
      </g>
     </g>
     <g id="text_4">
      <!-- 15m -->
      <g style="fill: #8b949e" transform="translate(298.027454 320.876406) scale(0.09 -0.09)">
       <use xlink:href="#DejaVuSans-31"/>
       <use xlink:href="#DejaVuSans-35" transform="translate(63.623047 0)"/>
       <use xlink:href="#DejaVuSans-6d" transform="translate(127.246094 0)"/>
      </g>
     </g>
    </g>
    <g id="xtick_5">
     <g id="line2d_9">
      <path d="M 396.463063 307.037812 
L 396.463063 29.837812 
" clip-path="url(#p207717bd36)" style="fill: none; stroke: #30363d; stroke-opacity: 0.3; stroke-width: 0.5; stroke-linecap: square"/>
     </g>
     <g id="line2d_10">
      <g>
       <use xlink:href="#m48322dded2" x="396.463063" y="307.037812" style="fill: #8b949e; stroke: #8b949e; stroke-width: 0.8"/>
      </g>
     </g>
     <g id="text_5">
      <!-- 20m -->
      <g style="fill: #8b949e" transform="translate(386.353532 320.876406) scale(0.09 -0.09)">
       <defs>
        <path id="DejaVuSans-32" d="M 1228 531 
L 3431 531 
L 3431 0 
L 469 0 
L 469 531 
Q 828 903 1448 1529 
Q 2069 2156 2228 2338 
Q 2531 2678 2651 2914 
Q 2772 3150 2772 3378 
Q 2772 3750 2511 3984 
Q 2250 4219 1831 4219 
Q 1534 4219 1204 4116 
Q 875 4013 500 3803 
L 500 4441 
Q 881 4594 1212 4672 
Q 1544 4750 1819 4750 
Q 2544 4750 2975 4387 
Q 3406 4025 3406 3419 
Q 3406 3131 3298 2873 
Q 3191 2616 2906 2266 
Q 2828 2175 2409 1742 
Q 1991 1309 1228 531 
z
" transform="scale(0.015625)"/>
       </defs>
       <use xlink:href="#DejaVuSans-32"/>
       <use xlink:href="#DejaVuSans-30" transform="translate(63.623047 0)"/>
       <use xlink:href="#DejaVuSans-6d" transform="translate(127.246094 0)"/>
      </g>
     </g>
    </g>
    <g id="xtick_6">
     <g id="line2d_11">
      <path d="M 484.789142 307.037812 
L 484.789142 29.837812 
" clip-path="url(#p207717bd36)" style="fill: none; stroke: #30363d; stroke-opacity: 0.3; stroke-width: 0.5; stroke-linecap: square"/>
     </g>
     <g id="line2d_12">
      <g>
       <use xlink:href="#m48322dded2" x="484.789142" y="307.037812" style="fill: #8b949e; stroke: #8b949e; stroke-width: 0.8"/>
      </g>
     </g>
     <g id="text_6">
      <!-- 25m -->
      <g style="fill: #8b949e" transform="translate(474.679611 320.876406) scale(0.09 -0.09)">
       <use xlink:href="#DejaVuSans-32"/>
       <use xlink:href="#DejaVuSans-35" transform="translate(63.623047 0)"/>
       <use xlink:href="#DejaVuSans-6d" transform="translate(127.246094 0)"/>
      </g>
     </g>
    </g>
    <g id="xtick_7">
     <g id="line2d_13">
      <path d="M 573.11522 307.037812 
L 573.11522 29.837812 
" clip-path="url(#p207717bd36)" style="fill: none; stroke: #30363d; stroke-opacity: 0.3; stroke-width: 0.5; stroke-linecap: square"/>
     </g>
     <g id="line2d_14">
      <g>
       <use xlink:href="#m48322dded2" x="573.11522" y="307.037812" style="fill: #8b949e; stroke: #8b949e; stroke-width: 0.8"/>
      </g>
     </g>
     <g id="text_7">
      <!-- 30m -->
      <g style="fill: #8b949e" transform="translate(563.005689 320.876406) scale(0.09 -0.09)">
       <defs>
        <path id="DejaVuSans-33" d="M 2597 2516 
Q 3050 2419 3304 2112 
Q 3559 1806 3559 1356 
Q 3559 666 3084 287 
Q 2609 -91 1734 -91 
Q 1441 -91 1130 -33 
Q 819 25 488 141 
L 488 750 
Q 750 597 1062 519 
Q 1375 441 1716 441 
Q 2309 441 2620 675 
Q 2931 909 2931 1356 
Q 2931 1769 2642 2001 
Q 2353 2234 1838 2234 
L 1294 2234 
L 1294 2753 
L 1863 2753 
Q 2328 2753 2575 2939 
Q 2822 3125 2822 3475 
Q 2822 3834 2567 4026 
Q 2313 4219 1838 4219 
Q 1578 4219 1281 4162 
Q 984 4106 628 3988 
L 628 4550 
Q 988 4650 1302 4700 
Q 1616 4750 1894 4750 
Q 2613 4750 3031 4423 
Q 3450 4097 3450 3541 
Q 3450 3153 3228 2886 
Q 3006 2619 2597 2516 
z
" transform="scale(0.015625)"/>
       </defs>
       <use xlink:href="#DejaVuSans-33"/>
       <use xlink:href="#DejaVuSans-30" transform="translate(63.623047 0)"/>
       <use xlink:href="#DejaVuSans-6d" transform="translate(127.246094 0)"/>
      </g>
     </g>
    </g>
    <g id="text_8">
     <!-- Time (minutes) -->
     <g style="fill: #c9d1d9" transform="translate(280.4 335.106406) scale(0.11 -0.11)">
      <defs>
       <path id="DejaVuSans-54" d="M -19 4666 
L 3928 4666 
L 3928 4134 
L 2272 4134 
L 2272 0 
L 1638 0 
L 1638 4134 
L -19 4134 
L -19 4666 
z
" transform="scale(0.015625)"/>
       <path id="DejaVuSans-69" d="M 603 3500 
L 1178 3500 
L 1178 0 
L 603 0 
L 603 3500 
z
M 603 4863 
L 1178 4863 
L 1178 4134 
L 603 4134 
L 603 4863 
z
" transform="scale(0.015625)"/>
       <path id="DejaVuSans-65" d="M 3597 1894 
L 3597 1613 
L 953 1613 
Q 991 1019 1311 708 
Q 1631 397 2203 397 
Q 2534 397 2845 478 
Q 3156 559 3463 722 
L 3463 178 
Q 3153 47 2828 -22 
Q 2503 -91 2169 -91 
Q 1331 -91 842 396 
Q 353 884 353 1716 
Q 353 2575 817 3079 
Q 1281 3584 2069 3584 
Q 2775 3584 3186 3129 
Q 3597 2675 3597 1894 
z
M 3022 2063 
Q 3016 2534 2758 2815 
Q 2500 3097 2075 3097 
Q 1594 3097 1305 2825 
Q 1016 2553 972 2059 
L 3022 2063 
z
" transform="scale(0.015625)"/>
       <path id="DejaVuSans-20" transform="scale(0.015625)"/>
       <path id="DejaVuSans-28" d="M 1984 4856 
Q 1566 4138 1362 3434 
Q 1159 2731 1159 2009 
Q 1159 1288 1364 580 
Q 1569 -128 1984 -844 
L 1484 -844 
Q 1016 -109 783 600 
Q 550 1309 550 2009 
Q 550 2706 781 3412 
Q 1013 4119 1484 4856 
L 1984 4856 
z
" transform="scale(0.015625)"/>
       <path id="DejaVuSans-6e" d="M 3513 2113 
L 3513 0 
L 2938 0 
L 2938 2094 
Q 2938 2591 2744 2837 
Q 2550 3084 2163 3084 
Q 1697 3084 1428 2787 
Q 1159 2491 1159 1978 
L 1159 0 
L 581 0 
L 581 3500 
L 1159 3500 
L 1159 2956 
Q 1366 3272 1645 3428 
Q 1925 3584 2291 3584 
Q 2894 3584 3203 3211 
Q 3513 2838 3513 2113 
z
" transform="scale(0.015625)"/>
       <path id="DejaVuSans-75" d="M 544 1381 
L 544 3500 
L 1119 3500 
L 1119 1403 
Q 1119 906 1312 657 
Q 1506 409 1894 409 
Q 2359 409 2629 706 
Q 2900 1003 2900 1516 
L 2900 3500 
L 3475 3500 
L 3475 0 
L 2900 0 
L 2900 538 
Q 2691 219 2414 64 
Q 2138 -91 1772 -91 
Q 1169 -91 856 284 
Q 544 659 544 1381 
z
M 1991 3584 
L 1991 3584 
z
" transform="scale(0.015625)"/>
       <path id="DejaVuSans-74" d="M 1172 4494 
L 1172 3500 
L 2356 3500 
L 2356 3053 
L 1172 3053 
L 1172 1153 
Q 1172 725 1289 603 
Q 1406 481 1766 481 
L 2356 481 
L 2356 0 
L 1766 0 
Q 1100 0 847 248 
Q 594 497 594 1153 
L 594 3053 
L 172 3053 
L 172 3500 
L 594 3500 
L 594 4494 
L 1172 4494 
z
" transform="scale(0.015625)"/>
       <path id="DejaVuSans-73" d="M 2834 3397 
L 2834 2853 
Q 2591 2978 2328 3040 
Q 2066 3103 1784 3103 
Q 1356 3103 1142 2972 
Q 928 2841 928 2578 
Q 928 2378 1081 2264 
Q 1234 2150 1697 2047 
L 1894 2003 
Q 2506 1872 2764 1633 
Q 3022 1394 3022 966 
Q 3022 478 2636 193 
Q 2250 -91 1575 -91 
Q 1294 -91 989 -36 
Q 684 19 347 128 
L 347 722 
Q 666 556 975 473 
Q 1284 391 1588 391 
Q 1994 391 2212 530 
Q 2431 669 2431 922 
Q 2431 1156 2273 1281 
Q 2116 1406 1581 1522 
L 1381 1569 
Q 847 1681 609 1914 
Q 372 2147 372 2553 
Q 372 3047 722 3315 
Q 1072 3584 1716 3584 
Q 2034 3584 2315 3537 
Q 2597 3491 2834 3397 
z
" transform="scale(0.015625)"/>
       <path id="DejaVuSans-29" d="M 513 4856 
L 1013 4856 
Q 1481 4119 1714 3412 
Q 1947 2706 1947 2009 
Q 1947 1309 1714 600 
Q 1481 -109 1013 -844 
L 513 -844 
Q 928 -128 1133 580 
Q 1338 1288 1338 2009 
Q 1338 2731 1133 3434 
Q 928 4138 513 4856 
z
" transform="scale(0.015625)"/>
      </defs>
      <use xlink:href="#DejaVuSans-54"/>
      <use xlink:href="#DejaVuSans-69" transform="translate(57.958984 0)"/>
      <use xlink:href="#DejaVuSans-6d" transform="translate(85.742188 0)"/>
      <use xlink:href="#DejaVuSans-65" transform="translate(183.154297 0)"/>
      <use xlink:href="#DejaVuSans-20" transform="translate(244.677734 0)"/>
      <use xlink:href="#DejaVuSans-28" transform="translate(276.464844 0)"/>
      <use xlink:href="#DejaVuSans-6d" transform="translate(315.478516 0)"/>
      <use xlink:href="#DejaVuSans-69" transform="translate(412.890625 0)"/>
      <use xlink:href="#DejaVuSans-6e" transform="translate(440.673828 0)"/>
      <use xlink:href="#DejaVuSans-75" transform="translate(504.052734 0)"/>
      <use xlink:href="#DejaVuSans-74" transform="translate(567.431641 0)"/>
      <use xlink:href="#DejaVuSans-65" transform="translate(606.640625 0)"/>
      <use xlink:href="#DejaVuSans-73" transform="translate(668.164062 0)"/>
      <use xlink:href="#DejaVuSans-29" transform="translate(720.263672 0)"/>
     </g>
    </g>
   </g>
   <g id="matplotlib.axis_2">
    <g id="ytick_1">
     <g id="line2d_15">
      <path d="M 43.15875 307.037812 
L 601.15875 307.037812 
" clip-path="url(#p207717bd36)" style="fill: none; stroke: #30363d; stroke-opacity: 0.3; stroke-width: 0.5; stroke-linecap: square"/>
     </g>
     <g id="line2d_16">
      <defs>
       <path id="m49c7a7b3ec" d="M 0 0 
L -3.5 0 
" style="stroke: #8b949e; stroke-width: 0.8"/>
      </defs>
      <g>
       <use xlink:href="#m49c7a7b3ec" x="43.15875" y="307.037812" style="fill: #8b949e; stroke: #8b949e; stroke-width: 0.8"/>
      </g>
     </g>
     <g id="text_9">
      <!-- 0.0 -->
      <g style="fill: #8b949e" transform="translate(21.845938 310.457109) scale(0.09 -0.09)">
       <defs>
        <path id="DejaVuSans-2e" d="M 684 794 
L 1344 794 
L 1344 0 
L 684 0 
L 684 794 
z
" transform="scale(0.015625)"/>
       </defs>
       <use xlink:href="#DejaVuSans-30"/>
       <use xlink:href="#DejaVuSans-2e" transform="translate(63.623047 0)"/>
       <use xlink:href="#DejaVuSans-30" transform="translate(95.410156 0)"/>
      </g>
     </g>
    </g>
    <g id="ytick_2">
     <g id="line2d_17">
      <path d="M 43.15875 274.386315 
L 601.15875 274.386315 
" clip-path="url(#p207717bd36)" style="fill: none; stroke: #30363d; stroke-opacity: 0.3; stroke-width: 0.5; stroke-linecap: square"/>
     </g>
     <g id="line2d_18">
      <g>
       <use xlink:href="#m49c7a7b3ec" x="43.15875" y="274.386315" style="fill: #8b949e; stroke: #8b949e; stroke-width: 0.8"/>
      </g>
     </g>
     <g id="text_10">
      <!-- 0.5 -->
      <g style="fill: #8b949e" transform="translate(21.845938 277.805612) scale(0.09 -0.09)">
       <use xlink:href="#DejaVuSans-30"/>
       <use xlink:href="#DejaVuSans-2e" transform="translate(63.623047 0)"/>
       <use xlink:href="#DejaVuSans-35" transform="translate(95.410156 0)"/>
      </g>
     </g>
    </g>
    <g id="ytick_3">
     <g id="line2d_19">
      <path d="M 43.15875 241.734818 
L 601.15875 241.734818 
" clip-path="url(#p207717bd36)" style="fill: none; stroke: #30363d; stroke-opacity: 0.3; stroke-width: 0.5; stroke-linecap: square"/>
     </g>
     <g id="line2d_20">
      <g>
       <use xlink:href="#m49c7a7b3ec" x="43.15875" y="241.734818" style="fill: #8b949e; stroke: #8b949e; stroke-width: 0.8"/>
      </g>
     </g>
     <g id="text_11">
      <!-- 1.0 -->
      <g style="fill: #8b949e" transform="translate(21.845938 245.154115) scale(0.09 -0.09)">
       <use xlink:href="#DejaVuSans-31"/>
       <use xlink:href="#DejaVuSans-2e" transform="translate(63.623047 0)"/>
       <use xlink:href="#DejaVuSans-30" transform="translate(95.410156 0)"/>
      </g>
     </g>
    </g>
    <g id="ytick_4">
     <g id="line2d_21">
      <path d="M 43.15875 209.083321 
L 601.15875 209.083321 
" clip-path="url(#p207717bd36)" style="fill: none; stroke: #30363d; stroke-opacity: 0.3; stroke-width: 0.5; stroke-linecap: square"/>
     </g>
     <g id="line2d_22">
      <g>
       <use xlink:href="#m49c7a7b3ec" x="43.15875" y="209.083321" style="fill: #8b949e; stroke: #8b949e; stroke-width: 0.8"/>
      </g>
     </g>
     <g id="text_12">
      <!-- 1.5 -->
      <g style="fill: #8b949e" transform="translate(21.845938 212.502618) scale(0.09 -0.09)">
       <use xlink:href="#DejaVuSans-31"/>
       <use xlink:href="#DejaVuSans-2e" transform="translate(63.623047 0)"/>
       <use xlink:href="#DejaVuSans-35" transform="translate(95.410156 0)"/>
      </g>
     </g>
    </g>
    <g id="ytick_5">
     <g id="line2d_23">
      <path d="M 43.15875 176.431824 
L 601.15875 176.431824 
" clip-path="url(#p207717bd36)" style="fill: none; stroke: #30363d; stroke-opacity: 0.3; stroke-width: 0.5; stroke-linecap: square"/>
     </g>
     <g id="line2d_24">
      <g>
       <use xlink:href="#m49c7a7b3ec" x="43.15875" y="176.431824" style="fill: #8b949e; stroke: #8b949e; stroke-width: 0.8"/>
      </g>
     </g>
     <g id="text_13">
      <!-- 2.0 -->
      <g style="fill: #8b949e" transform="translate(21.845938 179.851121) scale(0.09 -0.09)">
       <use xlink:href="#DejaVuSans-32"/>
       <use xlink:href="#DejaVuSans-2e" transform="translate(63.623047 0)"/>
       <use xlink:href="#DejaVuSans-30" transform="translate(95.410156 0)"/>
      </g>
     </g>
    </g>
    <g id="ytick_6">
     <g id="line2d_25">
      <path d="M 43.15875 143.780327 
L 601.15875 143.780327 
" clip-path="url(#p207717bd36)" style="fill: none; stroke: #30363d; stroke-opacity: 0.3; stroke-width: 0.5; stroke-linecap: square"/>
     </g>
     <g id="line2d_26">
      <g>
       <use xlink:href="#m49c7a7b3ec" x="43.15875" y="143.780327" style="fill: #8b949e; stroke: #8b949e; stroke-width: 0.8"/>
      </g>
     </g>
     <g id="text_14">
      <!-- 2.5 -->
      <g style="fill: #8b949e" transform="translate(21.845938 147.199624) scale(0.09 -0.09)">
       <use xlink:href="#DejaVuSans-32"/>
       <use xlink:href="#DejaVuSans-2e" transform="translate(63.623047 0)"/>
       <use xlink:href="#DejaVuSans-35" transform="translate(95.410156 0)"/>
      </g>
     </g>
    </g>
    <g id="ytick_7">
     <g id="line2d_27">
      <path d="M 43.15875 111.12883 
L 601.15875 111.12883 
" clip-path="url(#p207717bd36)" style="fill: none; stroke: #30363d; stroke-opacity: 0.3; stroke-width: 0.5; stroke-linecap: square"/>
     </g>
     <g id="line2d_28">
      <g>
       <use xlink:href="#m49c7a7b3ec" x="43.15875" y="111.12883" style="fill: #8b949e; stroke: #8b949e; stroke-width: 0.8"/>
      </g>
     </g>
     <g id="text_15">
      <!-- 3.0 -->
      <g style="fill: #8b949e" transform="translate(21.845938 114.548127) scale(0.09 -0.09)">
       <use xlink:href="#DejaVuSans-33"/>
       <use xlink:href="#DejaVuSans-2e" transform="translate(63.623047 0)"/>
       <use xlink:href="#DejaVuSans-30" transform="translate(95.410156 0)"/>
      </g>
     </g>
    </g>
    <g id="ytick_8">
     <g id="line2d_29">
      <path d="M 43.15875 78.477333 
L 601.15875 78.477333 
" clip-path="url(#p207717bd36)" style="fill: none; stroke: #30363d; stroke-opacity: 0.3; stroke-width: 0.5; stroke-linecap: square"/>
     </g>
     <g id="line2d_30">
      <g>
       <use xlink:href="#m49c7a7b3ec" x="43.15875" y="78.477333" style="fill: #8b949e; stroke: #8b949e; stroke-width: 0.8"/>
      </g>
     </g>
     <g id="text_16">
      <!-- 3.5 -->
      <g style="fill: #8b949e" transform="translate(21.845938 81.89663) scale(0.09 -0.09)">
       <use xlink:href="#DejaVuSans-33"/>
       <use xlink:href="#DejaVuSans-2e" transform="translate(63.623047 0)"/>
       <use xlink:href="#DejaVuSans-35" transform="translate(95.410156 0)"/>
      </g>
     </g>
    </g>
    <g id="ytick_9">
     <g id="line2d_31">
      <path d="M 43.15875 45.825836 
L 601.15875 45.825836 
" clip-path="url(#p207717bd36)" style="fill: none; stroke: #30363d; stroke-opacity: 0.3; stroke-width: 0.5; stroke-linecap: square"/>
     </g>
     <g id="line2d_32">
      <g>
       <use xlink:href="#m49c7a7b3ec" x="43.15875" y="45.825836" style="fill: #8b949e; stroke: #8b949e; stroke-width: 0.8"/>
      </g>
     </g>
     <g id="text_17">
      <!-- 4.0 -->
      <g style="fill: #8b949e" transform="translate(21.845938 49.245133) scale(0.09 -0.09)">
       <defs>
        <path id="DejaVuSans-34" d="M 2419 4116 
L 825 1625 
L 2419 1625 
L 2419 4116 
z
M 2253 4666 
L 3047 4666 
L 3047 1625 
L 3713 1625 
L 3713 1100 
L 3047 1100 
L 3047 0 
L 2419 0 
L 2419 1100 
L 313 1100 
L 313 1709 
L 2253 4666 
z
" transform="scale(0.015625)"/>
       </defs>
       <use xlink:href="#DejaVuSans-34"/>
       <use xlink:href="#DejaVuSans-2e" transform="translate(63.623047 0)"/>
       <use xlink:href="#DejaVuSans-30" transform="translate(95.410156 0)"/>
      </g>
     </g>
    </g>
    <g id="text_18">
     <!-- Latency (ms) -->
     <g style="fill: #c9d1d9" transform="translate(15.558281 204.440469) rotate(-90) scale(0.11 -0.11)">
      <defs>
       <path id="DejaVuSans-4c" d="M 628 4666 
L 1259 4666 
L 1259 531 
L 3531 531 
L 3531 0 
L 628 0 
L 628 4666 
z
" transform="scale(0.015625)"/>
       <path id="DejaVuSans-61" d="M 2194 1759 
Q 1497 1759 1228 1600 
Q 959 1441 959 1056 
Q 959 750 1161 570 
Q 1363 391 1709 391 
Q 2188 391 2477 730 
Q 2766 1069 2766 1631 
L 2766 1759 
L 2194 1759 
z
M 3341 1997 
L 3341 0 
L 2766 0 
L 2766 531 
Q 2569 213 2275 61 
Q 1981 -91 1556 -91 
Q 1019 -91 701 211 
Q 384 513 384 1019 
Q 384 1609 779 1909 
Q 1175 2209 1959 2209 
L 2766 2209 
L 2766 2266 
Q 2766 2663 2505 2880 
Q 2244 3097 1772 3097 
Q 1472 3097 1187 3025 
Q 903 2953 641 2809 
L 641 3341 
Q 956 3463 1253 3523 
Q 1550 3584 1831 3584 
Q 2591 3584 2966 3190 
Q 3341 2797 3341 1997 
z
" transform="scale(0.015625)"/>
       <path id="DejaVuSans-63" d="M 3122 3366 
L 3122 2828 
Q 2878 2963 2633 3030 
Q 2388 3097 2138 3097 
Q 1578 3097 1268 2742 
Q 959 2388 959 1747 
Q 959 1106 1268 751 
Q 1578 397 2138 397 
Q 2388 397 2633 464 
Q 2878 531 3122 666 
L 3122 134 
Q 2881 22 2623 -34 
Q 2366 -91 2075 -91 
Q 1284 -91 818 406 
Q 353 903 353 1747 
Q 353 2603 823 3093 
Q 1294 3584 2113 3584 
Q 2378 3584 2631 3529 
Q 2884 3475 3122 3366 
z
" transform="scale(0.015625)"/>
       <path id="DejaVuSans-79" d="M 2059 -325 
Q 1816 -950 1584 -1140 
Q 1353 -1331 966 -1331 
L 506 -1331 
L 506 -850 
L 844 -850 
Q 1081 -850 1212 -737 
Q 1344 -625 1503 -206 
L 1606 56 
L 191 3500 
L 800 3500 
L 1894 763 
L 2988 3500 
L 3597 3500 
L 2059 -325 
z
" transform="scale(0.015625)"/>
      </defs>
      <use xlink:href="#DejaVuSans-4c"/>
      <use xlink:href="#DejaVuSans-61" transform="translate(55.712891 0)"/>
      <use xlink:href="#DejaVuSans-74" transform="translate(116.992188 0)"/>
      <use xlink:href="#DejaVuSans-65" transform="translate(156.201172 0)"/>
      <use xlink:href="#DejaVuSans-6e" transform="translate(217.724609 0)"/>
      <use xlink:href="#DejaVuSans-63" transform="translate(281.103516 0)"/>
      <use xlink:href="#DejaVuSans-79" transform="translate(336.083984 0)"/>
      <use xlink:href="#DejaVuSans-20" transform="translate(395.263672 0)"/>
      <use xlink:href="#DejaVuSans-28" transform="translate(427.050781 0)"/>
      <use xlink:href="#DejaVuSans-6d" transform="translate(466.064453 0)"/>
      <use xlink:href="#DejaVuSans-73" transform="translate(563.476562 0)"/>
      <use xlink:href="#DejaVuSans-29" transform="translate(615.576172 0)"/>
     </g>
    </g>
   </g>
   <g id="line2d_33">
    <path d="M 43.15875 272.137716 
L 44.630851 272.583953 
L 49.047155 279.179555 
L 50.224836 279.233974 
L 51.108097 279.244858 
L 52.285778 279.301454 
L 53.463459 279.379818 
L 57.585343 279.519131 
L 58.468604 279.403762 
L 59.057444 279.28404 
L 59.940705 279.205676 
L 63.179328 278.91399 
L 65.24027 278.807328 
L 66.12353 278.794268 
L 67.301211 278.909636 
L 69.656574 279.112075 
L 70.245414 279.314515 
L 71.128675 279.35805 
L 72.895196 279.484302 
L 74.072877 279.584434 
L 76.133819 279.538722 
L 76.72266 279.429883 
L 78.489181 279.355873 
L 81.727804 279.131666 
L 84.672007 278.894399 
L 85.849688 279.00106 
L 88.79389 279.06854 
L 92.621354 279.223091 
L 93.799035 279.297101 
L 98.215339 279.327575 
L 98.804179 279.199146 
L 99.68744 279.112075 
L 99.98186 279.220914 
L 103.220483 279.199146 
L 104.103744 278.487343 
L 104.987005 278.19348 
L 108.225628 278.424217 
L 109.108889 278.485167 
L 112.053091 278.591828 
L 112.936352 279.314515 
L 113.819613 279.590964 
L 118.235917 279.453828 
L 118.824757 279.377641 
L 122.06338 279.371111 
L 125.302003 279.14255 
L 132.073669 279.101192 
L 132.368089 279.35152 
L 135.017871 279.325399 
L 137.373234 279.06854 
L 137.667654 279.175202 
L 139.139755 279.140373 
L 141.495117 279.186085 
L 145.02816 279.103368 
L 145.617001 279.183909 
L 151.210986 279.118606 
L 153.566348 279.257919 
L 154.155188 279.29057 
L 156.510551 279.412469 
L 157.099391 279.5126 
L 157.688232 279.50607 
L 158.277072 279.601848 
L 161.515695 279.56702 
L 161.810115 279.410292 
L 166.520839 279.547429 
L 167.992941 279.549605 
L 170.348303 279.595318 
L 170.642723 279.743338 
L 172.114824 279.65409 
L 175.059027 279.601848 
L 176.236708 279.381994 
L 176.531128 279.401585 
L 177.119969 279.085954 
L 178.59207 278.890045 
L 179.180911 278.748555 
L 180.947432 278.646247 
L 182.419534 278.456869 
L 184.186055 278.452515 
L 185.658156 278.707197 
L 186.246997 278.822565 
L 187.424678 278.964055 
L 188.013519 279.090308 
L 190.07446 278.981469 
L 191.252141 279.035889 
L 192.135402 279.083777 
L 193.607503 279.166495 
L 204.795473 279.070717 
L 205.089894 279.177378 
L 205.973154 279.177378 
L 211.86156 279.392878 
L 213.922501 279.334106 
L 215.100183 279.373287 
L 217.161124 279.353696 
L 218.044385 279.262272 
L 220.988588 279.181732 
L 221.577428 278.731141 
L 223.93279 278.726788 
L 225.110471 278.42204 
L 225.699312 278.395919 
L 225.993732 278.258783 
L 226.582573 277.695 
L 227.171413 277.422905 
L 227.465833 277.231349 
L 229.232355 276.970137 
L 229.821196 277.000612 
L 230.410036 277.457733 
L 233.059818 277.54045 
L 233.943079 277.695 
L 234.53192 277.753773 
L 234.82634 277.921384 
L 235.415181 278.517818 
L 237.181702 279.186085 
L 238.064963 279.251388 
L 246.897571 279.21003 
L 247.486411 279.270979 
L 249.547353 279.334106 
L 250.430614 279.340636 
L 252.197135 279.301454 
L 253.963657 279.292747 
L 255.730179 279.192616 
L 256.319019 279.131666 
L 257.20228 279.151257 
L 258.379961 279.109899 
L 259.263222 279.101192 
L 262.207424 279.14908 
L 263.090685 279.096838 
L 268.97909 279.349343 
L 271.334452 279.307984 
L 272.806554 279.362404 
L 276.634017 279.227444 
L 278.400539 279.186085 
L 279.283799 279.21656 
L 280.461481 279.275333 
L 281.933582 279.266626 
L 283.405683 279.340636 
L 286.055465 279.288394 
L 287.821987 279.403762 
L 291.35503 279.270979 
L 293.415972 279.109899 
L 294.299233 279.155611 
L 297.243435 279.088131 
L 311.375608 279.292747 
L 314.908651 279.125136 
L 315.203071 278.850863 
L 316.086332 278.92052 
L 319.913796 279.144727 
L 321.680317 279.29057 
L 321.974737 279.194793 
L 323.741259 279.464712 
L 324.035679 279.7281 
L 326.391041 279.619262 
L 327.568722 279.558313 
L 328.746403 279.523484 
L 329.629664 279.392878 
L 331.101765 279.482126 
L 337.579011 279.56702 
L 338.462272 279.697626 
L 339.934373 279.712863 
L 340.817634 279.051126 
L 341.406475 278.587475 
L 341.995315 278.480813 
L 343.172996 278.469929 
L 343.761837 278.55047 
L 345.233938 278.356737 
L 345.822778 278.3415 
L 348.766981 278.20001 
L 349.650242 278.763793 
L 349.944662 279.268803 
L 350.239082 279.521308 
L 351.122343 279.377641 
L 352.005604 279.029358 
L 352.888865 278.776853 
L 353.477705 278.820389 
L 354.655386 278.537409 
L 355.538647 278.356737 
L 356.716328 276.985375 
L 358.188429 276.563082 
L 359.07169 275.840395 
L 360.249371 275.918759 
L 361.721473 276.156027 
L 363.782414 276.502132 
L 364.371255 276.639269 
L 365.254516 277.612283 
L 366.137777 277.340188 
L 367.904298 278.110763 
L 368.493139 278.080288 
L 370.25966 278.654954 
L 372.320602 278.674545 
L 372.909443 278.761616 
L 373.792703 278.781207 
L 374.087124 278.935757 
L 374.675964 279.534368 
L 374.970384 279.771636 
L 380.269949 279.902242 
L 381.15321 279.854353 
L 381.74205 279.926186 
L 382.919731 279.893535 
L 388.219296 279.691095 
L 392.93002 279.906595 
L 394.402122 279.804287 
L 395.579803 279.839115 
L 398.229585 279.80211 
L 402.351469 279.749868 
L 404.41241 279.849999 
L 405.001251 279.786873 
L 405.590092 279.725924 
L 407.062193 279.617085 
L 409.417555 279.623616 
L 410.006395 279.560489 
L 410.889656 279.538722 
L 412.067337 279.514777 
L 413.833859 279.523484 
L 414.128279 279.318868 
L 414.71712 279.347166 
L 416.189221 279.625792 
L 416.778061 279.806464 
L 422.666467 279.780343 
L 422.960887 280.061146 
L 423.549727 280.037201 
L 423.844148 279.971898 
L 424.432988 280.01761 
L 425.90509 279.621439 
L 427.966031 279.732454 
L 429.732553 279.747691 
L 431.793495 279.725924 
L 432.382335 279.7281 
L 432.676756 279.793403 
L 433.265596 279.7281 
L 435.326538 279.664974 
L 440.920523 279.562666 
L 442.981465 279.527838 
L 447.103348 279.238328 
L 447.986609 279.231798 
L 448.86987 279.27751 
L 449.753131 279.305808 
L 450.930812 279.312338 
L 452.697333 279.292747 
L 453.286174 279.305808 
L 453.580594 279.434237 
L 454.463855 279.423353 
L 459.76342 279.804287 
L 461.529941 279.756398 
L 465.062984 279.915302 
L 469.184868 279.701979 
L 469.773708 279.765105 
L 470.951389 279.754222 
L 478.017476 279.645383 
L 482.139359 279.658444 
L 488.911025 279.56702 
L 489.794286 279.56702 
L 495.977112 279.678035 
L 498.921314 279.86959 
L 503.926459 279.691095 
L 505.39856 279.530015 
L 505.987401 279.43206 
L 506.281821 279.233974 
L 508.931603 279.257919 
L 511.581386 279.397232 
L 513.347907 279.412469 
L 514.820008 279.556136 
L 515.114429 279.775989 
L 516.58653 279.745514 
L 518.353052 279.691095 
L 520.413993 279.691095 
L 522.769355 279.725924 
L 524.830297 279.682388 
L 532.190804 279.601848 
L 533.957325 279.671504 
L 534.546166 279.614908 
L 536.312687 279.719393 
L 541.317832 279.756398 
L 542.789933 279.643206 
L 543.967614 279.732454 
L 549.561599 279.627969 
L 550.44486 279.632323 
L 551.328121 279.749868 
L 554.566744 279.780343 
L 555.155584 279.754222 
L 556.038845 279.760752 
L 570.171018 279.240505 
L 574.587321 290.709887 
L 574.587321 290.709887 
" clip-path="url(#p207717bd36)" style="fill: none; stroke: #58a6ff; stroke-width: 2.5; stroke-linecap: square"/>
   </g>
   <g id="line2d_34">
    <path d="M 43.15875 175.837567 
L 44.630851 169.609838 
L 49.047155 71.583513 
L 49.341575 72.38674 
L 49.635996 72.780735 
L 49.930416 72.345382 
L 50.224836 72.941816 
L 50.519257 73.877825 
L 50.813677 73.438118 
L 51.402517 73.185614 
L 51.696938 73.176906 
L 51.991358 73.83429 
L 52.285778 73.888709 
L 52.580198 74.241345 
L 52.874619 74.78336 
L 53.169039 74.598335 
L 54.0523 74.476436 
L 54.34672 74.389365 
L 54.64114 74.670168 
L 54.93556 74.565683 
L 55.229981 75.532168 
L 55.818821 75.28837 
L 56.113241 75.704132 
L 56.407662 75.812971 
L 56.702082 76.296213 
L 56.996502 77.010192 
L 57.290923 76.720682 
L 57.585343 56.622597 
L 58.174183 53.316089 
L 58.468604 52.014383 
L 58.763024 51.866363 
L 59.057444 50.414459 
L 59.646285 49.902919 
L 59.940705 49.278187 
L 60.235125 47.347395 
L 60.529545 46.94687 
L 61.118386 44.933361 
L 61.412806 44.76575 
L 62.001647 43.651246 
L 62.296067 43.287726 
L 62.590487 43.509756 
L 62.884907 43.36609 
L 63.179328 43.949463 
L 63.768168 44.680857 
L 64.062589 43.844978 
L 64.651429 45.068321 
L 64.945849 45.009548 
L 65.24027 45.7823 
L 65.53469 44.500185 
L 65.82911 43.908104 
L 66.12353 44.961659 
L 66.417951 64.802886 
L 67.006791 67.893894 
L 67.301211 68.995338 
L 67.595632 68.636172 
L 68.478892 69.437222 
L 68.773313 70.312282 
L 69.067733 71.829488 
L 69.362153 72.014513 
L 69.656574 72.465104 
L 69.950994 73.853881 
L 70.834255 75.064163 
L 71.128675 74.639694 
L 72.011936 75.196946 
L 72.306356 74.898729 
L 72.895196 76.294036 
L 73.484037 74.968385 
L 73.778457 74.874784 
L 74.072877 73.949659 
L 74.367298 74.831249 
L 74.661718 74.759416 
L 74.956138 74.482966 
L 75.250558 74.491673 
L 75.544979 73.949659 
L 75.839399 73.779871 
L 76.133819 73.851704 
L 76.72266 75.412446 
L 77.01708 74.600512 
L 77.3115 75.090284 
L 77.605921 74.92485 
L 77.900341 75.112052 
L 78.194761 74.922673 
L 78.489181 74.574391 
L 78.783602 73.888709 
L 79.078022 73.782048 
L 79.372442 73.46424 
L 79.666862 72.449866 
L 79.961283 72.634892 
L 80.550123 72.678427 
L 80.844543 72.741553 
L 81.138964 73.105073 
L 81.433384 72.247427 
L 81.727804 72.062402 
L 82.316645 73.257447 
L 82.611065 72.406331 
L 82.905485 72.077639 
L 83.199906 72.480341 
L 83.494326 72.114644 
L 83.788746 72.188654 
L 84.083166 72.036281 
L 84.377587 72.462927 
L 84.672007 72.434629 
L 84.966427 72.049341 
L 85.555268 71.925266 
L 85.849688 72.711078 
L 86.144108 72.125528 
L 86.732949 71.903498 
L 87.027369 72.290963 
L 87.616209 73.466416 
L 87.91063 72.926578 
L 88.20505 72.880866 
L 88.49947 73.581785 
L 88.79389 74.633163 
L 89.382731 74.393719 
L 89.971572 73.499068 
L 90.265992 73.24874 
L 90.560412 73.455533 
L 90.854832 73.170376 
L 91.149253 71.886084 
L 91.443673 72.573942 
L 91.738093 74.04326 
L 92.032513 74.385012 
L 92.621354 74.247876 
L 92.915774 74.56133 
L 93.210194 74.365421 
L 93.799035 75.460334 
L 94.093455 75.610531 
L 94.387875 75.048926 
L 94.976716 76.548718 
L 95.271136 76.146016 
L 95.565556 76.002349 
L 95.859977 76.000173 
L 96.154397 75.675834 
L 96.448817 75.754198 
L 96.743238 76.132955 
L 97.332078 77.127738 
L 97.626498 77.565268 
L 97.920919 77.31494 
L 98.215339 77.693697 
L 98.509759 77.034137 
L 98.804179 77.604449 
L 99.0986 77.898313 
L 99.39302 77.17998 
L 99.68744 76.97101 
L 99.98186 77.896136 
L 100.276281 77.98103 
L 100.570701 77.619687 
L 100.865121 77.713288 
L 101.159541 78.176939 
L 101.453962 77.693697 
L 102.042802 78.163878 
L 102.337222 77.739409 
L 102.631643 77.824303 
L 102.926063 78.059394 
L 103.220483 78.466449 
L 103.809324 74.676699 
L 104.398164 73.377169 
L 104.692585 72.560882 
L 105.281425 71.864316 
L 105.575845 71.28965 
L 106.164686 69.223899 
L 106.459106 68.144222 
L 106.753526 68.444616 
L 107.047947 67.680571 
L 107.342367 67.689278 
L 107.636787 67.221273 
L 107.931207 67.266985 
L 108.520048 68.296596 
L 108.814468 68.420672 
L 109.108889 67.58044 
L 109.403309 67.667511 
L 109.697729 61.977443 
L 110.28657 61.33312 
L 110.87541 59.680954 
L 111.16983 59.95958 
L 111.464251 60.016176 
L 111.758671 59.905161 
L 112.053091 59.443687 
L 113.230772 63.851639 
L 113.525192 64.728876 
L 113.819613 64.916078 
L 114.114033 64.757174 
L 114.408453 64.920431 
L 114.702873 65.560401 
L 115.880555 66.50294 
L 116.174975 67.756758 
L 116.469395 68.294419 
L 116.763815 68.475091 
L 117.058236 67.946137 
L 117.352656 67.861243 
L 117.647076 67.930899 
L 117.941496 68.477268 
L 118.235917 67.928722 
L 118.530337 73.220442 
L 118.824757 74.149921 
L 119.119177 74.472083 
L 119.413598 75.205653 
L 119.708018 75.514754 
L 120.002438 74.942264 
L 120.591279 74.652754 
L 120.885699 74.469906 
L 121.474539 74.56786 
L 121.76896 74.173866 
L 122.06338 73.259624 
L 122.3578 72.987528 
L 122.652221 73.059361 
L 122.946641 74.371951 
L 123.241061 74.065027 
L 123.535481 72.565235 
L 124.124322 71.748948 
L 124.418742 71.907852 
L 124.713162 71.307064 
L 125.302003 68.897384 
L 125.596423 68.81249 
L 125.890843 68.261768 
L 126.185264 68.183404 
L 126.479684 69.304439 
L 127.362945 68.810313 
L 127.657365 68.059328 
L 127.951785 67.730637 
L 128.246205 67.151617 
L 128.835046 67.480309 
L 129.129466 67.14291 
L 129.423887 66.603072 
L 129.718307 66.877344 
L 130.012727 67.51949 
L 130.307147 67.556495 
L 130.601568 67.793763 
L 130.895988 68.272652 
L 131.190408 67.880834 
L 131.484828 68.054975 
L 131.779249 66.378865 
L 132.073669 66.814218 
L 132.368089 68.372783 
L 132.662509 68.858202 
L 132.95693 68.827727 
L 133.25135 68.642702 
L 133.54577 69.121591 
L 133.84019 70.292691 
L 134.134611 69.913934 
L 135.017871 71.751124 
L 135.606712 69.023636 
L 135.901132 68.8865 
L 136.195553 68.457677 
L 136.489973 68.263945 
L 136.784393 68.679707 
L 137.373234 68.255237 
L 137.667654 68.59699 
L 137.962074 68.588283 
L 138.256494 69.77462 
L 138.550915 70.292691 
L 138.845335 69.770267 
L 140.023016 69.441575 
L 140.317436 69.511232 
L 140.611856 70.26657 
L 141.200697 70.960958 
L 141.495117 70.860827 
L 141.789537 70.943544 
L 142.083958 70.166438 
L 142.378378 70.046716 
L 142.672798 70.257863 
L 142.967219 71.442024 
L 143.261639 71.061089 
L 143.556059 70.442888 
L 143.850479 69.517762 
L 144.1449 69.352328 
L 144.43932 70.194736 
L 144.73374 70.246979 
L 145.02816 70.0576 
L 145.617001 70.593085 
L 146.205841 70.673625 
L 146.794682 71.202579 
L 147.089102 70.780287 
L 147.383522 69.76156 
L 147.677943 70.005358 
L 147.972363 70.939191 
L 148.266783 70.445065 
L 148.561204 70.399352 
L 148.855624 70.873888 
L 149.150044 69.339267 
L 149.444464 68.784192 
L 149.738885 69.112883 
L 150.033305 69.014929 
L 150.327725 69.387156 
L 150.622145 68.734126 
L 150.916566 69.833393 
L 151.505406 69.361035 
L 151.799826 66.474642 
L 152.094247 65.808552 
L 152.388667 65.482037 
L 152.683087 66.05888 
L 152.977507 66.061057 
L 153.271928 67.177738 
L 153.566348 67.528197 
L 153.860768 68.499035 
L 154.155188 68.346662 
L 154.449609 67.856889 
L 154.744029 68.67753 
L 155.038449 68.849495 
L 155.62729 68.059328 
L 155.92171 68.327071 
L 156.21613 69.106353 
L 156.804971 68.52298 
L 157.099391 69.145535 
L 157.688232 69.143358 
L 157.982652 69.857338 
L 158.277072 70.13161 
L 158.571492 69.415454 
L 158.865913 69.25655 
L 159.160333 68.518626 
L 159.454753 69.585242 
L 159.749173 69.517762 
L 160.338014 68.910444 
L 160.632434 70.963135 
L 160.926854 71.278766 
L 161.221275 72.815563 
L 162.104536 71.132923 
L 162.398956 70.93266 
L 162.693376 70.514721 
L 162.987796 71.368014 
L 163.282217 71.522564 
L 163.576637 70.584378 
L 163.871057 70.107666 
L 164.459898 70.808585 
L 164.754318 70.053247 
L 165.048738 70.027125 
L 165.343158 70.436357 
L 165.637579 70.157731 
L 165.931999 70.455948 
L 166.520839 70.05107 
L 166.81526 70.127257 
L 167.10968 69.981413 
L 167.4041 70.425474 
L 167.69852 70.48207 
L 167.992941 70.884771 
L 168.581781 69.387156 
L 168.876202 70.229565 
L 169.465042 69.998827 
L 169.759462 69.450282 
L 170.053883 68.594813 
L 170.642723 70.088075 
L 171.231564 70.460302 
L 171.525984 70.497307 
L 171.820404 69.97706 
L 172.114824 69.696257 
L 172.703665 70.860827 
L 173.292505 69.822509 
L 173.586926 69.940055 
L 174.175766 68.927858 
L 174.470186 69.095469 
L 174.764607 68.505566 
L 175.059027 56.579062 
L 175.353447 55.342659 
L 175.942288 54.942134 
L 176.531128 51.459307 
L 176.825549 49.171526 
L 177.119969 47.850229 
L 177.414389 47.686971 
L 178.00323 46.204593 
L 178.88649 45.84978 
L 179.180911 45.364361 
L 179.475331 45.222871 
L 180.064171 44.304276 
L 180.358592 44.61773 
L 180.653012 44.676503 
L 180.947432 44.415291 
L 181.241852 44.326044 
L 181.536273 43.172357 
L 181.830693 43.346499 
L 182.125113 43.268135 
L 182.713954 43.838448 
L 183.302794 43.287726 
L 183.597215 43.457514 
L 183.891635 55.682234 
L 184.186055 57.084072 
L 184.480475 57.562961 
L 184.774896 57.824173 
L 185.069316 58.969152 
L 185.952577 64.731053 
L 186.541417 66.143774 
L 186.835837 67.071077 
L 187.130258 67.21039 
L 187.719098 67.308344 
L 188.307939 67.687101 
L 188.602359 67.382354 
L 188.896779 67.739344 
L 189.1912 66.141597 
L 189.48562 67.034071 
L 189.78004 67.425889 
L 190.07446 67.338819 
L 190.663301 69.141181 
L 190.957721 69.110707 
L 191.252141 69.361035 
L 191.546562 68.925682 
L 192.135402 70.751989 
L 192.429822 71.907852 
L 192.724243 71.631402 
L 193.018663 70.693216 
L 193.607503 72.125528 
L 193.901924 72.367149 
L 194.196344 72.354089 
L 194.490764 71.944857 
L 194.785185 72.286609 
L 195.079605 72.304023 
L 195.374025 71.938326 
L 195.668445 71.920912 
L 195.962866 72.123351 
L 196.257286 71.840372 
L 196.551706 72.924402 
L 196.846126 72.53476 
L 197.140547 72.338851 
L 197.434967 72.698018 
L 197.729387 72.552174 
L 198.023807 66.148128 
L 198.318228 62.711013 
L 198.612648 62.808968 
L 198.907068 62.412796 
L 199.201488 62.493337 
L 199.495909 61.505085 
L 199.790329 62.397559 
L 200.084749 62.171175 
L 200.379169 62.734958 
L 200.67359 62.364907 
L 200.96801 61.655282 
L 201.26243 61.33312 
L 201.556851 61.357065 
L 201.851271 62.726251 
L 202.440111 61.152448 
L 202.734532 61.361418 
L 203.323372 61.372302 
L 203.617792 61.137211 
L 203.912213 60.745393 
L 204.206633 62.077574 
L 204.501053 61.896903 
L 204.795473 61.990504 
L 205.089894 62.284367 
L 205.384314 61.422368 
L 205.973154 62.421503 
L 206.561995 63.457644 
L 206.856415 70.320989 
L 207.150835 73.75375 
L 207.445256 73.9083 
L 207.739676 73.91483 
L 208.034096 73.512129 
L 208.328517 73.647088 
L 208.622937 73.17473 
L 209.211777 73.004942 
L 209.506198 72.656659 
L 209.800618 72.536937 
L 210.389458 72.869982 
L 210.683879 72.127705 
L 210.978299 72.347558 
L 211.272719 72.728493 
L 211.567139 72.341028 
L 212.15598 72.978821 
L 212.4504 71.692352 
L 212.74482 72.17124 
L 213.039241 71.256998 
L 213.333661 71.050206 
L 213.922501 71.683645 
L 214.216922 71.555215 
L 214.511342 71.748948 
L 214.805762 71.163397 
L 215.100183 70.301398 
L 215.394603 69.994474 
L 215.689023 71.071973 
L 215.983443 70.508191 
L 216.572284 70.275277 
L 217.161124 70.597438 
L 217.455545 70.153378 
L 217.749965 70.092428 
L 218.044385 70.314459 
L 218.338805 71.108978 
L 218.633226 71.276589 
L 218.927646 71.085034 
L 219.222066 71.581337 
L 219.516486 71.476852 
L 219.810907 71.80119 
L 220.399747 71.916559 
L 220.694167 70.921776 
L 221.283008 70.908716 
L 221.577428 69.435045 
L 221.871849 69.543883 
L 222.166269 69.90958 
L 222.460689 69.657075 
L 223.63837 69.759383 
L 223.93279 69.998827 
L 224.227211 69.443752 
L 224.816051 65.649648 
L 225.110471 64.443719 
L 225.404892 64.006189 
L 225.699312 63.311801 
L 225.993732 62.186413 
L 227.465833 50.771449 
L 228.054674 47.469294 
L 228.349094 47.399638 
L 228.937935 46.032629 
L 229.821196 47.647789 
L 230.410036 51.037015 
L 230.704456 51.095787 
L 230.998877 51.563792 
L 231.293297 51.676984 
L 231.587717 52.014383 
L 231.882137 52.839377 
L 232.176558 52.90468 
L 232.470978 53.326973 
L 232.765398 53.357448 
L 233.059818 54.35223 
L 234.2375 59.968288 
L 234.82634 61.879488 
L 235.709601 69.602656 
L 236.004021 71.463791 
L 236.298441 74.082441 
L 236.592862 74.942264 
L 236.887282 76.690208 
L 237.476122 77.750293 
L 237.770543 78.150818 
L 238.359383 77.367182 
L 238.653803 77.421601 
L 238.948224 76.67497 
L 239.242644 76.476884 
L 239.831484 75.131643 
L 240.125905 75.558289 
L 240.714745 73.927891 
L 241.009166 73.512129 
L 241.303586 73.372815 
L 241.598006 73.945305 
L 241.892426 73.531719 
L 242.186847 73.712391 
L 242.481267 73.540426 
L 242.775687 73.605729 
L 243.070107 74.086795 
L 243.364528 73.795108 
L 243.658948 73.742866 
L 243.953368 73.847351 
L 244.247788 73.61879 
L 245.131049 71.981862 
L 245.425469 72.101584 
L 245.71989 72.428099 
L 246.01431 72.162533 
L 246.30873 72.088523 
L 246.60315 72.436806 
L 246.897571 72.508639 
L 247.191991 73.170376 
L 247.486411 72.976644 
L 247.780832 73.490361 
L 248.075252 72.980997 
L 248.664092 74.415487 
L 248.958513 73.586139 
L 249.841773 75.14035 
L 250.136194 74.805128 
L 250.430614 74.228285 
L 250.725034 74.496027 
L 251.019454 75.155587 
L 251.313875 74.8639 
L 251.608295 75.569173 
L 251.902715 74.798597 
L 252.197135 74.78336 
L 252.491556 75.001037 
L 252.785976 74.979269 
L 253.374816 76.035001 
L 253.669237 76.285329 
L 254.258077 76.026294 
L 255.141338 76.178667 
L 255.435758 75.902218 
L 255.730179 76.204789 
L 256.024599 75.730254 
L 256.319019 75.886981 
L 256.613439 75.758552 
L 256.90786 76.374576 
L 257.20228 76.254854 
L 258.085541 77.615333 
L 258.379961 77.116854 
L 258.674381 77.576152 
L 259.263222 79.413342 
L 259.557642 79.136893 
L 259.852062 77.262697 
L 260.440903 78.34455 
L 260.735323 78.588348 
L 261.029743 79.343686 
L 261.324164 79.332802 
L 261.618584 79.604898 
L 261.913004 78.890918 
L 262.796265 80.577912 
L 263.385105 80.932725 
L 263.679526 81.087276 
L 263.973946 81.102513 
L 264.268366 81.553104 
L 264.562786 80.971907 
L 265.151627 80.773821 
L 265.446047 81.213528 
L 265.740467 80.928372 
L 266.034888 80.915311 
L 266.623728 81.202644 
L 266.918148 80.538731 
L 267.212569 80.952316 
L 267.506989 80.575736 
L 267.801409 79.700676 
L 268.09583 79.256615 
L 268.39025 80.0076 
L 268.68467 81.46821 
L 268.97909 81.137341 
L 269.273511 81.04374 
L 269.567931 81.220059 
L 270.451192 80.018483 
L 270.745612 80.264458 
L 271.628873 79.646256 
L 271.923293 79.796453 
L 272.512133 79.119479 
L 272.806554 78.884388 
L 273.100974 78.179116 
L 273.395394 78.316252 
L 273.689815 78.7146 
L 274.867496 78.995403 
L 275.750756 78.268363 
L 276.045177 77.822126 
L 276.339597 78.020212 
L 276.634017 77.961439 
L 276.928437 78.194353 
L 277.222858 77.889606 
L 277.517278 77.269227 
L 277.811698 77.40854 
L 278.106118 76.252677 
L 278.694959 75.085931 
L 278.989379 75.847799 
L 279.283799 75.120759 
L 279.57822 75.342789 
L 279.87264 74.752885 
L 280.16706 74.511264 
L 280.755901 74.622279 
L 281.050321 74.400249 
L 281.344741 74.672345 
L 281.639162 74.106386 
L 281.933582 75.009744 
L 282.228002 75.105522 
L 282.522422 75.399385 
L 282.816843 76.141662 
L 283.405683 75.455981 
L 283.994524 75.466865 
L 284.288944 75.762905 
L 284.583364 75.780319 
L 284.877784 76.489945 
L 285.172205 76.30492 
L 285.761045 74.404603 
L 286.055465 74.541739 
L 286.938726 65.847734 
L 287.527567 66.64443 
L 287.821987 66.246082 
L 288.116407 67.058016 
L 288.410828 66.849046 
L 288.705248 67.51949 
L 288.999668 67.817707 
L 289.294088 67.717576 
L 289.588509 67.93743 
L 289.882929 67.349703 
L 290.471769 67.900425 
L 290.76619 67.349703 
L 291.06061 67.410652 
L 291.35503 66.822925 
L 291.64945 65.471153 
L 291.943871 63.030998 
L 292.238291 62.604352 
L 292.532711 61.470256 
L 292.827131 61.006605 
L 293.121552 60.847701 
L 293.415972 61.028373 
L 294.004813 60.732333 
L 294.299233 62.234301 
L 294.593653 63.024468 
L 294.888073 62.48463 
L 295.476914 68.805959 
L 295.771334 71.957917 
L 296.065754 72.121175 
L 296.360175 71.910028 
L 296.654595 71.8752 
L 296.949015 71.685821 
L 297.243435 72.127705 
L 297.537856 70.405883 
L 297.832276 70.521251 
L 298.421116 69.818156 
L 298.715537 70.503837 
L 299.304377 70.854297 
L 299.598797 70.71063 
L 300.482058 70.902185 
L 300.776479 73.359755 
L 301.070899 73.882179 
L 301.365319 74.990153 
L 301.659739 74.698466 
L 301.95416 75.893511 
L 302.543 76.685854 
L 303.131841 75.205653 
L 303.426261 75.453804 
L 303.720681 76.246147 
L 304.603942 76.624905 
L 304.898362 77.519556 
L 305.487203 78.059394 
L 305.781623 77.83301 
L 306.076043 76.905707 
L 306.370463 78.446858 
L 306.664884 78.133404 
L 307.253724 79.269676 
L 307.548145 78.760312 
L 308.431405 80.203509 
L 308.725826 80.157797 
L 309.020246 79.774686 
L 309.314666 80.678044 
L 309.903507 80.845655 
L 310.492347 80.630155 
L 310.786767 79.522181 
L 311.081188 79.683261 
L 311.375608 79.045469 
L 311.670028 80.153443 
L 311.964448 80.59315 
L 312.258869 80.743347 
L 312.553289 79.265322 
L 312.847709 79.102065 
L 313.14213 79.193489 
L 313.43655 78.975812 
L 313.73097 78.945338 
L 314.02539 79.604898 
L 314.319811 79.572246 
L 314.614231 75.688895 
L 314.908651 69.702787 
L 315.203071 68.479444 
L 315.497492 69.165126 
L 315.791912 69.441575 
L 316.086332 68.923505 
L 316.380752 69.657075 
L 316.675173 69.452459 
L 316.969593 69.448105 
L 317.264013 69.243489 
L 317.558433 69.458989 
L 318.147274 70.388469 
L 318.441694 70.06413 
L 319.030535 70.379762 
L 319.619375 71.753301 
L 319.913796 71.07415 
L 320.208216 72.125528 
L 320.502636 72.066756 
L 321.091477 68.923505 
L 321.385897 70.649681 
L 321.680317 70.529958 
L 321.974737 69.421984 
L 322.269158 69.445929 
L 322.563578 69.267434 
L 322.857998 68.895207 
L 323.152418 69.086762 
L 323.446839 73.39676 
L 323.741259 79.713736 
L 324.035679 80.623625 
L 324.330099 80.503902 
L 325.21336 79.469938 
L 325.50778 78.977989 
L 325.802201 78.936631 
L 326.391041 78.163878 
L 326.685462 78.04851 
L 326.979882 77.39548 
L 327.568722 79.284913 
L 327.863143 79.091181 
L 328.451983 77.443369 
L 328.746403 77.580505 
L 329.040824 75.950107 
L 329.335244 75.917455 
L 329.924084 78.866974 
L 330.218505 77.963616 
L 330.512925 77.843894 
L 331.101765 78.298838 
L 331.690606 77.920081 
L 331.985026 77.415071 
L 332.573867 77.047197 
L 332.868287 76.803399 
L 333.162707 76.753334 
L 333.457128 76.999308 
L 333.751548 75.13382 
L 334.045968 74.273997 
L 334.340388 73.882179 
L 334.634809 73.710214 
L 334.929229 74.315355 
L 335.518069 74.454668 
L 335.81249 73.4773 
L 336.10691 73.004942 
L 336.69575 71.722826 
L 336.990171 71.994922 
L 337.284591 71.539978 
L 337.579011 71.846902 
L 337.873431 72.917871 
L 338.167852 72.45422 
L 338.462272 72.606594 
L 338.756692 72.221306 
L 339.051112 73.348871 
L 339.345533 73.144255 
L 339.639953 74.160805 
L 339.934373 73.664502 
L 340.523214 70.368878 
L 340.817634 70.168615 
L 341.112054 68.581752 
L 341.406475 64.744113 
L 341.995315 63.248675 
L 342.289735 63.139836 
L 342.584156 64.822477 
L 342.878576 65.253477 
L 343.172996 65.064098 
L 343.467416 65.368845 
L 343.761837 64.922608 
L 344.056257 64.861659 
L 344.350677 63.762391 
L 344.939518 65.037977 
L 345.233938 64.977027 
L 345.822778 66.100239 
L 346.117199 66.243905 
L 346.706039 64.863835 
L 347.5893 64.959613 
L 347.88372 63.788513 
L 348.472561 63.964831 
L 348.766981 63.549068 
L 349.650242 66.431107 
L 349.944662 69.245666 
L 350.239082 73.475123 
L 350.827923 74.519971 
L 351.416763 73.142078 
L 352.005604 72.791619 
L 352.300024 73.018003 
L 352.888865 71.672761 
L 353.183285 71.981862 
L 353.477705 71.1351 
L 353.772126 69.082409 
L 354.655386 66.962238 
L 354.949807 67.225627 
L 355.244227 68.75154 
L 355.538647 68.862555 
L 356.127488 65.362315 
L 356.421908 62.92216 
L 356.716328 62.813321 
L 357.010748 62.168998 
L 357.305169 61.246049 
L 357.894009 59.123702 
L 358.188429 59.920399 
L 358.48285 58.655697 
L 358.77727 56.500699 
L 359.366111 55.625638 
L 359.660531 54.656977 
L 359.954951 54.384882 
L 360.249371 54.572083 
L 360.543792 54.905129 
L 360.838212 54.598205 
L 361.132632 53.747089 
L 361.427052 54.060543 
L 361.721473 53.34221 
L 362.015893 53.825453 
L 362.604733 56.274315 
L 362.899154 56.855511 
L 363.487994 58.307415 
L 363.782414 57.817642 
L 364.076835 57.667445 
L 364.371255 57.673976 
L 365.254516 62.478099 
L 365.548936 42.900262 
L 366.137777 42.260292 
L 366.432197 44.426175 
L 366.726617 45.407897 
L 367.021037 45.91073 
L 367.315458 46.681305 
L 367.904298 48.925551 
L 368.198718 48.847188 
L 368.787559 50.022641 
L 369.67082 52.767544 
L 369.96524 53.013519 
L 370.25966 52.569458 
L 370.55408 54.193326 
L 371.142921 53.377039 
L 371.437341 53.294321 
L 371.731761 53.803685 
L 372.026182 53.492407 
L 372.320602 53.015695 
L 372.615022 53.009165 
L 372.909443 52.020913 
L 373.203863 51.973024 
L 373.498283 52.819786 
L 373.792703 52.865499 
L 374.087124 54.485013 
L 374.381544 74.707173 
L 375.264805 70.819468 
L 375.559225 70.634443 
L 376.736906 68.31401 
L 377.031326 69.441575 
L 377.325746 69.522116 
L 377.914587 70.059777 
L 378.209007 69.933524 
L 378.797848 70.971842 
L 379.092268 72.375856 
L 379.386688 72.395447 
L 379.681109 72.721962 
L 379.975529 72.711078 
L 380.269949 73.533896 
L 380.85879 72.726316 
L 381.15321 73.072422 
L 381.44763 73.098543 
L 381.74205 73.884356 
L 382.036471 73.808169 
L 382.330891 73.344517 
L 382.625311 73.135548 
L 382.919731 72.393271 
L 383.214152 71.348423 
L 383.802992 76.81646 
L 384.097412 77.497788 
L 384.391833 77.841717 
L 384.686253 78.755959 
L 384.980673 79.21961 
L 385.275093 80.164327 
L 385.863934 79.992362 
L 386.452775 78.666712 
L 386.747195 76.855642 
L 387.041615 77.027606 
L 387.336035 76.483415 
L 387.924876 76.069829 
L 388.219296 75.686718 
L 388.513716 76.368046 
L 388.808137 76.522597 
L 389.102557 75.58441 
L 389.396977 75.828208 
L 389.691397 76.466001 
L 389.985818 76.270092 
L 390.280238 76.753334 
L 390.574658 76.335395 
L 390.869078 76.206965 
L 391.163499 76.365869 
L 391.457919 76.09595 
L 391.752339 76.494299 
L 392.046759 77.373712 
L 392.6356 76.962303 
L 392.93002 76.154723 
L 393.224441 76.420289 
L 393.518861 74.979269 
L 393.813281 75.257895 
L 394.107701 74.504734 
L 394.696542 74.620103 
L 395.579803 77.669752 
L 395.874223 77.310586 
L 396.168643 77.61751 
L 396.463063 77.69805 
L 396.757484 77.421601 
L 397.051904 77.75247 
L 397.346324 77.415071 
L 397.640744 77.441192 
L 397.935165 77.850424 
L 398.524005 77.872192 
L 398.818426 78.536106 
L 399.112846 78.790787 
L 400.290527 78.4991 
L 400.879367 77.628394 
L 401.173788 76.799046 
L 401.468208 76.557425 
L 401.762628 76.60749 
L 402.057048 77.064611 
L 402.351469 77.835187 
L 402.645889 77.745939 
L 403.234729 78.20306 
L 403.52915 77.567444 
L 403.82357 78.324959 
L 404.41241 78.41856 
L 404.706831 77.989737 
L 405.001251 77.824303 
L 405.295671 74.428547 
L 405.590092 74.650577 
L 405.884512 74.001901 
L 406.178932 74.001901 
L 406.473352 73.797285 
L 406.767773 72.96576 
L 407.062193 72.830801 
L 407.356613 73.176906 
L 407.651033 72.101584 
L 407.945454 72.079816 
L 408.239874 71.816427 
L 408.828714 73.533896 
L 409.123135 73.610083 
L 409.711975 73.927891 
L 410.006395 74.64187 
L 410.300816 74.872608 
L 410.595236 76.276622 
L 410.889656 75.251365 
L 411.184076 74.657108 
L 411.772917 75.667127 
L 412.067337 75.166471 
L 412.361758 75.275309 
L 412.656178 74.215224 
L 412.950598 73.810346 
L 413.245018 74.067204 
L 413.539439 74.774653 
L 413.833859 74.981446 
L 414.128279 77.40854 
L 414.422699 77.495611 
L 415.30596 78.131227 
L 415.60038 79.204373 
L 415.894801 79.776862 
L 416.483641 83.209623 
L 416.778061 83.274926 
L 417.072482 83.468658 
L 417.366902 83.181325 
L 417.661322 82.079881 
L 417.955742 82.489113 
L 418.250163 82.621896 
L 418.544583 81.75772 
L 418.839003 81.655412 
L 419.133424 81.775134 
L 419.722264 81.466033 
L 420.016684 82.310619 
L 420.605525 80.388534 
L 420.899945 80.312347 
L 421.194365 80.664983 
L 421.488786 80.011953 
L 421.783206 79.833458 
L 422.077626 79.994539 
L 422.666467 79.639726 
L 422.960887 80.590973 
L 423.255307 81.124281 
L 423.549727 81.3942 
L 423.844148 79.837812 
L 424.432988 79.313211 
L 424.727408 78.451212 
L 425.316249 75.384148 
L 425.90509 75.73243 
L 426.49393 75.919632 
L 426.78835 74.922673 
L 427.082771 74.724587 
L 427.377191 76.407228 
L 427.671611 76.794692 
L 427.966031 76.568309 
L 428.260452 75.360203 
L 428.554872 75.588764 
L 428.849292 75.342789 
L 429.143712 75.36891 
L 429.438133 75.771612 
L 430.026973 75.142527 
L 430.321393 75.821678 
L 430.615814 76.050238 
L 430.910234 75.71937 
L 431.204654 75.780319 
L 431.499074 75.203476 
L 431.793495 75.564819 
L 432.087915 74.826895 
L 432.382335 74.437254 
L 432.676756 75.664951 
L 432.971176 75.863036 
L 433.560016 76.95795 
L 433.854437 77.282288 
L 434.148857 77.338884 
L 434.737697 76.831697 
L 435.326538 75.312314 
L 435.620958 75.181708 
L 435.915378 74.726764 
L 436.209799 73.636204 
L 436.504219 73.18779 
L 436.798639 73.137725 
L 437.38748 74.792067 
L 437.6819 74.750709 
L 437.97632 75.325375 
L 438.270741 75.116405 
L 438.565161 75.871743 
L 438.859581 75.593117 
L 439.154001 76.781632 
L 439.448422 76.045885 
L 440.037262 75.804264 
L 440.331682 76.307097 
L 440.626103 76.045885 
L 440.920523 76.178667 
L 441.509363 76.148193 
L 441.803784 76.257031 
L 442.098204 75.031511 
L 442.392624 75.116405 
L 442.981465 74.607042 
L 443.275885 73.455533 
L 443.570305 73.61879 
L 443.864725 73.62532 
L 444.453566 75.95446 
L 444.747986 75.375441 
L 445.042407 76.424642 
L 445.336827 76.979717 
L 445.631247 77.134268 
L 446.220088 76.603137 
L 446.514508 76.820814 
L 446.808928 76.644495 
L 447.103348 76.992778 
L 447.397769 76.076359 
L 447.692189 76.897 
L 447.986609 75.908748 
L 448.281029 76.348455 
L 448.57545 76.291859 
L 448.86987 75.795557 
L 449.16429 75.580057 
L 449.45871 74.691936 
L 449.753131 74.659284 
L 450.047551 75.693249 
L 450.341971 75.673658 
L 450.636391 75.830385 
L 450.930812 76.398521 
L 451.225232 76.605314 
L 451.814073 76.433349 
L 452.108493 77.569621 
L 452.697333 77.828656 
L 453.286174 77.843894 
L 453.580594 78.324959 
L 454.169435 76.790339 
L 455.052695 77.9745 
L 455.347116 78.052863 
L 455.641536 77.515202 
L 455.935956 78.381555 
L 456.230376 78.368495 
L 456.524797 77.911374 
L 456.819217 78.86262 
L 457.113637 79.147777 
L 457.702478 81.772957 
L 457.996898 81.442089 
L 458.291318 82.008048 
L 458.585739 82.234432 
L 458.880159 81.914447 
L 459.174579 81.383316 
L 459.468999 81.635821 
L 459.76342 80.536554 
L 460.05784 80.390711 
L 460.64668 79.50912 
L 460.941101 79.49606 
L 461.235521 79.234848 
L 461.824361 79.082474 
L 462.118782 78.934454 
L 462.413202 79.776862 
L 462.707622 79.025878 
L 463.296463 75.344966 
L 464.474144 67.08196 
L 464.768564 66.840339 
L 465.062984 66.868637 
L 465.357405 67.036248 
L 465.651825 65.579991 
L 466.535086 63.677498 
L 466.829506 64.049725 
L 467.123926 64.165093 
L 467.418346 63.403225 
L 467.712767 63.011407 
L 468.007187 63.577366 
L 468.301607 62.525988 
L 468.596027 63.956124 
L 468.890448 63.422816 
L 469.479288 64.550381 
L 469.773708 64.041018 
L 470.068129 64.417598 
L 470.362549 65.066275 
L 470.656969 64.783295 
L 471.24581 65.083689 
L 471.54023 65.869501 
L 473.012331 75.791203 
L 473.306752 78.146464 
L 473.601172 78.292308 
L 473.895592 78.829969 
L 474.190012 78.505631 
L 474.484433 79.343686 
L 474.778853 79.319741 
L 475.367693 77.682813 
L 475.956534 77.737232 
L 476.250954 78.213944 
L 476.545374 78.137757 
L 476.839795 78.266186 
L 477.134215 78.803848 
L 477.428635 78.087692 
L 478.017476 78.48604 
L 478.311896 78.316252 
L 478.606316 78.803848 
L 478.900737 78.35108 
L 479.195157 78.475156 
L 479.489577 78.803848 
L 479.783997 79.302327 
L 480.078418 79.291443 
L 480.372838 77.778591 
L 480.667258 77.251813 
L 480.961678 76.08942 
L 481.256099 75.762905 
L 481.550519 75.251365 
L 481.844939 75.447274 
L 482.139359 74.968385 
L 482.43378 74.802951 
L 482.7282 74.038906 
L 483.02262 74.317532 
L 483.31704 73.575255 
L 483.611461 74.663638 
L 483.905881 74.369774 
L 484.200301 75.162117 
L 485.083562 75.819501 
L 485.377982 76.394167 
L 485.672403 76.590076 
L 485.966823 76.60096 
L 486.261243 77.225692 
L 486.555663 77.212632 
L 486.850084 76.772925 
L 487.438924 76.74898 
L 487.733344 77.001485 
L 488.027765 76.548718 
L 488.911025 74.326239 
L 489.499866 75.403739 
L 489.794286 76.825167 
L 490.088706 76.892647 
L 490.383127 76.463824 
L 491.266388 76.542187 
L 491.560808 77.91355 
L 491.855228 78.04851 
L 492.149648 78.858267 
L 492.444069 78.118166 
L 492.738489 78.588348 
L 493.032909 78.78208 
L 493.91617 77.741586 
L 494.21059 76.877409 
L 494.50501 77.38895 
L 494.799431 78.224828 
L 495.093851 77.904843 
L 495.388271 78.194353 
L 495.682691 78.287954 
L 495.977112 79.517827 
L 496.271532 79.563539 
L 496.565952 79.800807 
L 496.860372 79.20655 
L 497.449213 79.28709 
L 497.743633 79.705029 
L 498.038054 81.389846 
L 498.332474 81.352841 
L 498.626894 81.583579 
L 498.921314 81.191761 
L 499.215735 81.004559 
L 499.510155 77.005839 
L 500.687836 75.849976 
L 500.982256 74.565683 
L 501.276676 74.735471 
L 501.571097 73.832113 
L 501.865517 73.647088 
L 502.159937 74.034552 
L 502.454357 74.755062 
L 502.748778 74.210871 
L 503.043198 74.920496 
L 503.337618 74.321886 
L 503.632038 73.10072 
L 503.926459 73.605729 
L 504.220879 72.739376 
L 504.515299 72.351912 
L 505.39856 69.134651 
L 505.69298 69.441575 
L 505.987401 68.821197 
L 506.281821 69.191247 
L 506.576241 69.073702 
L 507.165082 67.338819 
L 507.459502 66.655314 
L 508.048342 68.409788 
L 508.342763 72.012336 
L 508.637183 72.767674 
L 508.931603 72.436806 
L 509.520444 72.549998 
L 509.814864 73.31622 
L 510.109284 73.203028 
L 510.403704 73.969249 
L 510.992545 74.1238 
L 511.286965 73.895239 
L 511.581386 74.263113 
L 511.875806 74.102032 
L 512.170226 74.343653 
L 512.759067 72.060225 
L 513.053487 72.027574 
L 513.347907 72.989705 
L 513.642327 73.25527 
L 513.936748 73.298805 
L 514.231168 74.162982 
L 514.525588 74.34583 
L 515.114429 75.003214 
L 515.703269 74.807305 
L 515.997689 75.59094 
L 516.88095 75.795557 
L 517.17537 76.344102 
L 517.469791 76.124248 
L 517.764211 76.365869 
L 518.058631 75.614885 
L 518.353052 75.804264 
L 518.647472 75.743314 
L 518.941892 75.551759 
L 519.236312 75.926163 
L 519.530733 75.451627 
L 520.708414 75.249188 
L 521.002834 75.053279 
L 521.886095 78.098575 
L 522.180515 77.016723 
L 522.474935 76.631435 
L 522.769355 77.517379 
L 523.063776 77.841717 
L 523.652616 78.052863 
L 523.947037 77.650162 
L 524.241457 77.91355 
L 524.830297 77.595742 
L 525.124718 77.341061 
L 525.419138 76.213496 
L 526.302399 75.053279 
L 526.596819 75.360203 
L 526.891239 75.042395 
L 527.185659 74.221754 
L 527.48008 73.98884 
L 527.7745 74.324062 
L 528.06892 73.742866 
L 528.36334 74.348007 
L 528.657761 74.663638 
L 529.246601 74.387189 
L 529.541021 74.646224 
L 529.835442 73.623144 
L 530.129862 74.176042 
L 530.718703 73.888709 
L 531.013123 74.330593 
L 531.601963 74.378482 
L 531.896384 74.676699 
L 532.190804 74.670168 
L 532.485224 75.009744 
L 532.779644 75.79991 
L 533.074065 76.052415 
L 533.368485 76.511713 
L 533.662905 76.53348 
L 533.957325 77.386773 
L 534.251746 77.47602 
L 534.546166 77.055904 
L 534.840586 77.299702 
L 535.135006 77.90049 
L 535.429427 77.976677 
L 535.723847 78.235712 
L 536.018267 78.940984 
L 536.312687 79.21961 
L 536.607108 78.790787 
L 536.901528 78.956221 
L 537.195948 78.832146 
L 537.490369 78.444681 
L 538.079209 78.866974 
L 538.373629 78.27707 
L 538.66805 78.980166 
L 538.96247 79.00411 
L 539.25689 78.542636 
L 539.55131 78.472979 
L 539.845731 78.244419 
L 540.140151 78.259656 
L 540.728991 76.799046 
L 541.023412 76.653203 
L 541.317832 77.082026 
L 541.612252 76.707622 
L 541.906672 77.051551 
L 542.201093 77.221339 
L 542.495513 77.619687 
L 542.789933 75.299254 
L 543.084353 76.280975 
L 543.378774 76.489945 
L 543.673194 76.44641 
L 543.967614 76.126425 
L 544.262035 76.189551 
L 544.556455 76.374576 
L 544.850875 77.188687 
L 545.145295 76.775101 
L 545.439716 76.936182 
L 546.028556 77.798182 
L 546.322976 77.597919 
L 546.617397 77.687167 
L 547.206237 77.976677 
L 547.500657 78.174762 
L 547.795078 79.056353 
L 548.089498 77.878722 
L 548.383918 77.941848 
L 548.678338 78.514338 
L 548.972759 78.618823 
L 549.267179 78.259656 
L 549.856019 78.394616 
L 550.15044 77.959262 
L 550.73928 78.629706 
L 551.033701 78.170409 
L 551.328121 77.301879 
L 551.622541 78.882211 
L 551.916961 77.759 
L 552.211382 77.26052 
L 552.505802 75.190415 
L 552.800222 74.115093 
L 553.094642 73.782048 
L 553.977903 74.522148 
L 554.566744 74.167335 
L 554.861164 73.603553 
L 555.450004 73.777694 
L 556.333265 73.337987 
L 556.627685 72.67625 
L 556.922106 73.749396 
L 557.216526 72.88522 
L 557.805367 72.850391 
L 558.099787 74.082441 
L 558.394207 74.687582 
L 558.688627 74.402426 
L 558.983048 74.321886 
L 559.277468 73.725452 
L 559.571888 72.869982 
L 559.866308 72.815563 
L 560.455149 72.088523 
L 561.043989 73.340164 
L 561.33841 75.543052 
L 561.63283 75.950107 
L 561.92725 75.991466 
L 562.22167 75.910925 
L 562.516091 75.379794 
L 562.810511 75.817324 
L 563.104931 75.852152 
L 563.693772 76.132955 
L 564.282612 75.882627 
L 564.577033 74.879138 
L 565.165873 74.672345 
L 565.460293 74.502557 
L 565.754714 73.742866 
L 566.049134 73.366285 
L 566.932395 67.264809 
L 567.226815 66.202547 
L 567.521235 65.849911 
L 568.110076 66.085001 
L 568.404496 66.439814 
L 568.698916 67.08196 
L 569.876597 68.135515 
L 570.171018 67.619622 
L 572.8208 134.772867 
L 574.587321 182.052235 
L 574.587321 182.052235 
" clip-path="url(#p207717bd36)" style="fill: none; stroke: #f78166; stroke-width: 2.5; stroke-linecap: square"/>
   </g>
   <g id="patch_3">
    <path d="M 43.15875 307.037812 
L 43.15875 29.837812 
" style="fill: none; stroke: #8b949e; stroke-width: 0.8; stroke-linejoin: miter; stroke-linecap: square"/>
   </g>
   <g id="patch_4">
    <path d="M 43.15875 307.037812 
L 601.15875 307.037812 
" style="fill: none; stroke: #8b949e; stroke-width: 0.8; stroke-linejoin: miter; stroke-linecap: square"/>
   </g>
   <g id="text_19">
    <!-- Soak Test: 30-Minute Latency Stability -->
    <g style="fill: #c9d1d9" transform="translate(170.000625 17.837812) scale(0.14 -0.14)">
     <defs>
      <path id="DejaVuSans-Bold-53" d="M 3834 4519 
L 3834 3531 
Q 3450 3703 3084 3790 
Q 2719 3878 2394 3878 
Q 1963 3878 1756 3759 
Q 1550 3641 1550 3391 
Q 1550 3203 1689 3098 
Q 1828 2994 2194 2919 
L 2706 2816 
Q 3484 2659 3812 2340 
Q 4141 2022 4141 1434 
Q 4141 663 3683 286 
Q 3225 -91 2284 -91 
Q 1841 -91 1394 -6 
Q 947 78 500 244 
L 500 1259 
Q 947 1022 1364 901 
Q 1781 781 2169 781 
Q 2563 781 2772 912 
Q 2981 1044 2981 1288 
Q 2981 1506 2839 1625 
Q 2697 1744 2272 1838 
L 1806 1941 
Q 1106 2091 782 2419 
Q 459 2747 459 3303 
Q 459 4000 909 4375 
Q 1359 4750 2203 4750 
Q 2588 4750 2994 4692 
Q 3400 4634 3834 4519 
z
" transform="scale(0.015625)"/>
      <path id="DejaVuSans-Bold-6f" d="M 2203 2784 
Q 1831 2784 1636 2517 
Q 1441 2250 1441 1747 
Q 1441 1244 1636 976 
Q 1831 709 2203 709 
Q 2569 709 2762 976 
Q 2956 1244 2956 1747 
Q 2956 2250 2762 2517 
Q 2569 2784 2203 2784 
z
M 2203 3584 
Q 3106 3584 3614 3096 
Q 4122 2609 4122 1747 
Q 4122 884 3614 396 
Q 3106 -91 2203 -91 
Q 1297 -91 786 396 
Q 275 884 275 1747 
Q 275 2609 786 3096 
Q 1297 3584 2203 3584 
z
" transform="scale(0.015625)"/>
      <path id="DejaVuSans-Bold-61" d="M 2106 1575 
Q 1756 1575 1579 1456 
Q 1403 1338 1403 1106 
Q 1403 894 1545 773 
Q 1688 653 1941 653 
Q 2256 653 2472 879 
Q 2688 1106 2688 1447 
L 2688 1575 
L 2106 1575 
z
M 3816 1997 
L 3816 0 
L 2688 0 
L 2688 519 
Q 2463 200 2181 54 
Q 1900 -91 1497 -91 
Q 953 -91 614 226 
Q 275 544 275 1050 
Q 275 1666 698 1953 
Q 1122 2241 2028 2241 
L 2688 2241 
L 2688 2328 
Q 2688 2594 2478 2717 
Q 2269 2841 1825 2841 
Q 1466 2841 1156 2769 
Q 847 2697 581 2553 
L 581 3406 
Q 941 3494 1303 3539 
Q 1666 3584 2028 3584 
Q 2975 3584 3395 3211 
Q 3816 2838 3816 1997 
z
" transform="scale(0.015625)"/>
      <path id="DejaVuSans-Bold-6b" d="M 538 4863 
L 1656 4863 
L 1656 2216 
L 2944 3500 
L 4244 3500 
L 2534 1894 
L 4378 0 
L 3022 0 
L 1656 1459 
L 1656 0 
L 538 0 
L 538 4863 
z
" transform="scale(0.015625)"/>
      <path id="DejaVuSans-Bold-20" transform="scale(0.015625)"/>
      <path id="DejaVuSans-Bold-54" d="M 31 4666 
L 4331 4666 
L 4331 3756 
L 2784 3756 
L 2784 0 
L 1581 0 
L 1581 3756 
L 31 3756 
L 31 4666 
z
" transform="scale(0.015625)"/>
      <path id="DejaVuSans-Bold-65" d="M 4031 1759 
L 4031 1441 
L 1416 1441 
Q 1456 1047 1700 850 
Q 1944 653 2381 653 
Q 2734 653 3104 758 
Q 3475 863 3866 1075 
L 3866 213 
Q 3469 63 3072 -14 
Q 2675 -91 2278 -91 
Q 1328 -91 801 392 
Q 275 875 275 1747 
Q 275 2603 792 3093 
Q 1309 3584 2216 3584 
Q 3041 3584 3536 3087 
Q 4031 2591 4031 1759 
z
M 2881 2131 
Q 2881 2450 2695 2645 
Q 2509 2841 2209 2841 
Q 1884 2841 1681 2658 
Q 1478 2475 1428 2131 
L 2881 2131 
z
" transform="scale(0.015625)"/>
      <path id="DejaVuSans-Bold-73" d="M 3272 3391 
L 3272 2541 
Q 2913 2691 2578 2766 
Q 2244 2841 1947 2841 
Q 1628 2841 1473 2761 
Q 1319 2681 1319 2516 
Q 1319 2381 1436 2309 
Q 1553 2238 1856 2203 
L 2053 2175 
Q 2913 2066 3209 1816 
Q 3506 1566 3506 1031 
Q 3506 472 3093 190 
Q 2681 -91 1863 -91 
Q 1516 -91 1145 -36 
Q 775 19 384 128 
L 384 978 
Q 719 816 1070 734 
Q 1422 653 1784 653 
Q 2113 653 2278 743 
Q 2444 834 2444 1013 
Q 2444 1163 2330 1236 
Q 2216 1309 1875 1350 
L 1678 1375 
Q 931 1469 631 1722 
Q 331 1975 331 2491 
Q 331 3047 712 3315 
Q 1094 3584 1881 3584 
Q 2191 3584 2531 3537 
Q 2872 3491 3272 3391 
z
" transform="scale(0.015625)"/>
      <path id="DejaVuSans-Bold-74" d="M 1759 4494 
L 1759 3500 
L 2913 3500 
L 2913 2700 
L 1759 2700 
L 1759 1216 
Q 1759 972 1856 886 
Q 1953 800 2241 800 
L 2816 800 
L 2816 0 
L 1856 0 
Q 1194 0 917 276 
Q 641 553 641 1216 
L 641 2700 
L 84 2700 
L 84 3500 
L 641 3500 
L 641 4494 
L 1759 4494 
z
" transform="scale(0.015625)"/>
      <path id="DejaVuSans-Bold-3a" d="M 716 3500 
L 1844 3500 
L 1844 2291 
L 716 2291 
L 716 3500 
z
M 716 1209 
L 1844 1209 
L 1844 0 
L 716 0 
L 716 1209 
z
" transform="scale(0.015625)"/>
      <path id="DejaVuSans-Bold-33" d="M 2981 2516 
Q 3453 2394 3698 2092 
Q 3944 1791 3944 1325 
Q 3944 631 3412 270 
Q 2881 -91 1863 -91 
Q 1503 -91 1142 -33 
Q 781 25 428 141 
L 428 1069 
Q 766 900 1098 814 
Q 1431 728 1753 728 
Q 2231 728 2486 893 
Q 2741 1059 2741 1369 
Q 2741 1688 2480 1852 
Q 2219 2016 1709 2016 
L 1228 2016 
L 1228 2791 
L 1734 2791 
Q 2188 2791 2409 2933 
Q 2631 3075 2631 3366 
Q 2631 3634 2415 3781 
Q 2200 3928 1806 3928 
Q 1516 3928 1219 3862 
Q 922 3797 628 3669 
L 628 4550 
Q 984 4650 1334 4700 
Q 1684 4750 2022 4750 
Q 2931 4750 3382 4451 
Q 3834 4153 3834 3553 
Q 3834 3144 3618 2883 
Q 3403 2622 2981 2516 
z
" transform="scale(0.015625)"/>
      <path id="DejaVuSans-Bold-30" d="M 2944 2338 
Q 2944 3213 2780 3570 
Q 2616 3928 2228 3928 
Q 1841 3928 1675 3570 
Q 1509 3213 1509 2338 
Q 1509 1453 1675 1090 
Q 1841 728 2228 728 
Q 2613 728 2778 1090 
Q 2944 1453 2944 2338 
z
M 4147 2328 
Q 4147 1169 3647 539 
Q 3147 -91 2228 -91 
Q 1306 -91 806 539 
Q 306 1169 306 2328 
Q 306 3491 806 4120 
Q 1306 4750 2228 4750 
Q 3147 4750 3647 4120 
Q 4147 3491 4147 2328 
z
" transform="scale(0.015625)"/>
      <path id="DejaVuSans-Bold-2d" d="M 347 2297 
L 2309 2297 
L 2309 1388 
L 347 1388 
L 347 2297 
z
" transform="scale(0.015625)"/>
      <path id="DejaVuSans-Bold-4d" d="M 588 4666 
L 2119 4666 
L 3181 2169 
L 4250 4666 
L 5778 4666 
L 5778 0 
L 4641 0 
L 4641 3413 
L 3566 897 
L 2803 897 
L 1728 3413 
L 1728 0 
L 588 0 
L 588 4666 
z
" transform="scale(0.015625)"/>
      <path id="DejaVuSans-Bold-69" d="M 538 3500 
L 1656 3500 
L 1656 0 
L 538 0 
L 538 3500 
z
M 538 4863 
L 1656 4863 
L 1656 3950 
L 538 3950 
L 538 4863 
z
" transform="scale(0.015625)"/>
      <path id="DejaVuSans-Bold-6e" d="M 4056 2131 
L 4056 0 
L 2931 0 
L 2931 347 
L 2931 1631 
Q 2931 2084 2911 2256 
Q 2891 2428 2841 2509 
Q 2775 2619 2662 2680 
Q 2550 2741 2406 2741 
Q 2056 2741 1856 2470 
Q 1656 2200 1656 1722 
L 1656 0 
L 538 0 
L 538 3500 
L 1656 3500 
L 1656 2988 
Q 1909 3294 2193 3439 
Q 2478 3584 2822 3584 
Q 3428 3584 3742 3212 
Q 4056 2841 4056 2131 
z
" transform="scale(0.015625)"/>
      <path id="DejaVuSans-Bold-75" d="M 500 1363 
L 500 3500 
L 1625 3500 
L 1625 3150 
Q 1625 2866 1622 2436 
Q 1619 2006 1619 1863 
Q 1619 1441 1641 1255 
Q 1663 1069 1716 984 
Q 1784 875 1895 815 
Q 2006 756 2150 756 
Q 2500 756 2700 1025 
Q 2900 1294 2900 1772 
L 2900 3500 
L 4019 3500 
L 4019 0 
L 2900 0 
L 2900 506 
Q 2647 200 2364 54 
Q 2081 -91 1741 -91 
Q 1134 -91 817 281 
Q 500 653 500 1363 
z
" transform="scale(0.015625)"/>
      <path id="DejaVuSans-Bold-4c" d="M 588 4666 
L 1791 4666 
L 1791 909 
L 3903 909 
L 3903 0 
L 588 0 
L 588 4666 
z
" transform="scale(0.015625)"/>
      <path id="DejaVuSans-Bold-63" d="M 3366 3391 
L 3366 2478 
Q 3138 2634 2908 2709 
Q 2678 2784 2431 2784 
Q 1963 2784 1702 2511 
Q 1441 2238 1441 1747 
Q 1441 1256 1702 982 
Q 1963 709 2431 709 
Q 2694 709 2930 787 
Q 3166 866 3366 1019 
L 3366 103 
Q 3103 6 2833 -42 
Q 2563 -91 2291 -91 
Q 1344 -91 809 395 
Q 275 881 275 1747 
Q 275 2613 809 3098 
Q 1344 3584 2291 3584 
Q 2566 3584 2833 3536 
Q 3100 3488 3366 3391 
z
" transform="scale(0.015625)"/>
      <path id="DejaVuSans-Bold-79" d="M 78 3500 
L 1197 3500 
L 2138 1125 
L 2938 3500 
L 4056 3500 
L 2584 -331 
Q 2363 -916 2067 -1148 
Q 1772 -1381 1288 -1381 
L 641 -1381 
L 641 -647 
L 991 -647 
Q 1275 -647 1404 -556 
Q 1534 -466 1606 -231 
L 1638 -134 
L 78 3500 
z
" transform="scale(0.015625)"/>
      <path id="DejaVuSans-Bold-62" d="M 2400 722 
Q 2759 722 2948 984 
Q 3138 1247 3138 1747 
Q 3138 2247 2948 2509 
Q 2759 2772 2400 2772 
Q 2041 2772 1848 2508 
Q 1656 2244 1656 1747 
Q 1656 1250 1848 986 
Q 2041 722 2400 722 
z
M 1656 2988 
Q 1888 3294 2169 3439 
Q 2450 3584 2816 3584 
Q 3463 3584 3878 3070 
Q 4294 2556 4294 1747 
Q 4294 938 3878 423 
Q 3463 -91 2816 -91 
Q 2450 -91 2169 54 
Q 1888 200 1656 506 
L 1656 0 
L 538 0 
L 538 4863 
L 1656 4863 
L 1656 2988 
z
" transform="scale(0.015625)"/>
      <path id="DejaVuSans-Bold-6c" d="M 538 4863 
L 1656 4863 
L 1656 0 
L 538 0 
L 538 4863 
z
" transform="scale(0.015625)"/>
     </defs>
     <use xlink:href="#DejaVuSans-Bold-53"/>
     <use xlink:href="#DejaVuSans-Bold-6f" transform="translate(72.021484 0)"/>
     <use xlink:href="#DejaVuSans-Bold-61" transform="translate(140.722656 0)"/>
     <use xlink:href="#DejaVuSans-Bold-6b" transform="translate(208.203125 0)"/>
     <use xlink:href="#DejaVuSans-Bold-20" transform="translate(274.707031 0)"/>
     <use xlink:href="#DejaVuSans-Bold-54" transform="translate(309.521484 0)"/>
     <use xlink:href="#DejaVuSans-Bold-65" transform="translate(364.484375 0)"/>
     <use xlink:href="#DejaVuSans-Bold-73" transform="translate(432.306641 0)"/>
     <use xlink:href="#DejaVuSans-Bold-74" transform="translate(491.828125 0)"/>
     <use xlink:href="#DejaVuSans-Bold-3a" transform="translate(539.630859 0)"/>
     <use xlink:href="#DejaVuSans-Bold-20" transform="translate(579.621094 0)"/>
     <use xlink:href="#DejaVuSans-Bold-33" transform="translate(614.435547 0)"/>
     <use xlink:href="#DejaVuSans-Bold-30" transform="translate(684.015625 0)"/>
     <use xlink:href="#DejaVuSans-Bold-2d" transform="translate(753.595703 0)"/>
     <use xlink:href="#DejaVuSans-Bold-4d" transform="translate(795.099609 0)"/>
     <use xlink:href="#DejaVuSans-Bold-69" transform="translate(894.611328 0)"/>
     <use xlink:href="#DejaVuSans-Bold-6e" transform="translate(928.888672 0)"/>
     <use xlink:href="#DejaVuSans-Bold-75" transform="translate(1000.080078 0)"/>
     <use xlink:href="#DejaVuSans-Bold-74" transform="translate(1071.271484 0)"/>
     <use xlink:href="#DejaVuSans-Bold-65" transform="translate(1119.074219 0)"/>
     <use xlink:href="#DejaVuSans-Bold-20" transform="translate(1186.896484 0)"/>
     <use xlink:href="#DejaVuSans-Bold-4c" transform="translate(1221.710938 0)"/>
     <use xlink:href="#DejaVuSans-Bold-61" transform="translate(1285.431641 0)"/>
     <use xlink:href="#DejaVuSans-Bold-74" transform="translate(1352.912109 0)"/>
     <use xlink:href="#DejaVuSans-Bold-65" transform="translate(1400.714844 0)"/>
     <use xlink:href="#DejaVuSans-Bold-6e" transform="translate(1468.537109 0)"/>
     <use xlink:href="#DejaVuSans-Bold-63" transform="translate(1539.728516 0)"/>
     <use xlink:href="#DejaVuSans-Bold-79" transform="translate(1599.005859 0)"/>
     <use xlink:href="#DejaVuSans-Bold-20" transform="translate(1664.191406 0)"/>
     <use xlink:href="#DejaVuSans-Bold-53" transform="translate(1699.005859 0)"/>
     <use xlink:href="#DejaVuSans-Bold-74" transform="translate(1771.027344 0)"/>
     <use xlink:href="#DejaVuSans-Bold-61" transform="translate(1818.830078 0)"/>
     <use xlink:href="#DejaVuSans-Bold-62" transform="translate(1886.310547 0)"/>
     <use xlink:href="#DejaVuSans-Bold-69" transform="translate(1957.892578 0)"/>
     <use xlink:href="#DejaVuSans-Bold-6c" transform="translate(1992.169922 0)"/>
     <use xlink:href="#DejaVuSans-Bold-69" transform="translate(2026.447266 0)"/>
     <use xlink:href="#DejaVuSans-Bold-74" transform="translate(2060.724609 0)"/>
     <use xlink:href="#DejaVuSans-Bold-79" transform="translate(2108.527344 0)"/>
    </g>
   </g>
   <g id="legend_1">
    <g id="patch_5">
     <path d="M 50.15875 184.615937 
L 141.144688 184.615937 
Q 143.144688 184.615937 143.144688 182.615937 
L 143.144688 154.259687 
Q 143.144688 152.259687 141.144688 152.259687 
L 50.15875 152.259687 
Q 48.15875 152.259687 48.15875 154.259687 
L 48.15875 182.615937 
Q 48.15875 184.615937 50.15875 184.615937 
L 50.15875 184.615937 
z
" style="fill: none; opacity: 0.8; stroke: #8b949e; stroke-linejoin: miter"/>
    </g>
    <g id="line2d_35">
     <path d="M 52.15875 160.358125 
L 62.15875 160.358125 
L 72.15875 160.358125 
" style="fill: none; stroke: #58a6ff; stroke-width: 2.5; stroke-linecap: square"/>
    </g>
    <g id="text_20">
     <!-- p50 latency -->
     <g style="fill: #c9d1d9" transform="translate(80.15875 163.858125) scale(0.1 -0.1)">
      <defs>
       <path id="DejaVuSans-70" d="M 1159 525 
L 1159 -1331 
L 581 -1331 
L 581 3500 
L 1159 3500 
L 1159 2969 
Q 1341 3281 1617 3432 
Q 1894 3584 2278 3584 
Q 2916 3584 3314 3078 
Q 3713 2572 3713 1747 
Q 3713 922 3314 415 
Q 2916 -91 2278 -91 
Q 1894 -91 1617 61 
Q 1341 213 1159 525 
z
M 3116 1747 
Q 3116 2381 2855 2742 
Q 2594 3103 2138 3103 
Q 1681 3103 1420 2742 
Q 1159 2381 1159 1747 
Q 1159 1113 1420 752 
Q 1681 391 2138 391 
Q 2594 391 2855 752 
Q 3116 1113 3116 1747 
z
" transform="scale(0.015625)"/>
       <path id="DejaVuSans-6c" d="M 603 4863 
L 1178 4863 
L 1178 0 
L 603 0 
L 603 4863 
z
" transform="scale(0.015625)"/>
      </defs>
      <use xlink:href="#DejaVuSans-70"/>
      <use xlink:href="#DejaVuSans-35" transform="translate(63.476562 0)"/>
      <use xlink:href="#DejaVuSans-30" transform="translate(127.099609 0)"/>
      <use xlink:href="#DejaVuSans-20" transform="translate(190.722656 0)"/>
      <use xlink:href="#DejaVuSans-6c" transform="translate(222.509766 0)"/>
      <use xlink:href="#DejaVuSans-61" transform="translate(250.292969 0)"/>
      <use xlink:href="#DejaVuSans-74" transform="translate(311.572266 0)"/>
      <use xlink:href="#DejaVuSans-65" transform="translate(350.78125 0)"/>
      <use xlink:href="#DejaVuSans-6e" transform="translate(412.304688 0)"/>
      <use xlink:href="#DejaVuSans-63" transform="translate(475.683594 0)"/>
      <use xlink:href="#DejaVuSans-79" transform="translate(530.664062 0)"/>
     </g>
    </g>
    <g id="line2d_36">
     <path d="M 52.15875 175.03625 
L 62.15875 175.03625 
L 72.15875 175.03625 
" style="fill: none; stroke: #f78166; stroke-width: 2.5; stroke-linecap: square"/>
    </g>
    <g id="text_21">
     <!-- p99 latency -->
     <g style="fill: #c9d1d9" transform="translate(80.15875 178.53625) scale(0.1 -0.1)">
      <defs>
       <path id="DejaVuSans-39" d="M 703 97 
L 703 672 
Q 941 559 1184 500 
Q 1428 441 1663 441 
Q 2288 441 2617 861 
Q 2947 1281 2994 2138 
Q 2813 1869 2534 1725 
Q 2256 1581 1919 1581 
Q 1219 1581 811 2004 
Q 403 2428 403 3163 
Q 403 3881 828 4315 
Q 1253 4750 1959 4750 
Q 2769 4750 3195 4129 
Q 3622 3509 3622 2328 
Q 3622 1225 3098 567 
Q 2575 -91 1691 -91 
Q 1453 -91 1209 -44 
Q 966 3 703 97 
z
M 1959 2075 
Q 2384 2075 2632 2365 
Q 2881 2656 2881 3163 
Q 2881 3666 2632 3958 
Q 2384 4250 1959 4250 
Q 1534 4250 1286 3958 
Q 1038 3666 1038 3163 
Q 1038 2656 1286 2365 
Q 1534 2075 1959 2075 
z
" transform="scale(0.015625)"/>
      </defs>
      <use xlink:href="#DejaVuSans-70"/>
      <use xlink:href="#DejaVuSans-39" transform="translate(63.476562 0)"/>
      <use xlink:href="#DejaVuSans-39" transform="translate(127.099609 0)"/>
      <use xlink:href="#DejaVuSans-20" transform="translate(190.722656 0)"/>
      <use xlink:href="#DejaVuSans-6c" transform="translate(222.509766 0)"/>
      <use xlink:href="#DejaVuSans-61" transform="translate(250.292969 0)"/>
      <use xlink:href="#DejaVuSans-74" transform="translate(311.572266 0)"/>
      <use xlink:href="#DejaVuSans-65" transform="translate(350.78125 0)"/>
      <use xlink:href="#DejaVuSans-6e" transform="translate(412.304688 0)"/>
      <use xlink:href="#DejaVuSans-63" transform="translate(475.683594 0)"/>
      <use xlink:href="#DejaVuSans-79" transform="translate(530.664062 0)"/>
     </g>
    </g>
   </g>
  </g>
 </g>
 <defs>
  <clipPath id="p207717bd36">
   <rect x="43.15875" y="29.837812" width="558" height="277.2"/>
  </clipPath>
 </defs>
</svg>
