<?xml version="1.0" encoding="utf-8" standalone="no"?>
<!DOCTYPE svg PUBLIC "-//W3C//DTD SVG 1.1//EN"
  "http://www.w3.org/Graphics/SVG/1.1/DTD/svg11.dtd">
<svg xmlns:xlink="http://www.w3.org/1999/xlink" width="644.323125pt" height="344.594063pt" viewBox="0 0 644.323125 344.594063" xmlns="http://www.w3.org/2000/svg" version="1.1">
 <metadata>
  <rdf:RDF xmlns:dc="http://purl.org/dc/elements/1.1/" xmlns:cc="http://creativecommons.org/ns#" xmlns:rdf="http://www.w3.org/1999/02/22-rdf-syntax-ns#">
   <cc:Work>
    <dc:type rdf:resource="http://purl.org/dc/dcmitype/StillImage"/>
    <dc:date>2026-02-16T11:19:27.937366</dc:date>
    <dc:format>image/svg+xml</dc:format>
    <dc:creator>
     <cc:Agent>
      <dc:title>Matplotlib v3.10.8, https://matplotlib.org/</dc:title>
     </cc:Agent>
    </dc:creator>
   </cc:Work>
  </rdf:RDF>
 </metadata>
 <defs>
  <style type="text/css">*{stroke-linejoin: round; stroke-linecap: butt}</style>
 </defs>
 <g id="figure_1">
  <g id="patch_1">
   <path d="M 0 344.594063 
L 644.323125 344.594063 
L 644.323125 0 
L 0 0 
L 0 344.594063 
z
" style="fill: none"/>
  </g>
  <g id="axes_1">
   <g id="patch_2">
    <path d="M 51.750938 307.037812 
L 609.750937 307.037812 
L 609.750937 29.837812 
L 51.750938 29.837812 
L 51.750938 307.037812 
z
" style="fill: none"/>
   </g>
   <g id="matplotlib.axis_1">
    <g id="xtick_1">
     <g id="line2d_1">
      <path d="M 77.114574 307.037812 
L 77.114574 29.837812 
" clip-path="url(#p4597a1ad30)" style="fill: none; stroke: #30363d; stroke-opacity: 0.3; stroke-width: 0.5; stroke-linecap: square"/>
     </g>
     <g id="line2d_2">
      <defs>
       <path id="mc1fae9dba0" d="M 0 0 
L 0 3.5 
" style="stroke: #8b949e; stroke-width: 0.8"/>
      </defs>
      <g>
       <use xlink:href="#mc1fae9dba0" x="77.114574" y="307.037812" style="fill: #8b949e; stroke: #8b949e; stroke-width: 0.8"/>
      </g>
     </g>
     <g id="text_1">
      <!-- 0 -->
      <g style="fill: #8b949e" transform="translate(74.251449 320.876406) scale(0.09 -0.09)">
       <defs>
        <path id="DejaVuSans-30" d="M 2034 4250 
Q 1547 4250 1301 3770 
Q 1056 3291 1056 2328 
Q 1056 1369 1301 889 
Q 1547 409 2034 409 
Q 2525 409 2770 889 
Q 3016 1369 3016 2328 
Q 3016 3291 2770 3770 
Q 2525 4250 2034 4250 
z
M 2034 4750 
Q 2819 4750 3233 4129 
Q 3647 3509 3647 2328 
Q 3647 1150 3233 529 
Q 2819 -91 2034 -91 
Q 1250 -91 836 529 
Q 422 1150 422 2328 
Q 422 3509 836 4129 
Q 1250 4750 2034 4750 
z
" transform="scale(0.015625)"/>
       </defs>
       <use xlink:href="#DejaVuSans-30"/>
      </g>
     </g>
    </g>
    <g id="xtick_2">
     <g id="line2d_3">
      <path d="M 177.234191 307.037812 
L 177.234191 29.837812 
" clip-path="url(#p4597a1ad30)" style="fill: none; stroke: #30363d; stroke-opacity: 0.3; stroke-width: 0.5; stroke-linecap: square"/>
     </g>
     <g id="line2d_4">
      <g>
       <use xlink:href="#mc1fae9dba0" x="177.234191" y="307.037812" style="fill: #8b949e; stroke: #8b949e; stroke-width: 0.8"/>
      </g>
     </g>
     <g id="text_2">
      <!-- 1 -->
      <g style="fill: #8b949e" transform="translate(174.371066 320.876406) scale(0.09 -0.09)">
       <defs>
        <path id="DejaVuSans-31" d="M 794 531 
L 1825 531 
L 1825 4091 
L 703 3866 
L 703 4441 
L 1819 4666 
L 2450 4666 
L 2450 531 
L 3481 531 
L 3481 0 
L 794 0 
L 794 531 
z
" transform="scale(0.015625)"/>
       </defs>
       <use xlink:href="#DejaVuSans-31"/>
      </g>
     </g>
    </g>
    <g id="xtick_3">
     <g id="line2d_5">
      <path d="M 277.353808 307.037812 
L 277.353808 29.837812 
" clip-path="url(#p4597a1ad30)" style="fill: none; stroke: #30363d; stroke-opacity: 0.3; stroke-width: 0.5; stroke-linecap: square"/>
     </g>
     <g id="line2d_6">
      <g>
       <use xlink:href="#mc1fae9dba0" x="277.353808" y="307.037812" style="fill: #8b949e; stroke: #8b949e; stroke-width: 0.8"/>
      </g>
     </g>
     <g id="text_3">
      <!-- 2 -->
      <g style="fill: #8b949e" transform="translate(274.490683 320.876406) scale(0.09 -0.09)">
       <defs>
        <path id="DejaVuSans-32" d="M 1228 531 
L 3431 531 
L 3431 0 
L 469 0 
L 469 531 
Q 828 903 1448 1529 
Q 2069 2156 2228 2338 
Q 2531 2678 2651 2914 
Q 2772 3150 2772 3378 
Q 2772 3750 2511 3984 
Q 2250 4219 1831 4219 
Q 1534 4219 1204 4116 
Q 875 4013 500 3803 
L 500 4441 
Q 881 4594 1212 4672 
Q 1544 4750 1819 4750 
Q 2544 4750 2975 4387 
Q 3406 4025 3406 3419 
Q 3406 3131 3298 2873 
Q 3191 2616 2906 2266 
Q 2828 2175 2409 1742 
Q 1991 1309 1228 531 
z
" transform="scale(0.015625)"/>
       </defs>
       <use xlink:href="#DejaVuSans-32"/>
      </g>
     </g>
    </g>
    <g id="xtick_4">
     <g id="line2d_7">
      <path d="M 377.473426 307.037812 
L 377.473426 29.837812 
" clip-path="url(#p4597a1ad30)" style="fill: none; stroke: #30363d; stroke-opacity: 0.3; stroke-width: 0.5; stroke-linecap: square"/>
     </g>
     <g id="line2d_8">
      <g>
       <use xlink:href="#mc1fae9dba0" x="377.473426" y="307.037812" style="fill: #8b949e; stroke: #8b949e; stroke-width: 0.8"/>
      </g>
     </g>
     <g id="text_4">
      <!-- 3 -->
      <g style="fill: #8b949e" transform="translate(374.610301 320.876406) scale(0.09 -0.09)">
       <defs>
        <path id="DejaVuSans-33" d="M 2597 2516 
Q 3050 2419 3304 2112 
Q 3559 1806 3559 1356 
Q 3559 666 3084 287 
Q 2609 -91 1734 -91 
Q 1441 -91 1130 -33 
Q 819 25 488 141 
L 488 750 
Q 750 597 1062 519 
Q 1375 441 1716 441 
Q 2309 441 2620 675 
Q 2931 909 2931 1356 
Q 2931 1769 2642 2001 
Q 2353 2234 1838 2234 
L 1294 2234 
L 1294 2753 
L 1863 2753 
Q 2328 2753 2575 2939 
Q 2822 3125 2822 3475 
Q 2822 3834 2567 4026 
Q 2313 4219 1838 4219 
Q 1578 4219 1281 4162 
Q 984 4106 628 3988 
L 628 4550 
Q 988 4650 1302 4700 
Q 1616 4750 1894 4750 
Q 2613 4750 3031 4423 
Q 3450 4097 3450 3541 
Q 3450 3153 3228 2886 
Q 3006 2619 2597 2516 
z
" transform="scale(0.015625)"/>
       </defs>
       <use xlink:href="#DejaVuSans-33"/>
      </g>
     </g>
    </g>
    <g id="xtick_5">
     <g id="line2d_9">
      <path d="M 477.593043 307.037812 
L 477.593043 29.837812 
" clip-path="url(#p4597a1ad30)" style="fill: none; stroke: #30363d; stroke-opacity: 0.3; stroke-width: 0.5; stroke-linecap: square"/>
     </g>
     <g id="line2d_10">
      <g>
       <use xlink:href="#mc1fae9dba0" x="477.593043" y="307.037812" style="fill: #8b949e; stroke: #8b949e; stroke-width: 0.8"/>
      </g>
     </g>
     <g id="text_5">
      <!-- 4 -->
      <g style="fill: #8b949e" transform="translate(474.729918 320.876406) scale(0.09 -0.09)">
       <defs>
        <path id="DejaVuSans-34" d="M 2419 4116 
L 825 1625 
L 2419 1625 
L 2419 4116 
z
M 2253 4666 
L 3047 4666 
L 3047 1625 
L 3713 1625 
L 3713 1100 
L 3047 1100 
L 3047 0 
L 2419 0 
L 2419 1100 
L 313 1100 
L 313 1709 
L 2253 4666 
z
" transform="scale(0.015625)"/>
       </defs>
       <use xlink:href="#DejaVuSans-34"/>
      </g>
     </g>
    </g>
    <g id="xtick_6">
     <g id="line2d_11">
      <path d="M 577.71266 307.037812 
L 577.71266 29.837812 
" clip-path="url(#p4597a1ad30)" style="fill: none; stroke: #30363d; stroke-opacity: 0.3; stroke-width: 0.5; stroke-linecap: square"/>
     </g>
     <g id="line2d_12">
      <g>
       <use xlink:href="#mc1fae9dba0" x="577.71266" y="307.037812" style="fill: #8b949e; stroke: #8b949e; stroke-width: 0.8"/>
      </g>
     </g>
     <g id="text_6">
      <!-- 5 -->
      <g style="fill: #8b949e" transform="translate(574.849535 320.876406) scale(0.09 -0.09)">
       <defs>
        <path id="DejaVuSans-35" d="M 691 4666 
L 3169 4666 
L 3169 4134 
L 1269 4134 
L 1269 2991 
Q 1406 3038 1543 3061 
Q 1681 3084 1819 3084 
Q 2600 3084 3056 2656 
Q 3513 2228 3513 1497 
Q 3513 744 3044 326 
Q 2575 -91 1722 -91 
Q 1428 -91 1123 -41 
Q 819 9 494 109 
L 494 744 
Q 775 591 1075 516 
Q 1375 441 1709 441 
Q 2250 441 2565 725 
Q 2881 1009 2881 1497 
Q 2881 1984 2565 2268 
Q 2250 2553 1709 2553 
Q 1456 2553 1204 2497 
Q 953 2441 691 2322 
L 691 4666 
z
" transform="scale(0.015625)"/>
       </defs>
       <use xlink:href="#DejaVuSans-35"/>
      </g>
     </g>
    </g>
    <g id="text_7">
     <!-- Time (minutes) -->
     <g style="fill: #c9d1d9" transform="translate(288.992188 335.106406) scale(0.11 -0.11)">
      <defs>
       <path id="DejaVuSans-54" d="M -19 4666 
L 3928 4666 
L 3928 4134 
L 2272 4134 
L 2272 0 
L 1638 0 
L 1638 4134 
L -19 4134 
L -19 4666 
z
" transform="scale(0.015625)"/>
       <path id="DejaVuSans-69" d="M 603 3500 
L 1178 3500 
L 1178 0 
L 603 0 
L 603 3500 
z
M 603 4863 
L 1178 4863 
L 1178 4134 
L 603 4134 
L 603 4863 
z
" transform="scale(0.015625)"/>
       <path id="DejaVuSans-6d" d="M 3328 2828 
Q 3544 3216 3844 3400 
Q 4144 3584 4550 3584 
Q 5097 3584 5394 3201 
Q 5691 2819 5691 2113 
L 5691 0 
L 5113 0 
L 5113 2094 
Q 5113 2597 4934 2840 
Q 4756 3084 4391 3084 
Q 3944 3084 3684 2787 
Q 3425 2491 3425 1978 
L 3425 0 
L 2847 0 
L 2847 2094 
Q 2847 2600 2669 2842 
Q 2491 3084 2119 3084 
Q 1678 3084 1418 2786 
Q 1159 2488 1159 1978 
L 1159 0 
L 581 0 
L 581 3500 
L 1159 3500 
L 1159 2956 
Q 1356 3278 1631 3431 
Q 1906 3584 2284 3584 
Q 2666 3584 2933 3390 
Q 3200 3197 3328 2828 
z
" transform="scale(0.015625)"/>
       <path id="DejaVuSans-65" d="M 3597 1894 
L 3597 1613 
L 953 1613 
Q 991 1019 1311 708 
Q 1631 397 2203 397 
Q 2534 397 2845 478 
Q 3156 559 3463 722 
L 3463 178 
Q 3153 47 2828 -22 
Q 2503 -91 2169 -91 
Q 1331 -91 842 396 
Q 353 884 353 1716 
Q 353 2575 817 3079 
Q 1281 3584 2069 3584 
Q 2775 3584 3186 3129 
Q 3597 2675 3597 1894 
z
M 3022 2063 
Q 3016 2534 2758 2815 
Q 2500 3097 2075 3097 
Q 1594 3097 1305 2825 
Q 1016 2553 972 2059 
L 3022 2063 
z
" transform="scale(0.015625)"/>
       <path id="DejaVuSans-20" transform="scale(0.015625)"/>
       <path id="DejaVuSans-28" d="M 1984 4856 
Q 1566 4138 1362 3434 
Q 1159 2731 1159 2009 
Q 1159 1288 1364 580 
Q 1569 -128 1984 -844 
L 1484 -844 
Q 1016 -109 783 600 
Q 550 1309 550 2009 
Q 550 2706 781 3412 
Q 1013 4119 1484 4856 
L 1984 4856 
z
" transform="scale(0.015625)"/>
       <path id="DejaVuSans-6e" d="M 3513 2113 
L 3513 0 
L 2938 0 
L 2938 2094 
Q 2938 2591 2744 2837 
Q 2550 3084 2163 3084 
Q 1697 3084 1428 2787 
Q 1159 2491 1159 1978 
L 1159 0 
L 581 0 
L 581 3500 
L 1159 3500 
L 1159 2956 
Q 1366 3272 1645 3428 
Q 1925 3584 2291 3584 
Q 2894 3584 3203 3211 
Q 3513 2838 3513 2113 
z
" transform="scale(0.015625)"/>
       <path id="DejaVuSans-75" d="M 544 1381 
L 544 3500 
L 1119 3500 
L 1119 1403 
Q 1119 906 1312 657 
Q 1506 409 1894 409 
Q 2359 409 2629 706 
Q 2900 1003 2900 1516 
L 2900 3500 
L 3475 3500 
L 3475 0 
L 2900 0 
L 2900 538 
Q 2691 219 2414 64 
Q 2138 -91 1772 -91 
Q 1169 -91 856 284 
Q 544 659 544 1381 
z
M 1991 3584 
L 1991 3584 
z
" transform="scale(0.015625)"/>
       <path id="DejaVuSans-74" d="M 1172 4494 
L 1172 3500 
L 2356 3500 
L 2356 3053 
L 1172 3053 
L 1172 1153 
Q 1172 725 1289 603 
Q 1406 481 1766 481 
L 2356 481 
L 2356 0 
L 1766 0 
Q 1100 0 847 248 
Q 594 497 594 1153 
L 594 3053 
L 172 3053 
L 172 3500 
L 594 3500 
L 594 4494 
L 1172 4494 
z
" transform="scale(0.015625)"/>
       <path id="DejaVuSans-73" d="M 2834 3397 
L 2834 2853 
Q 2591 2978 2328 3040 
Q 2066 3103 1784 3103 
Q 1356 3103 1142 2972 
Q 928 2841 928 2578 
Q 928 2378 1081 2264 
Q 1234 2150 1697 2047 
L 1894 2003 
Q 2506 1872 2764 1633 
Q 3022 1394 3022 966 
Q 3022 478 2636 193 
Q 2250 -91 1575 -91 
Q 1294 -91 989 -36 
Q 684 19 347 128 
L 347 722 
Q 666 556 975 473 
Q 1284 391 1588 391 
Q 1994 391 2212 530 
Q 2431 669 2431 922 
Q 2431 1156 2273 1281 
Q 2116 1406 1581 1522 
L 1381 1569 
Q 847 1681 609 1914 
Q 372 2147 372 2553 
Q 372 3047 722 3315 
Q 1072 3584 1716 3584 
Q 2034 3584 2315 3537 
Q 2597 3491 2834 3397 
z
" transform="scale(0.015625)"/>
       <path id="DejaVuSans-29" d="M 513 4856 
L 1013 4856 
Q 1481 4119 1714 3412 
Q 1947 2706 1947 2009 
Q 1947 1309 1714 600 
Q 1481 -109 1013 -844 
L 513 -844 
Q 928 -128 1133 580 
Q 1338 1288 1338 2009 
Q 1338 2731 1133 3434 
Q 928 4138 513 4856 
z
" transform="scale(0.015625)"/>
      </defs>
      <use xlink:href="#DejaVuSans-54"/>
      <use xlink:href="#DejaVuSans-69" transform="translate(57.958984 0)"/>
      <use xlink:href="#DejaVuSans-6d" transform="translate(85.742188 0)"/>
      <use xlink:href="#DejaVuSans-65" transform="translate(183.154297 0)"/>
      <use xlink:href="#DejaVuSans-20" transform="translate(244.677734 0)"/>
      <use xlink:href="#DejaVuSans-28" transform="translate(276.464844 0)"/>
      <use xlink:href="#DejaVuSans-6d" transform="translate(315.478516 0)"/>
      <use xlink:href="#DejaVuSans-69" transform="translate(412.890625 0)"/>
      <use xlink:href="#DejaVuSans-6e" transform="translate(440.673828 0)"/>
      <use xlink:href="#DejaVuSans-75" transform="translate(504.052734 0)"/>
      <use xlink:href="#DejaVuSans-74" transform="translate(567.431641 0)"/>
      <use xlink:href="#DejaVuSans-65" transform="translate(606.640625 0)"/>
      <use xlink:href="#DejaVuSans-73" transform="translate(668.164062 0)"/>
      <use xlink:href="#DejaVuSans-29" transform="translate(720.263672 0)"/>
     </g>
    </g>
   </g>
   <g id="matplotlib.axis_2">
    <g id="ytick_1">
     <g id="line2d_13">
      <path d="M 51.750938 307.037812 
L 609.750937 307.037812 
" clip-path="url(#p4597a1ad30)" style="fill: none; stroke: #30363d; stroke-opacity: 0.3; stroke-width: 0.5; stroke-linecap: square"/>
     </g>
     <g id="line2d_14">
      <defs>
       <path id="m2dbbd054e8" d="M 0 0 
L -3.5 0 
" style="stroke: #8b949e; stroke-width: 0.8"/>
      </defs>
      <g>
       <use xlink:href="#m2dbbd054e8" x="51.750938" y="307.037812" style="fill: #8b949e; stroke: #8b949e; stroke-width: 0.8"/>
      </g>
     </g>
     <g id="text_8">
      <!-- 0 -->
      <g style="fill: #8b949e" transform="translate(39.024688 310.457109) scale(0.09 -0.09)">
       <use xlink:href="#DejaVuSans-30"/>
      </g>
     </g>
    </g>
    <g id="ytick_2">
     <g id="line2d_15">
      <path d="M 51.750938 254.280019 
L 609.750937 254.280019 
" clip-path="url(#p4597a1ad30)" style="fill: none; stroke: #30363d; stroke-opacity: 0.3; stroke-width: 0.5; stroke-linecap: square"/>
     </g>
     <g id="line2d_16">
      <g>
       <use xlink:href="#m2dbbd054e8" x="51.750938" y="254.280019" style="fill: #8b949e; stroke: #8b949e; stroke-width: 0.8"/>
      </g>
     </g>
     <g id="text_9">
      <!-- 1000 -->
      <g style="fill: #8b949e" transform="translate(21.845938 257.699316) scale(0.09 -0.09)">
       <use xlink:href="#DejaVuSans-31"/>
       <use xlink:href="#DejaVuSans-30" transform="translate(63.623047 0)"/>
       <use xlink:href="#DejaVuSans-30" transform="translate(127.246094 0)"/>
       <use xlink:href="#DejaVuSans-30" transform="translate(190.869141 0)"/>
      </g>
     </g>
    </g>
    <g id="ytick_3">
     <g id="line2d_17">
      <path d="M 51.750938 201.522225 
L 609.750937 201.522225 
" clip-path="url(#p4597a1ad30)" style="fill: none; stroke: #30363d; stroke-opacity: 0.3; stroke-width: 0.5; stroke-linecap: square"/>
     </g>
     <g id="line2d_18">
      <g>
       <use xlink:href="#m2dbbd054e8" x="51.750938" y="201.522225" style="fill: #8b949e; stroke: #8b949e; stroke-width: 0.8"/>
      </g>
     </g>
     <g id="text_10">
      <!-- 2000 -->
      <g style="fill: #8b949e" transform="translate(21.845938 204.941522) scale(0.09 -0.09)">
       <use xlink:href="#DejaVuSans-32"/>
       <use xlink:href="#DejaVuSans-30" transform="translate(63.623047 0)"/>
       <use xlink:href="#DejaVuSans-30" transform="translate(127.246094 0)"/>
       <use xlink:href="#DejaVuSans-30" transform="translate(190.869141 0)"/>
      </g>
     </g>
    </g>
    <g id="ytick_4">
     <g id="line2d_19">
      <path d="M 51.750938 148.764431 
L 609.750937 148.764431 
" clip-path="url(#p4597a1ad30)" style="fill: none; stroke: #30363d; stroke-opacity: 0.3; stroke-width: 0.5; stroke-linecap: square"/>
     </g>
     <g id="line2d_20">
      <g>
       <use xlink:href="#m2dbbd054e8" x="51.750938" y="148.764431" style="fill: #8b949e; stroke: #8b949e; stroke-width: 0.8"/>
      </g>
     </g>
     <g id="text_11">
      <!-- 3000 -->
      <g style="fill: #8b949e" transform="translate(21.845938 152.183728) scale(0.09 -0.09)">
       <use xlink:href="#DejaVuSans-33"/>
       <use xlink:href="#DejaVuSans-30" transform="translate(63.623047 0)"/>
       <use xlink:href="#DejaVuSans-30" transform="translate(127.246094 0)"/>
       <use xlink:href="#DejaVuSans-30" transform="translate(190.869141 0)"/>
      </g>
     </g>
    </g>
    <g id="ytick_5">
     <g id="line2d_21">
      <path d="M 51.750938 96.006637 
L 609.750937 96.006637 
" clip-path="url(#p4597a1ad30)" style="fill: none; stroke: #30363d; stroke-opacity: 0.3; stroke-width: 0.5; stroke-linecap: square"/>
     </g>
     <g id="line2d_22">
      <g>
       <use xlink:href="#m2dbbd054e8" x="51.750938" y="96.006637" style="fill: #8b949e; stroke: #8b949e; stroke-width: 0.8"/>
      </g>
     </g>
     <g id="text_12">
      <!-- 4000 -->
      <g style="fill: #8b949e" transform="translate(21.845938 99.425934) scale(0.09 -0.09)">
       <use xlink:href="#DejaVuSans-34"/>
       <use xlink:href="#DejaVuSans-30" transform="translate(63.623047 0)"/>
       <use xlink:href="#DejaVuSans-30" transform="translate(127.246094 0)"/>
       <use xlink:href="#DejaVuSans-30" transform="translate(190.869141 0)"/>
      </g>
     </g>
    </g>
    <g id="ytick_6">
     <g id="line2d_23">
      <path d="M 51.750938 43.248844 
L 609.750937 43.248844 
" clip-path="url(#p4597a1ad30)" style="fill: none; stroke: #30363d; stroke-opacity: 0.3; stroke-width: 0.5; stroke-linecap: square"/>
     </g>
     <g id="line2d_24">
      <g>
       <use xlink:href="#m2dbbd054e8" x="51.750938" y="43.248844" style="fill: #8b949e; stroke: #8b949e; stroke-width: 0.8"/>
      </g>
     </g>
     <g id="text_13">
      <!-- 5000 -->
      <g style="fill: #8b949e" transform="translate(21.845938 46.668141) scale(0.09 -0.09)">
       <use xlink:href="#DejaVuSans-35"/>
       <use xlink:href="#DejaVuSans-30" transform="translate(63.623047 0)"/>
       <use xlink:href="#DejaVuSans-30" transform="translate(127.246094 0)"/>
       <use xlink:href="#DejaVuSans-30" transform="translate(190.869141 0)"/>
      </g>
     </g>
    </g>
    <g id="text_14">
     <!-- Requests per Second -->
     <g style="fill: #c9d1d9" transform="translate(15.558281 226.519531) rotate(-90) scale(0.11 -0.11)">
      <defs>
       <path id="DejaVuSans-52" d="M 2841 2188 
Q 3044 2119 3236 1894 
Q 3428 1669 3622 1275 
L 4263 0 
L 3584 0 
L 2988 1197 
Q 2756 1666 2539 1819 
Q 2322 1972 1947 1972 
L 1259 1972 
L 1259 0 
L 628 0 
L 628 4666 
L 2053 4666 
Q 2853 4666 3247 4331 
Q 3641 3997 3641 3322 
Q 3641 2881 3436 2590 
Q 3231 2300 2841 2188 
z
M 1259 4147 
L 1259 2491 
L 2053 2491 
Q 2509 2491 2742 2702 
Q 2975 2913 2975 3322 
Q 2975 3731 2742 3939 
Q 2509 4147 2053 4147 
L 1259 4147 
z
" transform="scale(0.015625)"/>
       <path id="DejaVuSans-71" d="M 947 1747 
Q 947 1113 1208 752 
Q 1469 391 1925 391 
Q 2381 391 2643 752 
Q 2906 1113 2906 1747 
Q 2906 2381 2643 2742 
Q 2381 3103 1925 3103 
Q 1469 3103 1208 2742 
Q 947 2381 947 1747 
z
M 2906 525 
Q 2725 213 2448 61 
Q 2172 -91 1784 -91 
Q 1150 -91 751 415 
Q 353 922 353 1747 
Q 353 2572 751 3078 
Q 1150 3584 1784 3584 
Q 2172 3584 2448 3432 
Q 2725 3281 2906 2969 
L 2906 3500 
L 3481 3500 
L 3481 -1331 
L 2906 -1331 
L 2906 525 
z
" transform="scale(0.015625)"/>
       <path id="DejaVuSans-70" d="M 1159 525 
L 1159 -1331 
L 581 -1331 
L 581 3500 
L 1159 3500 
L 1159 2969 
Q 1341 3281 1617 3432 
Q 1894 3584 2278 3584 
Q 2916 3584 3314 3078 
Q 3713 2572 3713 1747 
Q 3713 922 3314 415 
Q 2916 -91 2278 -91 
Q 1894 -91 1617 61 
Q 1341 213 1159 525 
z
M 3116 1747 
Q 3116 2381 2855 2742 
Q 2594 3103 2138 3103 
Q 1681 3103 1420 2742 
Q 1159 2381 1159 1747 
Q 1159 1113 1420 752 
Q 1681 391 2138 391 
Q 2594 391 2855 752 
Q 3116 1113 3116 1747 
z
" transform="scale(0.015625)"/>
       <path id="DejaVuSans-72" d="M 2631 2963 
Q 2534 3019 2420 3045 
Q 2306 3072 2169 3072 
Q 1681 3072 1420 2755 
Q 1159 2438 1159 1844 
L 1159 0 
L 581 0 
L 581 3500 
L 1159 3500 
L 1159 2956 
Q 1341 3275 1631 3429 
Q 1922 3584 2338 3584 
Q 2397 3584 2469 3576 
Q 2541 3569 2628 3553 
L 2631 2963 
z
" transform="scale(0.015625)"/>
       <path id="DejaVuSans-53" d="M 3425 4513 
L 3425 3897 
Q 3066 4069 2747 4153 
Q 2428 4238 2131 4238 
Q 1616 4238 1336 4038 
Q 1056 3838 1056 3469 
Q 1056 3159 1242 3001 
Q 1428 2844 1947 2747 
L 2328 2669 
Q 3034 2534 3370 2195 
Q 3706 1856 3706 1288 
Q 3706 609 3251 259 
Q 2797 -91 1919 -91 
Q 1588 -91 1214 -16 
Q 841 59 441 206 
L 441 856 
Q 825 641 1194 531 
Q 1563 422 1919 422 
Q 2459 422 2753 634 
Q 3047 847 3047 1241 
Q 3047 1584 2836 1778 
Q 2625 1972 2144 2069 
L 1759 2144 
Q 1053 2284 737 2584 
Q 422 2884 422 3419 
Q 422 4038 858 4394 
Q 1294 4750 2059 4750 
Q 2388 4750 2728 4690 
Q 3069 4631 3425 4513 
z
" transform="scale(0.015625)"/>
       <path id="DejaVuSans-63" d="M 3122 3366 
L 3122 2828 
Q 2878 2963 2633 3030 
Q 2388 3097 2138 3097 
Q 1578 3097 1268 2742 
Q 959 2388 959 1747 
Q 959 1106 1268 751 
Q 1578 397 2138 397 
Q 2388 397 2633 464 
Q 2878 531 3122 666 
L 3122 134 
Q 2881 22 2623 -34 
Q 2366 -91 2075 -91 
Q 1284 -91 818 406 
Q 353 903 353 1747 
Q 353 2603 823 3093 
Q 1294 3584 2113 3584 
Q 2378 3584 2631 3529 
Q 2884 3475 3122 3366 
z
" transform="scale(0.015625)"/>
       <path id="DejaVuSans-6f" d="M 1959 3097 
Q 1497 3097 1228 2736 
Q 959 2375 959 1747 
Q 959 1119 1226 758 
Q 1494 397 1959 397 
Q 2419 397 2687 759 
Q 2956 1122 2956 1747 
Q 2956 2369 2687 2733 
Q 2419 3097 1959 3097 
z
M 1959 3584 
Q 2709 3584 3137 3096 
Q 3566 2609 3566 1747 
Q 3566 888 3137 398 
Q 2709 -91 1959 -91 
Q 1206 -91 779 398 
Q 353 888 353 1747 
Q 353 2609 779 3096 
Q 1206 3584 1959 3584 
z
" transform="scale(0.015625)"/>
       <path id="DejaVuSans-64" d="M 2906 2969 
L 2906 4863 
L 3481 4863 
L 3481 0 
L 2906 0 
L 2906 525 
Q 2725 213 2448 61 
Q 2172 -91 1784 -91 
Q 1150 -91 751 415 
Q 353 922 353 1747 
Q 353 2572 751 3078 
Q 1150 3584 1784 3584 
Q 2172 3584 2448 3432 
Q 2725 3281 2906 2969 
z
M 947 1747 
Q 947 1113 1208 752 
Q 1469 391 1925 391 
Q 2381 391 2643 752 
Q 2906 1113 2906 1747 
Q 2906 2381 2643 2742 
Q 2381 3103 1925 3103 
Q 1469 3103 1208 2742 
Q 947 2381 947 1747 
z
" transform="scale(0.015625)"/>
      </defs>
      <use xlink:href="#DejaVuSans-52"/>
      <use xlink:href="#DejaVuSans-65" transform="translate(64.982422 0)"/>
      <use xlink:href="#DejaVuSans-71" transform="translate(126.505859 0)"/>
      <use xlink:href="#DejaVuSans-75" transform="translate(189.982422 0)"/>
      <use xlink:href="#DejaVuSans-65" transform="translate(253.361328 0)"/>
      <use xlink:href="#DejaVuSans-73" transform="translate(314.884766 0)"/>
      <use xlink:href="#DejaVuSans-74" transform="translate(366.984375 0)"/>
      <use xlink:href="#DejaVuSans-73" transform="translate(406.193359 0)"/>
      <use xlink:href="#DejaVuSans-20" transform="translate(458.292969 0)"/>
      <use xlink:href="#DejaVuSans-70" transform="translate(490.080078 0)"/>
      <use xlink:href="#DejaVuSans-65" transform="translate(553.556641 0)"/>
      <use xlink:href="#DejaVuSans-72" transform="translate(615.080078 0)"/>
      <use xlink:href="#DejaVuSans-20" transform="translate(656.193359 0)"/>
      <use xlink:href="#DejaVuSans-53" transform="translate(687.980469 0)"/>
      <use xlink:href="#DejaVuSans-65" transform="translate(751.457031 0)"/>
      <use xlink:href="#DejaVuSans-63" transform="translate(812.980469 0)"/>
      <use xlink:href="#DejaVuSans-6f" transform="translate(867.960938 0)"/>
      <use xlink:href="#DejaVuSans-6e" transform="translate(929.142578 0)"/>
      <use xlink:href="#DejaVuSans-64" transform="translate(992.521484 0)"/>
     </g>
    </g>
   </g>
   <g id="FillBetweenPolyCollection_1">
    <defs>
     <path id="m3cbd2af3ab" d="M 77.114574 -37.55625 
L 77.114574 -37.609008 
L 85.457875 -63.829631 
L 87.126536 -63.935147 
L 88.795196 -63.935147 
L 90.463856 -63.935147 
L 92.132516 -63.935147 
L 93.801177 -63.935147 
L 95.469837 -63.935147 
L 97.138497 -63.882389 
L 98.807158 -63.987905 
L 100.475818 -63.935147 
L 102.144478 -63.935147 
L 103.813138 -63.882389 
L 105.481799 -63.987905 
L 107.150459 -63.935147 
L 108.819119 -63.935147 
L 110.48778 -63.935147 
L 112.15644 -63.935147 
L 113.8251 -63.935147 
L 115.49376 -63.935147 
L 117.162421 -63.935147 
L 118.831081 -63.935147 
L 120.499741 -63.882389 
L 122.168402 -63.987905 
L 123.837062 -63.882389 
L 125.505722 -63.987905 
L 127.174382 -63.935147 
L 128.843043 -63.935147 
L 130.511703 -63.935147 
L 132.180363 -63.935147 
L 133.849024 -63.935147 
L 135.517684 -63.935147 
L 137.186344 -63.935147 
L 138.855004 -63.882389 
L 140.523665 -63.987905 
L 142.192325 -63.935147 
L 143.860985 -63.935147 
L 145.529646 -63.935147 
L 147.198306 -63.935147 
L 148.866966 -63.935147 
L 150.535626 -63.935147 
L 152.204287 -63.935147 
L 153.872947 -63.882389 
L 155.541607 -63.987905 
L 157.210268 -63.935147 
L 158.878928 -63.935147 
L 160.547588 -63.935147 
L 162.216249 -63.935147 
L 163.884909 -63.935147 
L 165.553569 -63.935147 
L 167.222229 -63.935147 
L 168.89089 -63.935147 
L 170.55955 -63.935147 
L 172.22821 -63.935147 
L 173.896871 -63.935147 
L 175.565531 -63.935147 
L 177.234191 -63.935147 
L 178.902851 -63.935147 
L 180.571512 -63.882389 
L 182.240172 -63.987905 
L 183.908832 -63.935147 
L 185.577493 -63.935147 
L 187.246153 -63.935147 
L 188.914813 -63.935147 
L 190.583473 -63.935147 
L 192.252134 -63.935147 
L 193.920794 -63.935147 
L 195.589454 -63.935147 
L 197.258115 -63.935147 
L 198.926775 -63.935147 
L 200.595435 -63.935147 
L 202.264095 -63.935147 
L 203.932756 -63.935147 
L 205.601416 -63.935147 
L 207.270076 -63.882389 
L 208.938737 -63.987905 
L 210.607397 -63.935147 
L 212.276057 -63.935147 
L 213.944717 -63.935147 
L 215.613378 -63.935147 
L 217.282038 -63.935147 
L 218.950698 -63.935147 
L 220.619359 -63.882389 
L 222.288019 -63.987905 
L 223.956679 -63.935147 
L 225.625339 -63.935147 
L 227.294 -63.882389 
L 228.96266 -63.987905 
L 230.63132 -63.935147 
L 232.299981 -63.935147 
L 233.968641 -63.935147 
L 235.637301 -63.935147 
L 237.305961 -63.935147 
L 238.974622 -63.935147 
L 240.643282 -63.935147 
L 242.311942 -63.935147 
L 243.980603 -63.935147 
L 245.649263 -63.935147 
L 247.317923 -63.935147 
L 248.986583 -63.935147 
L 250.655244 -63.882389 
L 252.323904 -63.987905 
L 253.992564 -63.935147 
L 255.661225 -63.935147 
L 257.329885 -63.935147 
L 258.998545 -63.935147 
L 260.667205 -63.935147 
L 262.335866 -63.935147 
L 264.004526 -63.935147 
L 265.673186 -63.935147 
L 267.341847 -63.935147 
L 269.010507 -63.882389 
L 270.679167 -63.987905 
L 272.347827 -63.935147 
L 274.016488 -63.935147 
L 275.685148 -63.935147 
L 277.353808 -63.935147 
L 279.022469 -63.882389 
L 280.691129 -63.987905 
L 282.359789 -63.882389 
L 284.028449 -63.987905 
L 285.69711 -63.935147 
L 287.36577 -63.935147 
L 289.03443 -63.935147 
L 290.703091 -63.935147 
L 292.371751 -63.935147 
L 294.040411 -63.935147 
L 295.709071 -63.935147 
L 297.377732 -63.935147 
L 299.046392 -63.882389 
L 300.715052 -63.987905 
L 302.383713 -63.935147 
L 304.052373 -63.935147 
L 305.721033 -63.935147 
L 307.389693 -63.882389 
L 309.058354 -63.935147 
L 310.727014 -63.987905 
L 312.395674 -63.935147 
L 314.064335 -63.935147 
L 315.732995 -63.935147 
L 317.401655 -63.882389 
L 319.070315 -63.987905 
L 320.738976 -63.935147 
L 322.407636 -63.935147 
L 324.076296 -63.935147 
L 325.744957 -63.935147 
L 327.413617 -63.935147 
L 329.082277 -63.935147 
L 330.750938 -182.165363 
L 332.419598 -301.292461 
L 334.088258 -301.55625 
L 335.756918 -301.397977 
L 337.425579 -301.345219 
L 339.094239 -182.692941 
L 340.762899 -63.935147 
L 342.43156 -63.882389 
L 344.10022 -63.935147 
L 345.76888 -63.935147 
L 347.43754 -63.987905 
L 349.106201 -63.935147 
L 350.774861 -63.935147 
L 352.443521 -63.882389 
L 354.112182 -63.987905 
L 355.780842 -63.935147 
L 357.449502 -63.935147 
L 359.118162 -63.882389 
L 360.786823 -63.935147 
L 362.455483 -63.987905 
L 364.124143 -63.935147 
L 365.792804 -63.882389 
L 367.461464 -63.987905 
L 369.130124 -63.935147 
L 370.798784 -63.882389 
L 372.467445 -63.987905 
L 374.136105 -63.935147 
L 375.804765 -63.882389 
L 377.473426 -63.935147 
L 379.142086 -63.935147 
L 380.810746 -63.987905 
L 382.479406 -63.935147 
L 384.148067 -63.935147 
L 385.816727 -63.935147 
L 387.485387 -63.935147 
L 389.154048 -63.882389 
L 390.822708 -63.987905 
L 392.491368 -63.935147 
L 394.160028 -63.935147 
L 395.828689 -63.935147 
L 397.497349 -63.882389 
L 399.166009 -63.987905 
L 400.83467 -63.935147 
L 402.50333 -63.935147 
L 404.17199 -63.935147 
L 405.84065 -63.935147 
L 407.509311 -63.935147 
L 409.177971 -63.935147 
L 410.846631 -63.935147 
L 412.515292 -63.935147 
L 414.183952 -63.935147 
L 415.852612 -63.935147 
L 417.521272 -63.935147 
L 419.189933 -63.935147 
L 420.858593 -63.935147 
L 422.527253 -63.935147 
L 424.195914 -63.935147 
L 425.864574 -63.829631 
L 427.533234 -64.040662 
L 429.201894 -63.935147 
L 430.870555 -63.882389 
L 432.539215 -63.987905 
L 434.207875 -63.935147 
L 435.876536 -63.935147 
L 437.545196 -63.935147 
L 439.213856 -63.935147 
L 440.882516 -63.935147 
L 442.551177 -63.829631 
L 444.219837 -64.040662 
L 445.888497 -63.882389 
L 447.557158 -63.987905 
L 449.225818 -63.935147 
L 450.894478 -63.935147 
L 452.563138 -63.935147 
L 454.231799 -63.935147 
L 455.900459 -63.935147 
L 457.569119 -63.882389 
L 459.23778 -63.987905 
L 460.90644 -63.882389 
L 462.5751 -63.987905 
L 464.24376 -63.882389 
L 465.912421 -63.987905 
L 467.581081 -63.935147 
L 469.249741 -63.935147 
L 470.918402 -63.882389 
L 472.587062 -63.935147 
L 474.255722 -63.987905 
L 475.924382 -63.935147 
L 477.593043 -63.935147 
L 479.261703 -63.882389 
L 480.930363 -63.987905 
L 482.599024 -63.935147 
L 484.267684 -63.935147 
L 485.936344 -63.935147 
L 487.605004 -63.935147 
L 489.273665 -63.935147 
L 490.942325 -63.935147 
L 492.610985 -63.935147 
L 494.279646 -63.935147 
L 495.948306 -63.935147 
L 497.616966 -63.935147 
L 499.285626 -63.882389 
L 500.954287 -63.987905 
L 502.622947 -63.935147 
L 504.291607 -63.935147 
L 505.960268 -63.935147 
L 507.628928 -63.935147 
L 509.297588 -63.935147 
L 510.966249 -63.882389 
L 512.634909 -63.935147 
L 514.303569 -63.987905 
L 515.972229 -63.935147 
L 517.64089 -63.935147 
L 519.30955 -63.935147 
L 520.97821 -63.935147 
L 522.646871 -63.935147 
L 524.315531 -63.935147 
L 525.984191 -63.882389 
L 527.652851 -63.935147 
L 529.321512 -63.987905 
L 530.990172 -63.935147 
L 532.658832 -63.935147 
L 534.327493 -63.935147 
L 535.996153 -63.935147 
L 537.664813 -63.935147 
L 539.333473 -63.935147 
L 541.002134 -63.882389 
L 542.670794 -63.987905 
L 544.339454 -63.935147 
L 546.008115 -63.882389 
L 547.676775 -63.987905 
L 549.345435 -63.829631 
L 551.014095 -64.040662 
L 552.682756 -63.935147 
L 554.351416 -63.935147 
L 556.020076 -63.935147 
L 557.688737 -63.935147 
L 559.357397 -63.935147 
L 561.026057 -63.935147 
L 562.694717 -63.882389 
L 564.363378 -63.987905 
L 566.032038 -63.935147 
L 567.700698 -63.935147 
L 569.369359 -63.935147 
L 571.038019 -63.935147 
L 572.706679 -63.935147 
L 574.375339 -63.935147 
L 576.044 -63.882389 
L 577.71266 -63.987905 
L 579.38132 -63.935147 
L 581.049981 -63.882389 
L 582.718641 -63.987905 
L 584.387301 -63.935147 
L 584.387301 -37.55625 
L 584.387301 -37.55625 
L 582.718641 -37.55625 
L 581.049981 -37.55625 
L 579.38132 -37.55625 
L 577.71266 -37.55625 
L 576.044 -37.55625 
L 574.375339 -37.55625 
L 572.706679 -37.55625 
L 571.038019 -37.55625 
L 569.369359 -37.55625 
L 567.700698 -37.55625 
L 566.032038 -37.55625 
L 564.363378 -37.55625 
L 562.694717 -37.55625 
L 561.026057 -37.55625 
L 559.357397 -37.55625 
L 557.688737 -37.55625 
L 556.020076 -37.55625 
L 554.351416 -37.55625 
L 552.682756 -37.55625 
L 551.014095 -37.55625 
L 549.345435 -37.55625 
L 547.676775 -37.55625 
L 546.008115 -37.55625 
L 544.339454 -37.55625 
L 542.670794 -37.55625 
L 541.002134 -37.55625 
L 539.333473 -37.55625 
L 537.664813 -37.55625 
L 535.996153 -37.55625 
L 534.327493 -37.55625 
L 532.658832 -37.55625 
L 530.990172 -37.55625 
L 529.321512 -37.55625 
L 527.652851 -37.55625 
L 525.984191 -37.55625 
L 524.315531 -37.55625 
L 522.646871 -37.55625 
L 520.97821 -37.55625 
L 519.30955 -37.55625 
L 517.64089 -37.55625 
L 515.972229 -37.55625 
L 514.303569 -37.55625 
L 512.634909 -37.55625 
L 510.966249 -37.55625 
L 509.297588 -37.55625 
L 507.628928 -37.55625 
L 505.960268 -37.55625 
L 504.291607 -37.55625 
L 502.622947 -37.55625 
L 500.954287 -37.55625 
L 499.285626 -37.55625 
L 497.616966 -37.55625 
L 495.948306 -37.55625 
L 494.279646 -37.55625 
L 492.610985 -37.55625 
L 490.942325 -37.55625 
L 489.273665 -37.55625 
L 487.605004 -37.55625 
L 485.936344 -37.55625 
L 484.267684 -37.55625 
L 482.599024 -37.55625 
L 480.930363 -37.55625 
L 479.261703 -37.55625 
L 477.593043 -37.55625 
L 475.924382 -37.55625 
L 474.255722 -37.55625 
L 472.587062 -37.55625 
L 470.918402 -37.55625 
L 469.249741 -37.55625 
L 467.581081 -37.55625 
L 465.912421 -37.55625 
L 464.24376 -37.55625 
L 462.5751 -37.55625 
L 460.90644 -37.55625 
L 459.23778 -37.55625 
L 457.569119 -37.55625 
L 455.900459 -37.55625 
L 454.231799 -37.55625 
L 452.563138 -37.55625 
L 450.894478 -37.55625 
L 449.225818 -37.55625 
L 447.557158 -37.55625 
L 445.888497 -37.55625 
L 444.219837 -37.55625 
L 442.551177 -37.55625 
L 440.882516 -37.55625 
L 439.213856 -37.55625 
L 437.545196 -37.55625 
L 435.876536 -37.55625 
L 434.207875 -37.55625 
L 432.539215 -37.55625 
L 430.870555 -37.55625 
L 429.201894 -37.55625 
L 427.533234 -37.55625 
L 425.864574 -37.55625 
L 424.195914 -37.55625 
L 422.527253 -37.55625 
L 420.858593 -37.55625 
L 419.189933 -37.55625 
L 417.521272 -37.55625 
L 415.852612 -37.55625 
L 414.183952 -37.55625 
L 412.515292 -37.55625 
L 410.846631 -37.55625 
L 409.177971 -37.55625 
L 407.509311 -37.55625 
L 405.84065 -37.55625 
L 404.17199 -37.55625 
L 402.50333 -37.55625 
L 400.83467 -37.55625 
L 399.166009 -37.55625 
L 397.497349 -37.55625 
L 395.828689 -37.55625 
L 394.160028 -37.55625 
L 392.491368 -37.55625 
L 390.822708 -37.55625 
L 389.154048 -37.55625 
L 387.485387 -37.55625 
L 385.816727 -37.55625 
L 384.148067 -37.55625 
L 382.479406 -37.55625 
L 380.810746 -37.55625 
L 379.142086 -37.55625 
L 377.473426 -37.55625 
L 375.804765 -37.55625 
L 374.136105 -37.55625 
L 372.467445 -37.55625 
L 370.798784 -37.55625 
L 369.130124 -37.55625 
L 367.461464 -37.55625 
L 365.792804 -37.55625 
L 364.124143 -37.55625 
L 362.455483 -37.55625 
L 360.786823 -37.55625 
L 359.118162 -37.55625 
L 357.449502 -37.55625 
L 355.780842 -37.55625 
L 354.112182 -37.55625 
L 352.443521 -37.55625 
L 350.774861 -37.55625 
L 349.106201 -37.55625 
L 347.43754 -37.55625 
L 345.76888 -37.55625 
L 344.10022 -37.55625 
L 342.43156 -37.55625 
L 340.762899 -37.55625 
L 339.094239 -37.55625 
L 337.425579 -37.55625 
L 335.756918 -37.55625 
L 334.088258 -37.55625 
L 332.419598 -37.55625 
L 330.750938 -37.55625 
L 329.082277 -37.55625 
L 327.413617 -37.55625 
L 325.744957 -37.55625 
L 324.076296 -37.55625 
L 322.407636 -37.55625 
L 320.738976 -37.55625 
L 319.070315 -37.55625 
L 317.401655 -37.55625 
L 315.732995 -37.55625 
L 314.064335 -37.55625 
L 312.395674 -37.55625 
L 310.727014 -37.55625 
L 309.058354 -37.55625 
L 307.389693 -37.55625 
L 305.721033 -37.55625 
L 304.052373 -37.55625 
L 302.383713 -37.55625 
L 300.715052 -37.55625 
L 299.046392 -37.55625 
L 297.377732 -37.55625 
L 295.709071 -37.55625 
L 294.040411 -37.55625 
L 292.371751 -37.55625 
L 290.703091 -37.55625 
L 289.03443 -37.55625 
L 287.36577 -37.55625 
L 285.69711 -37.55625 
L 284.028449 -37.55625 
L 282.359789 -37.55625 
L 280.691129 -37.55625 
L 279.022469 -37.55625 
L 277.353808 -37.55625 
L 275.685148 -37.55625 
L 274.016488 -37.55625 
L 272.347827 -37.55625 
L 270.679167 -37.55625 
L 269.010507 -37.55625 
L 267.341847 -37.55625 
L 265.673186 -37.55625 
L 264.004526 -37.55625 
L 262.335866 -37.55625 
L 260.667205 -37.55625 
L 258.998545 -37.55625 
L 257.329885 -37.55625 
L 255.661225 -37.55625 
L 253.992564 -37.55625 
L 252.323904 -37.55625 
L 250.655244 -37.55625 
L 248.986583 -37.55625 
L 247.317923 -37.55625 
L 245.649263 -37.55625 
L 243.980603 -37.55625 
L 242.311942 -37.55625 
L 240.643282 -37.55625 
L 238.974622 -37.55625 
L 237.305961 -37.55625 
L 235.637301 -37.55625 
L 233.968641 -37.55625 
L 232.299981 -37.55625 
L 230.63132 -37.55625 
L 228.96266 -37.55625 
L 227.294 -37.55625 
L 225.625339 -37.55625 
L 223.956679 -37.55625 
L 222.288019 -37.55625 
L 220.619359 -37.55625 
L 218.950698 -37.55625 
L 217.282038 -37.55625 
L 215.613378 -37.55625 
L 213.944717 -37.55625 
L 212.276057 -37.55625 
L 210.607397 -37.55625 
L 208.938737 -37.55625 
L 207.270076 -37.55625 
L 205.601416 -37.55625 
L 203.932756 -37.55625 
L 202.264095 -37.55625 
L 200.595435 -37.55625 
L 198.926775 -37.55625 
L 197.258115 -37.55625 
L 195.589454 -37.55625 
L 193.920794 -37.55625 
L 192.252134 -37.55625 
L 190.583473 -37.55625 
L 188.914813 -37.55625 
L 187.246153 -37.55625 
L 185.577493 -37.55625 
L 183.908832 -37.55625 
L 182.240172 -37.55625 
L 180.571512 -37.55625 
L 178.902851 -37.55625 
L 177.234191 -37.55625 
L 175.565531 -37.55625 
L 173.896871 -37.55625 
L 172.22821 -37.55625 
L 170.55955 -37.55625 
L 168.89089 -37.55625 
L 167.222229 -37.55625 
L 165.553569 -37.55625 
L 163.884909 -37.55625 
L 162.216249 -37.55625 
L 160.547588 -37.55625 
L 158.878928 -37.55625 
L 157.210268 -37.55625 
L 155.541607 -37.55625 
L 153.872947 -37.55625 
L 152.204287 -37.55625 
L 150.535626 -37.55625 
L 148.866966 -37.55625 
L 147.198306 -37.55625 
L 145.529646 -37.55625 
L 143.860985 -37.55625 
L 142.192325 -37.55625 
L 140.523665 -37.55625 
L 138.855004 -37.55625 
L 137.186344 -37.55625 
L 135.517684 -37.55625 
L 133.849024 -37.55625 
L 132.180363 -37.55625 
L 130.511703 -37.55625 
L 128.843043 -37.55625 
L 127.174382 -37.55625 
L 125.505722 -37.55625 
L 123.837062 -37.55625 
L 122.168402 -37.55625 
L 120.499741 -37.55625 
L 118.831081 -37.55625 
L 117.162421 -37.55625 
L 115.49376 -37.55625 
L 113.8251 -37.55625 
L 112.15644 -37.55625 
L 110.48778 -37.55625 
L 108.819119 -37.55625 
L 107.150459 -37.55625 
L 105.481799 -37.55625 
L 103.813138 -37.55625 
L 102.144478 -37.55625 
L 100.475818 -37.55625 
L 98.807158 -37.55625 
L 97.138497 -37.55625 
L 95.469837 -37.55625 
L 93.801177 -37.55625 
L 92.132516 -37.55625 
L 90.463856 -37.55625 
L 88.795196 -37.55625 
L 87.126536 -37.55625 
L 85.457875 -37.55625 
L 77.114574 -37.55625 
z
" style="stroke: #3fb950; stroke-opacity: 0.25"/>
    </defs>
    <g clip-path="url(#p4597a1ad30)">
     <use xlink:href="#m3cbd2af3ab" x="0" y="344.594063" style="fill: #3fb950; fill-opacity: 0.25; stroke: #3fb950; stroke-opacity: 0.25"/>
    </g>
   </g>
   <g id="patch_3">
    <path d="M 51.750938 307.037812 
L 51.750938 29.837812 
" style="fill: none; stroke: #8b949e; stroke-width: 0.8; stroke-linejoin: miter; stroke-linecap: square"/>
   </g>
   <g id="patch_4">
    <path d="M 51.750937 307.037812 
L 609.750937 307.037812 
" style="fill: none; stroke: #8b949e; stroke-width: 0.8; stroke-linejoin: miter; stroke-linecap: square"/>
   </g>
   <g id="line2d_25">
    <path d="M 77.114574 306.985055 
L 85.457875 280.764431 
L 88.795196 280.658916 
L 329.082277 280.658916 
L 332.419598 43.301601 
L 334.088258 43.037812 
L 337.425579 43.248844 
L 340.762899 280.658916 
L 344.10022 280.658916 
L 584.387301 280.658916 
L 584.387301 280.658916 
" clip-path="url(#p4597a1ad30)" style="fill: none; stroke: #3fb950; stroke-width: 1.5; stroke-linecap: square"/>
   </g>
   <g id="text_15">
    <!-- Spike Test: Resilience Under 10× Traffic Burst -->
    <g style="fill: #c9d1d9" transform="translate(149.83375 17.837812) scale(0.14 -0.14)">
     <defs>
      <path id="DejaVuSans-Bold-53" d="M 3834 4519 
L 3834 3531 
Q 3450 3703 3084 3790 
Q 2719 3878 2394 3878 
Q 1963 3878 1756 3759 
Q 1550 3641 1550 3391 
Q 1550 3203 1689 3098 
Q 1828 2994 2194 2919 
L 2706 2816 
Q 3484 2659 3812 2340 
Q 4141 2022 4141 1434 
Q 4141 663 3683 286 
Q 3225 -91 2284 -91 
Q 1841 -91 1394 -6 
Q 947 78 500 244 
L 500 1259 
Q 947 1022 1364 901 
Q 1781 781 2169 781 
Q 2563 781 2772 912 
Q 2981 1044 2981 1288 
Q 2981 1506 2839 1625 
Q 2697 1744 2272 1838 
L 1806 1941 
Q 1106 2091 782 2419 
Q 459 2747 459 3303 
Q 459 4000 909 4375 
Q 1359 4750 2203 4750 
Q 2588 4750 2994 4692 
Q 3400 4634 3834 4519 
z
" transform="scale(0.015625)"/>
      <path id="DejaVuSans-Bold-70" d="M 1656 506 
L 1656 -1331 
L 538 -1331 
L 538 3500 
L 1656 3500 
L 1656 2988 
Q 1888 3294 2169 3439 
Q 2450 3584 2816 3584 
Q 3463 3584 3878 3070 
Q 4294 2556 4294 1747 
Q 4294 938 3878 423 
Q 3463 -91 2816 -91 
Q 2450 -91 2169 54 
Q 1888 200 1656 506 
z
M 2400 2772 
Q 2041 2772 1848 2508 
Q 1656 2244 1656 1747 
Q 1656 1250 1848 986 
Q 2041 722 2400 722 
Q 2759 722 2948 984 
Q 3138 1247 3138 1747 
Q 3138 2247 2948 2509 
Q 2759 2772 2400 2772 
z
" transform="scale(0.015625)"/>
      <path id="DejaVuSans-Bold-69" d="M 538 3500 
L 1656 3500 
L 1656 0 
L 538 0 
L 538 3500 
z
M 538 4863 
L 1656 4863 
L 1656 3950 
L 538 3950 
L 538 4863 
z
" transform="scale(0.015625)"/>
      <path id="DejaVuSans-Bold-6b" d="M 538 4863 
L 1656 4863 
L 1656 2216 
L 2944 3500 
L 4244 3500 
L 2534 1894 
L 4378 0 
L 3022 0 
L 1656 1459 
L 1656 0 
L 538 0 
L 538 4863 
z
" transform="scale(0.015625)"/>
      <path id="DejaVuSans-Bold-65" d="M 4031 1759 
L 4031 1441 
L 1416 1441 
Q 1456 1047 1700 850 
Q 1944 653 2381 653 
Q 2734 653 3104 758 
Q 3475 863 3866 1075 
L 3866 213 
Q 3469 63 3072 -14 
Q 2675 -91 2278 -91 
Q 1328 -91 801 392 
Q 275 875 275 1747 
Q 275 2603 792 3093 
Q 1309 3584 2216 3584 
Q 3041 3584 3536 3087 
Q 4031 2591 4031 1759 
z
M 2881 2131 
Q 2881 2450 2695 2645 
Q 2509 2841 2209 2841 
Q 1884 2841 1681 2658 
Q 1478 2475 1428 2131 
L 2881 2131 
z
" transform="scale(0.015625)"/>
      <path id="DejaVuSans-Bold-20" transform="scale(0.015625)"/>
      <path id="DejaVuSans-Bold-54" d="M 31 4666 
L 4331 4666 
L 4331 3756 
L 2784 3756 
L 2784 0 
L 1581 0 
L 1581 3756 
L 31 3756 
L 31 4666 
z
" transform="scale(0.015625)"/>
      <path id="DejaVuSans-Bold-73" d="M 3272 3391 
L 3272 2541 
Q 2913 2691 2578 2766 
Q 2244 2841 1947 2841 
Q 1628 2841 1473 2761 
Q 1319 2681 1319 2516 
Q 1319 2381 1436 2309 
Q 1553 2238 1856 2203 
L 2053 2175 
Q 2913 2066 3209 1816 
Q 3506 1566 3506 1031 
Q 3506 472 3093 190 
Q 2681 -91 1863 -91 
Q 1516 -91 1145 -36 
Q 775 19 384 128 
L 384 978 
Q 719 816 1070 734 
Q 1422 653 1784 653 
Q 2113 653 2278 743 
Q 2444 834 2444 1013 
Q 2444 1163 2330 1236 
Q 2216 1309 1875 1350 
L 1678 1375 
Q 931 1469 631 1722 
Q 331 1975 331 2491 
Q 331 3047 712 3315 
Q 1094 3584 1881 3584 
Q 2191 3584 2531 3537 
Q 2872 3491 3272 3391 
z
" transform="scale(0.015625)"/>
      <path id="DejaVuSans-Bold-74" d="M 1759 4494 
L 1759 3500 
L 2913 3500 
L 2913 2700 
L 1759 2700 
L 1759 1216 
Q 1759 972 1856 886 
Q 1953 800 2241 800 
L 2816 800 
L 2816 0 
L 1856 0 
Q 1194 0 917 276 
Q 641 553 641 1216 
L 641 2700 
L 84 2700 
L 84 3500 
L 641 3500 
L 641 4494 
L 1759 4494 
z
" transform="scale(0.015625)"/>
      <path id="DejaVuSans-Bold-3a" d="M 716 3500 
L 1844 3500 
L 1844 2291 
L 716 2291 
L 716 3500 
z
M 716 1209 
L 1844 1209 
L 1844 0 
L 716 0 
L 716 1209 
z
" transform="scale(0.015625)"/>
      <path id="DejaVuSans-Bold-52" d="M 2297 2597 
Q 2675 2597 2839 2737 
Q 3003 2878 3003 3200 
Q 3003 3519 2839 3656 
Q 2675 3794 2297 3794 
L 1791 3794 
L 1791 2597 
L 2297 2597 
z
M 1791 1766 
L 1791 0 
L 588 0 
L 588 4666 
L 2425 4666 
Q 3347 4666 3776 4356 
Q 4206 4047 4206 3378 
Q 4206 2916 3982 2619 
Q 3759 2322 3309 2181 
Q 3556 2125 3751 1926 
Q 3947 1728 4147 1325 
L 4800 0 
L 3519 0 
L 2950 1159 
Q 2778 1509 2601 1637 
Q 2425 1766 2131 1766 
L 1791 1766 
z
" transform="scale(0.015625)"/>
      <path id="DejaVuSans-Bold-6c" d="M 538 4863 
L 1656 4863 
L 1656 0 
L 538 0 
L 538 4863 
z
" transform="scale(0.015625)"/>
      <path id="DejaVuSans-Bold-6e" d="M 4056 2131 
L 4056 0 
L 2931 0 
L 2931 347 
L 2931 1631 
Q 2931 2084 2911 2256 
Q 2891 2428 2841 2509 
Q 2775 2619 2662 2680 
Q 2550 2741 2406 2741 
Q 2056 2741 1856 2470 
Q 1656 2200 1656 1722 
L 1656 0 
L 538 0 
L 538 3500 
L 1656 3500 
L 1656 2988 
Q 1909 3294 2193 3439 
Q 2478 3584 2822 3584 
Q 3428 3584 3742 3212 
Q 4056 2841 4056 2131 
z
" transform="scale(0.015625)"/>
      <path id="DejaVuSans-Bold-63" d="M 3366 3391 
L 3366 2478 
Q 3138 2634 2908 2709 
Q 2678 2784 2431 2784 
Q 1963 2784 1702 2511 
Q 1441 2238 1441 1747 
Q 1441 1256 1702 982 
Q 1963 709 2431 709 
Q 2694 709 2930 787 
Q 3166 866 3366 1019 
L 3366 103 
Q 3103 6 2833 -42 
Q 2563 -91 2291 -91 
Q 1344 -91 809 395 
Q 275 881 275 1747 
Q 275 2613 809 3098 
Q 1344 3584 2291 3584 
Q 2566 3584 2833 3536 
Q 3100 3488 3366 3391 
z
" transform="scale(0.015625)"/>
      <path id="DejaVuSans-Bold-55" d="M 588 4666 
L 1791 4666 
L 1791 1869 
Q 1791 1291 1980 1042 
Q 2169 794 2597 794 
Q 3028 794 3217 1042 
Q 3406 1291 3406 1869 
L 3406 4666 
L 4609 4666 
L 4609 1869 
Q 4609 878 4112 393 
Q 3616 -91 2597 -91 
Q 1581 -91 1084 393 
Q 588 878 588 1869 
L 588 4666 
z
" transform="scale(0.015625)"/>
      <path id="DejaVuSans-Bold-64" d="M 2919 2988 
L 2919 4863 
L 4044 4863 
L 4044 0 
L 2919 0 
L 2919 506 
Q 2688 197 2409 53 
Q 2131 -91 1766 -91 
Q 1119 -91 703 423 
Q 288 938 288 1747 
Q 288 2556 703 3070 
Q 1119 3584 1766 3584 
Q 2128 3584 2408 3439 
Q 2688 3294 2919 2988 
z
M 2181 722 
Q 2541 722 2730 984 
Q 2919 1247 2919 1747 
Q 2919 2247 2730 2509 
Q 2541 2772 2181 2772 
Q 1825 2772 1636 2509 
Q 1447 2247 1447 1747 
Q 1447 1247 1636 984 
Q 1825 722 2181 722 
z
" transform="scale(0.015625)"/>
      <path id="DejaVuSans-Bold-72" d="M 3138 2547 
Q 2991 2616 2845 2648 
Q 2700 2681 2553 2681 
Q 2122 2681 1889 2404 
Q 1656 2128 1656 1613 
L 1656 0 
L 538 0 
L 538 3500 
L 1656 3500 
L 1656 2925 
Q 1872 3269 2151 3426 
Q 2431 3584 2822 3584 
Q 2878 3584 2943 3579 
Q 3009 3575 3134 3559 
L 3138 2547 
z
" transform="scale(0.015625)"/>
      <path id="DejaVuSans-Bold-31" d="M 750 831 
L 1813 831 
L 1813 3847 
L 722 3622 
L 722 4441 
L 1806 4666 
L 2950 4666 
L 2950 831 
L 4013 831 
L 4013 0 
L 750 0 
L 750 831 
z
" transform="scale(0.015625)"/>
      <path id="DejaVuSans-Bold-30" d="M 2944 2338 
Q 2944 3213 2780 3570 
Q 2616 3928 2228 3928 
Q 1841 3928 1675 3570 
Q 1509 3213 1509 2338 
Q 1509 1453 1675 1090 
Q 1841 728 2228 728 
Q 2613 728 2778 1090 
Q 2944 1453 2944 2338 
z
M 4147 2328 
Q 4147 1169 3647 539 
Q 3147 -91 2228 -91 
Q 1306 -91 806 539 
Q 306 1169 306 2328 
Q 306 3491 806 4120 
Q 1306 4750 2228 4750 
Q 3147 4750 3647 4120 
Q 4147 3491 4147 2328 
z
" transform="scale(0.015625)"/>
      <path id="DejaVuSans-Bold-d7" d="M 4563 3359 
L 3206 2003 
L 4563 653 
L 4038 128 
L 2681 1478 
L 1325 128 
L 800 653 
L 2156 2003 
L 800 3359 
L 1325 3884 
L 2681 2528 
L 4038 3884 
L 4563 3359 
z
" transform="scale(0.015625)"/>
      <path id="DejaVuSans-Bold-61" d="M 2106 1575 
Q 1756 1575 1579 1456 
Q 1403 1338 1403 1106 
Q 1403 894 1545 773 
Q 1688 653 1941 653 
Q 2256 653 2472 879 
Q 2688 1106 2688 1447 
L 2688 1575 
L 2106 1575 
z
M 3816 1997 
L 3816 0 
L 2688 0 
L 2688 519 
Q 2463 200 2181 54 
Q 1900 -91 1497 -91 
Q 953 -91 614 226 
Q 275 544 275 1050 
Q 275 1666 698 1953 
Q 1122 2241 2028 2241 
L 2688 2241 
L 2688 2328 
Q 2688 2594 2478 2717 
Q 2269 2841 1825 2841 
Q 1466 2841 1156 2769 
Q 847 2697 581 2553 
L 581 3406 
Q 941 3494 1303 3539 
Q 1666 3584 2028 3584 
Q 2975 3584 3395 3211 
Q 3816 2838 3816 1997 
z
" transform="scale(0.015625)"/>
      <path id="DejaVuSans-Bold-66" d="M 2841 4863 
L 2841 4128 
L 2222 4128 
Q 1984 4128 1890 4042 
Q 1797 3956 1797 3744 
L 1797 3500 
L 2753 3500 
L 2753 2700 
L 1797 2700 
L 1797 0 
L 678 0 
L 678 2700 
L 122 2700 
L 122 3500 
L 678 3500 
L 678 3744 
Q 678 4316 997 4589 
Q 1316 4863 1984 4863 
L 2841 4863 
z
" transform="scale(0.015625)"/>
      <path id="DejaVuSans-Bold-42" d="M 2456 2859 
Q 2741 2859 2887 2984 
Q 3034 3109 3034 3353 
Q 3034 3594 2887 3720 
Q 2741 3847 2456 3847 
L 1791 3847 
L 1791 2859 
L 2456 2859 
z
M 2497 819 
Q 2859 819 3042 972 
Q 3225 1125 3225 1434 
Q 3225 1738 3044 1889 
Q 2863 2041 2497 2041 
L 1791 2041 
L 1791 819 
L 2497 819 
z
M 3616 2497 
Q 4003 2384 4215 2081 
Q 4428 1778 4428 1338 
Q 4428 663 3972 331 
Q 3516 0 2584 0 
L 588 0 
L 588 4666 
L 2394 4666 
Q 3366 4666 3802 4372 
Q 4238 4078 4238 3431 
Q 4238 3091 4078 2852 
Q 3919 2613 3616 2497 
z
" transform="scale(0.015625)"/>
      <path id="DejaVuSans-Bold-75" d="M 500 1363 
L 500 3500 
L 1625 3500 
L 1625 3150 
Q 1625 2866 1622 2436 
Q 1619 2006 1619 1863 
Q 1619 1441 1641 1255 
Q 1663 1069 1716 984 
Q 1784 875 1895 815 
Q 2006 756 2150 756 
Q 2500 756 2700 1025 
Q 2900 1294 2900 1772 
L 2900 3500 
L 4019 3500 
L 4019 0 
L 2900 0 
L 2900 506 
Q 2647 200 2364 54 
Q 2081 -91 1741 -91 
Q 1134 -91 817 281 
Q 500 653 500 1363 
z
" transform="scale(0.015625)"/>
     </defs>
     <use xlink:href="#DejaVuSans-Bold-53"/>
     <use xlink:href="#DejaVuSans-Bold-70" transform="translate(72.021484 0)"/>
     <use xlink:href="#DejaVuSans-Bold-69" transform="translate(143.603516 0)"/>
     <use xlink:href="#DejaVuSans-Bold-6b" transform="translate(177.880859 0)"/>
     <use xlink:href="#DejaVuSans-Bold-65" transform="translate(241.759766 0)"/>
     <use xlink:href="#DejaVuSans-Bold-20" transform="translate(309.582031 0)"/>
     <use xlink:href="#DejaVuSans-Bold-54" transform="translate(344.396484 0)"/>
     <use xlink:href="#DejaVuSans-Bold-65" transform="translate(399.359375 0)"/>
     <use xlink:href="#DejaVuSans-Bold-73" transform="translate(467.181641 0)"/>
     <use xlink:href="#DejaVuSans-Bold-74" transform="translate(526.703125 0)"/>
     <use xlink:href="#DejaVuSans-Bold-3a" transform="translate(574.505859 0)"/>
     <use xlink:href="#DejaVuSans-Bold-20" transform="translate(614.496094 0)"/>
     <use xlink:href="#DejaVuSans-Bold-52" transform="translate(649.310547 0)"/>
     <use xlink:href="#DejaVuSans-Bold-65" transform="translate(726.3125 0)"/>
     <use xlink:href="#DejaVuSans-Bold-73" transform="translate(794.134766 0)"/>
     <use xlink:href="#DejaVuSans-Bold-69" transform="translate(853.65625 0)"/>
     <use xlink:href="#DejaVuSans-Bold-6c" transform="translate(887.933594 0)"/>
     <use xlink:href="#DejaVuSans-Bold-69" transform="translate(922.210938 0)"/>
     <use xlink:href="#DejaVuSans-Bold-65" transform="translate(956.488281 0)"/>
     <use xlink:href="#DejaVuSans-Bold-6e" transform="translate(1024.310547 0)"/>
     <use xlink:href="#DejaVuSans-Bold-63" transform="translate(1095.501953 0)"/>
     <use xlink:href="#DejaVuSans-Bold-65" transform="translate(1154.779297 0)"/>
     <use xlink:href="#DejaVuSans-Bold-20" transform="translate(1222.601562 0)"/>
     <use xlink:href="#DejaVuSans-Bold-55" transform="translate(1257.416016 0)"/>
     <use xlink:href="#DejaVuSans-Bold-6e" transform="translate(1338.617188 0)"/>
     <use xlink:href="#DejaVuSans-Bold-64" transform="translate(1409.808594 0)"/>
     <use xlink:href="#DejaVuSans-Bold-65" transform="translate(1481.390625 0)"/>
     <use xlink:href="#DejaVuSans-Bold-72" transform="translate(1549.212891 0)"/>
     <use xlink:href="#DejaVuSans-Bold-20" transform="translate(1598.529297 0)"/>
     <use xlink:href="#DejaVuSans-Bold-31" transform="translate(1633.34375 0)"/>
     <use xlink:href="#DejaVuSans-Bold-30" transform="translate(1702.923828 0)"/>
     <use xlink:href="#DejaVuSans-Bold-d7" transform="translate(1772.503906 0)"/>
     <use xlink:href="#DejaVuSans-Bold-20" transform="translate(1856.292969 0)"/>
     <use xlink:href="#DejaVuSans-Bold-54" transform="translate(1891.107422 0)"/>
     <use xlink:href="#DejaVuSans-Bold-72" transform="translate(1948.320312 0)"/>
     <use xlink:href="#DejaVuSans-Bold-61" transform="translate(1997.636719 0)"/>
     <use xlink:href="#DejaVuSans-Bold-66" transform="translate(2065.117188 0)"/>
     <use xlink:href="#DejaVuSans-Bold-66" transform="translate(2108.623047 0)"/>
     <use xlink:href="#DejaVuSans-Bold-69" transform="translate(2152.128906 0)"/>
     <use xlink:href="#DejaVuSans-Bold-63" transform="translate(2186.40625 0)"/>
     <use xlink:href="#DejaVuSans-Bold-20" transform="translate(2245.683594 0)"/>
     <use xlink:href="#DejaVuSans-Bold-42" transform="translate(2280.498047 0)"/>
     <use xlink:href="#DejaVuSans-Bold-75" transform="translate(2356.71875 0)"/>
     <use xlink:href="#DejaVuSans-Bold-72" transform="translate(2427.910156 0)"/>
     <use xlink:href="#DejaVuSans-Bold-73" transform="translate(2477.226562 0)"/>
     <use xlink:href="#DejaVuSans-Bold-74" transform="translate(2536.748047 0)"/>
    </g>
   </g>
   <g id="legend_1">
    <g id="patch_5">
     <path d="M 58.750938 67.194062 
L 149.736875 67.194062 
Q 151.736875 67.194062 151.736875 65.194062 
L 151.736875 36.837812 
Q 151.736875 34.837812 149.736875 34.837812 
L 58.750938 34.837812 
Q 56.750938 34.837812 56.750938 36.837812 
L 56.750938 65.194062 
Q 56.750938 67.194062 58.750938 67.194062 
L 58.750938 67.194062 
z
" style="fill: none; opacity: 0.8; stroke: #8b949e; stroke-linejoin: miter"/>
    </g>
    <g id="line2d_26">
     <path d="M 60.750938 42.93625 
L 70.750938 42.93625 
L 80.750938 42.93625 
" style="fill: none; stroke: #3fb950; stroke-width: 1.5; stroke-linecap: square"/>
    </g>
    <g id="text_16">
     <!-- RPS -->
     <g style="fill: #c9d1d9" transform="translate(88.750938 46.43625) scale(0.1 -0.1)">
      <defs>
       <path id="DejaVuSans-50" d="M 1259 4147 
L 1259 2394 
L 2053 2394 
Q 2494 2394 2734 2622 
Q 2975 2850 2975 3272 
Q 2975 3691 2734 3919 
Q 2494 4147 2053 4147 
L 1259 4147 
z
M 628 4666 
L 2053 4666 
Q 2838 4666 3239 4311 
Q 3641 3956 3641 3272 
Q 3641 2581 3239 2228 
Q 2838 1875 2053 1875 
L 1259 1875 
L 1259 0 
L 628 0 
L 628 4666 
z
" transform="scale(0.015625)"/>
      </defs>
      <use xlink:href="#DejaVuSans-52"/>
      <use xlink:href="#DejaVuSans-50" transform="translate(69.482422 0)"/>
      <use xlink:href="#DejaVuSans-53" transform="translate(129.785156 0)"/>
     </g>
    </g>
    <g id="line2d_27">
     <path d="M 60.750938 57.614375 
L 70.750938 57.614375 
L 80.750938 57.614375 
" style="fill: none; stroke: #f78166; stroke-width: 2.5; stroke-linecap: square"/>
    </g>
    <g id="text_17">
     <!-- p99 latency -->
     <g style="fill: #c9d1d9" transform="translate(88.750938 61.114375) scale(0.1 -0.1)">
      <defs>
       <path id="DejaVuSans-39" d="M 703 97 
L 703 672 
Q 941 559 1184 500 
Q 1428 441 1663 441 
Q 2288 441 2617 861 
Q 2947 1281 2994 2138 
Q 2813 1869 2534 1725 
Q 2256 1581 1919 1581 
Q 1219 1581 811 2004 
Q 403 2428 403 3163 
Q 403 3881 828 4315 
Q 1253 4750 1959 4750 
Q 2769 4750 3195 4129 
Q 3622 3509 3622 2328 
Q 3622 1225 3098 567 
Q 2575 -91 1691 -91 
Q 1453 -91 1209 -44 
Q 966 3 703 97 
z
M 1959 2075 
Q 2384 2075 2632 2365 
Q 2881 2656 2881 3163 
Q 2881 3666 2632 3958 
Q 2384 4250 1959 4250 
Q 1534 4250 1286 3958 
Q 1038 3666 1038 3163 
Q 1038 2656 1286 2365 
Q 1534 2075 1959 2075 
z
" transform="scale(0.015625)"/>
       <path id="DejaVuSans-6c" d="M 603 4863 
L 1178 4863 
L 1178 0 
L 603 0 
L 603 4863 
z
" transform="scale(0.015625)"/>
       <path id="DejaVuSans-61" d="M 2194 1759 
Q 1497 1759 1228 1600 
Q 959 1441 959 1056 
Q 959 750 1161 570 
Q 1363 391 1709 391 
Q 2188 391 2477 730 
Q 2766 1069 2766 1631 
L 2766 1759 
L 2194 1759 
z
M 3341 1997 
L 3341 0 
L 2766 0 
L 2766 531 
Q 2569 213 2275 61 
Q 1981 -91 1556 -91 
Q 1019 -91 701 211 
Q 384 513 384 1019 
Q 384 1609 779 1909 
Q 1175 2209 1959 2209 
L 2766 2209 
L 2766 2266 
Q 2766 2663 2505 2880 
Q 2244 3097 1772 3097 
Q 1472 3097 1187 3025 
Q 903 2953 641 2809 
L 641 3341 
Q 956 3463 1253 3523 
Q 1550 3584 1831 3584 
Q 2591 3584 2966 3190 
Q 3341 2797 3341 1997 
z
" transform="scale(0.015625)"/>
       <path id="DejaVuSans-79" d="M 2059 -325 
Q 1816 -950 1584 -1140 
Q 1353 -1331 966 -1331 
L 506 -1331 
L 506 -850 
L 844 -850 
Q 1081 -850 1212 -737 
Q 1344 -625 1503 -206 
L 1606 56 
L 191 3500 
L 800 3500 
L 1894 763 
L 2988 3500 
L 3597 3500 
L 2059 -325 
z
" transform="scale(0.015625)"/>
      </defs>
      <use xlink:href="#DejaVuSans-70"/>
      <use xlink:href="#DejaVuSans-39" transform="translate(63.476562 0)"/>
      <use xlink:href="#DejaVuSans-39" transform="translate(127.099609 0)"/>
      <use xlink:href="#DejaVuSans-20" transform="translate(190.722656 0)"/>
      <use xlink:href="#DejaVuSans-6c" transform="translate(222.509766 0)"/>
      <use xlink:href="#DejaVuSans-61" transform="translate(250.292969 0)"/>
      <use xlink:href="#DejaVuSans-74" transform="translate(311.572266 0)"/>
      <use xlink:href="#DejaVuSans-65" transform="translate(350.78125 0)"/>
      <use xlink:href="#DejaVuSans-6e" transform="translate(412.304688 0)"/>
      <use xlink:href="#DejaVuSans-63" transform="translate(475.683594 0)"/>
      <use xlink:href="#DejaVuSans-79" transform="translate(530.664062 0)"/>
     </g>
    </g>
   </g>
  </g>
  <g id="axes_2">
   <g id="matplotlib.axis_3">
    <g id="ytick_7">
     <g id="line2d_28">
      <defs>
       <path id="m443e62ba85" d="M 0 0 
L 3.5 0 
" style="stroke: #8b949e; stroke-width: 0.8"/>
      </defs>
      <g>
       <use xlink:href="#m443e62ba85" x="609.750937" y="307.037812" style="fill: #8b949e; stroke: #8b949e; stroke-width: 0.8"/>
      </g>
     </g>
     <g id="text_18">
      <!-- 0 -->
      <g style="fill: #8b949e" transform="translate(616.750937 310.457109) scale(0.09 -0.09)">
       <use xlink:href="#DejaVuSans-30"/>
      </g>
     </g>
    </g>
    <g id="ytick_8">
     <g id="line2d_29">
      <g>
       <use xlink:href="#m443e62ba85" x="609.750937" y="251.366666" style="fill: #8b949e; stroke: #8b949e; stroke-width: 0.8"/>
      </g>
     </g>
     <g id="text_19">
      <!-- 1 -->
      <g style="fill: #8b949e" transform="translate(616.750937 254.785963) scale(0.09 -0.09)">
       <use xlink:href="#DejaVuSans-31"/>
      </g>
     </g>
    </g>
    <g id="ytick_9">
     <g id="line2d_30">
      <g>
       <use xlink:href="#m443e62ba85" x="609.750937" y="195.695519" style="fill: #8b949e; stroke: #8b949e; stroke-width: 0.8"/>
      </g>
     </g>
     <g id="text_20">
      <!-- 2 -->
      <g style="fill: #8b949e" transform="translate(616.750937 199.114816) scale(0.09 -0.09)">
       <use xlink:href="#DejaVuSans-32"/>
      </g>
     </g>
    </g>
    <g id="ytick_10">
     <g id="line2d_31">
      <g>
       <use xlink:href="#m443e62ba85" x="609.750937" y="140.024373" style="fill: #8b949e; stroke: #8b949e; stroke-width: 0.8"/>
      </g>
     </g>
     <g id="text_21">
      <!-- 3 -->
      <g style="fill: #8b949e" transform="translate(616.750937 143.44367) scale(0.09 -0.09)">
       <use xlink:href="#DejaVuSans-33"/>
      </g>
     </g>
    </g>
    <g id="ytick_11">
     <g id="line2d_32">
      <g>
       <use xlink:href="#m443e62ba85" x="609.750937" y="84.353226" style="fill: #8b949e; stroke: #8b949e; stroke-width: 0.8"/>
      </g>
     </g>
     <g id="text_22">
      <!-- 4 -->
      <g style="fill: #8b949e" transform="translate(616.750937 87.772523) scale(0.09 -0.09)">
       <use xlink:href="#DejaVuSans-34"/>
      </g>
     </g>
    </g>
    <g id="text_23">
     <!-- p99 Latency (ms) -->
     <g style="fill: #c9d1d9" transform="translate(634.835469 216.678828) rotate(-90) scale(0.11 -0.11)">
      <defs>
       <path id="DejaVuSans-4c" d="M 628 4666 
L 1259 4666 
L 1259 531 
L 3531 531 
L 3531 0 
L 628 0 
L 628 4666 
z
" transform="scale(0.015625)"/>
      </defs>
      <use xlink:href="#DejaVuSans-70"/>
      <use xlink:href="#DejaVuSans-39" transform="translate(63.476562 0)"/>
      <use xlink:href="#DejaVuSans-39" transform="translate(127.099609 0)"/>
      <use xlink:href="#DejaVuSans-20" transform="translate(190.722656 0)"/>
      <use xlink:href="#DejaVuSans-4c" transform="translate(222.509766 0)"/>
      <use xlink:href="#DejaVuSans-61" transform="translate(278.222656 0)"/>
      <use xlink:href="#DejaVuSans-74" transform="translate(339.501953 0)"/>
      <use xlink:href="#DejaVuSans-65" transform="translate(378.710938 0)"/>
      <use xlink:href="#DejaVuSans-6e" transform="translate(440.234375 0)"/>
      <use xlink:href="#DejaVuSans-63" transform="translate(503.613281 0)"/>
      <use xlink:href="#DejaVuSans-79" transform="translate(558.59375 0)"/>
      <use xlink:href="#DejaVuSans-20" transform="translate(617.773438 0)"/>
      <use xlink:href="#DejaVuSans-28" transform="translate(649.560547 0)"/>
      <use xlink:href="#DejaVuSans-6d" transform="translate(688.574219 0)"/>
      <use xlink:href="#DejaVuSans-73" transform="translate(785.986328 0)"/>
      <use xlink:href="#DejaVuSans-29" transform="translate(838.085938 0)"/>
     </g>
    </g>
   </g>
   <g id="patch_6">
    <path d="M 51.750938 307.037812 
L 51.750938 29.837812 
" style="fill: none; stroke: #8b949e; stroke-width: 0.8; stroke-linejoin: miter; stroke-linecap: square"/>
   </g>
   <g id="patch_7">
    <path d="M 609.750937 307.037812 
L 609.750937 29.837812 
" style="fill: none; stroke: #8b949e; stroke-width: 0.8; stroke-linejoin: miter; stroke-linecap: square"/>
   </g>
   <g id="patch_8">
    <path d="M 51.750937 307.037812 
L 609.750937 307.037812 
" style="fill: none; stroke: #8b949e; stroke-width: 0.8; stroke-linejoin: miter; stroke-linecap: square"/>
   </g>
   <g id="line2d_33">
    <path d="M 77.114574 209.134534 
L 85.457875 174.7409 
L 87.126536 135.592949 
L 88.795196 100.698275 
L 90.463856 103.314819 
L 92.132516 104.617523 
L 93.801177 102.268201 
L 95.469837 105.89796 
L 97.138497 106.76643 
L 98.807158 103.136671 
L 100.475818 102.79151 
L 102.144478 106.855504 
L 103.813138 109.405242 
L 105.481799 112.233336 
L 107.150459 112.6119 
L 108.819119 113.302222 
L 110.48778 111.554148 
L 112.15644 108.870799 
L 113.8251 105.753215 
L 115.49376 106.855504 
L 117.162421 103.559772 
L 118.831081 102.735839 
L 120.499741 105.60847 
L 122.168402 107.367678 
L 123.837062 108.514504 
L 125.505722 113.792128 
L 127.174382 114.13729 
L 128.843043 111.82137 
L 130.511703 110.240309 
L 132.180363 111.854773 
L 133.849024 105.653007 
L 135.517684 107.067054 
L 137.186344 106.966846 
L 138.855004 109.360705 
L 140.523665 107.545826 
L 142.192325 112.623034 
L 143.860985 112.489424 
L 145.529646 116.018974 
L 147.198306 115.373189 
L 148.866966 115.328652 
L 150.535626 114.571524 
L 152.204287 114.037081 
L 153.872947 112.366947 
L 155.541607 111.131048 
L 157.210268 116.865176 
L 158.878928 121.43021 
L 160.547588 119.515122 
L 162.216249 121.35227 
L 163.884909 124.447586 
L 167.222229 116.698162 
L 168.89089 116.58682 
L 170.55955 109.394108 
L 172.22821 105.875691 
L 175.565531 101.422 
L 177.234191 101.689221 
L 178.902851 104.940416 
L 182.240172 108.091403 
L 183.908832 107.490155 
L 185.577493 108.737188 
L 187.246153 110.819289 
L 188.914813 109.2939 
L 190.583473 108.080269 
L 192.252134 111.175585 
L 193.920794 110.630007 
L 195.589454 109.549987 
L 197.258115 109.961954 
L 198.926775 110.095564 
L 200.595435 105.385785 
L 202.264095 104.08308 
L 203.932756 103.960604 
L 205.601416 104.539584 
L 207.270076 106.47694 
L 208.938737 107.111591 
L 210.607397 108.781725 
L 212.276057 106.499208 
L 213.944717 108.336356 
L 215.613378 104.918148 
L 217.282038 101.945308 
L 218.950698 98.616174 
L 220.619359 100.932094 
L 222.288019 99.751865 
L 223.956679 100.664872 
L 225.625339 106.655087 
L 228.96266 111.710028 
L 232.299981 112.077457 
L 233.968641 111.32033 
L 235.637301 113.524907 
L 237.305961 108.681517 
L 238.974622 108.681517 
L 240.643282 111.075376 
L 242.311942 112.623034 
L 243.980603 111.275793 
L 245.649263 110.552068 
L 247.317923 108.726054 
L 248.986583 108.469967 
L 250.655244 107.367678 
L 252.323904 110.195772 
L 253.992564 118.446236 
L 255.661225 115.985572 
L 257.329885 115.974437 
L 258.998545 115.295249 
L 260.667205 112.500558 
L 262.335866 111.387135 
L 264.004526 115.161639 
L 265.673186 116.66476 
L 267.341847 114.916686 
L 269.010507 115.239578 
L 270.679167 114.181826 
L 272.347827 113.98141 
L 274.016488 111.520746 
L 275.685148 112.756645 
L 277.353808 112.066323 
L 279.022469 109.527719 
L 280.691129 110.685678 
L 282.359789 110.051027 
L 284.028449 108.659249 
L 285.69711 110.496397 
L 287.36577 112.03292 
L 289.03443 110.218041 
L 292.371751 113.903471 
L 294.040411 117.45529 
L 295.709071 115.673813 
L 297.377732 115.406592 
L 299.046392 114.504719 
L 300.715052 112.834585 
L 302.383713 109.705866 
L 304.052373 110.173504 
L 305.721033 108.492235 
L 307.389693 108.325222 
L 309.058354 108.859665 
L 310.727014 112.344679 
L 312.395674 108.514504 
L 314.064335 108.837396 
L 315.732995 108.959873 
L 317.401655 109.338437 
L 319.070315 105.742081 
L 320.738976 109.961954 
L 322.407636 111.298061 
L 324.076296 112.378081 
L 325.744957 112.489424 
L 327.413617 69.522433 
L 334.088258 157.070878 
L 335.756918 218.342542 
L 337.425579 197.309983 
L 339.094239 174.384604 
L 340.762899 154.020099 
L 342.43156 131.584627 
L 344.10022 116.542283 
L 345.76888 114.282035 
L 347.43754 113.324491 
L 349.106201 111.609819 
L 350.774861 107.334275 
L 352.443521 101.221584 
L 354.112182 109.182557 
L 355.780842 107.178396 
L 357.449502 108.414296 
L 359.118162 114.359974 
L 360.786823 121.252062 
L 362.455483 114.694001 
L 364.124143 121.073914 
L 367.461464 119.503988 
L 369.130124 114.983491 
L 370.798784 115.295249 
L 372.467445 113.658518 
L 374.136105 115.79629 
L 375.804765 115.651545 
L 377.473426 119.648733 
L 379.142086 115.039162 
L 380.810746 112.289007 
L 382.479406 108.169343 
L 384.148067 108.904202 
L 385.816727 100.141563 
L 387.485387 104.695463 
L 389.154048 102.858315 
L 390.822708 105.39692 
L 392.491368 104.895879 
L 394.160028 109.472047 
L 395.828689 109.371839 
L 397.497349 111.966115 
L 399.166009 109.58339 
L 400.83467 108.147074 
L 402.50333 106.298792 
L 404.17199 106.053839 
L 405.84065 107.76851 
L 407.509311 108.859665 
L 409.177971 110.863826 
L 410.846631 115.517934 
L 412.515292 114.616061 
L 417.521272 113.825531 
L 419.189933 113.168612 
L 420.858593 115.9299 
L 422.527253 117.299411 
L 425.864574 117.700243 
L 427.533234 116.163719 
L 429.201894 109.405242 
L 430.870555 108.659249 
L 432.539215 107.434483 
L 434.207875 103.604309 
L 435.876536 103.325953 
L 437.545196 107.646034 
L 439.213856 104.81794 
L 440.882516 105.619604 
L 442.551177 110.128967 
L 444.219837 113.179746 
L 445.888497 112.489424 
L 447.557158 112.300142 
L 449.225818 109.060081 
L 450.894478 108.703786 
L 452.563138 104.049678 
L 454.231799 106.120644 
L 455.900459 107.111591 
L 457.569119 102.468617 
L 459.23778 94.975281 
L 460.90644 93.427623 
L 464.24376 89.430435 
L 465.912421 94.997549 
L 467.581081 102.468617 
L 469.249741 105.909094 
L 470.918402 104.005141 
L 472.587062 109.717 
L 474.255722 111.376001 
L 475.924382 111.620954 
L 477.593043 112.545095 
L 479.261703 114.126155 
L 480.930363 110.440725 
L 482.599024 113.8478 
L 484.267684 110.607739 
L 485.936344 108.169343 
L 487.605004 107.545826 
L 489.273665 109.717 
L 490.942325 107.434483 
L 492.610985 110.964034 
L 494.279646 112.456021 
L 495.948306 113.48037 
L 497.616966 112.68984 
L 499.285626 112.723242 
L 500.954287 112.300142 
L 502.622947 112.266739 
L 504.291607 113.124075 
L 505.960268 112.545095 
L 507.628928 113.369028 
L 509.297588 113.023867 
L 510.966249 112.166531 
L 512.634909 108.124806 
L 514.303569 106.421269 
L 515.972229 103.960604 
L 517.64089 102.769241 
L 519.30955 102.457483 
L 520.97821 107.067054 
L 522.646871 109.605658 
L 524.315531 114.159558 
L 525.984191 114.883283 
L 527.652851 115.261847 
L 529.321512 95.621066 
L 530.990172 95.042086 
L 532.658832 94.941878 
L 534.327493 94.618986 
L 535.996153 95.587663 
L 537.664813 114.126155 
L 539.333473 114.838746 
L 541.002134 110.863826 
L 542.670794 110.552068 
L 544.339454 108.225014 
L 546.008115 109.2939 
L 547.676775 109.394108 
L 549.345435 111.086511 
L 551.014095 106.321061 
L 552.682756 105.485993 
L 554.351416 107.902121 
L 556.020076 106.154047 
L 557.688737 105.452591 
L 559.357397 113.324491 
L 561.026057 115.395457 
L 562.694717 114.671733 
L 564.363378 112.68984 
L 566.032038 112.856853 
L 567.700698 109.338437 
L 569.369359 112.03292 
L 571.038019 110.051027 
L 572.706679 112.90139 
L 574.375339 81.603071 
L 576.044 79.944071 
L 577.71266 66.939291 
L 579.38132 40.573436 
L 581.049981 38.814228 
L 582.718641 69.110466 
L 584.387301 70.312963 
L 584.387301 70.312963 
" clip-path="url(#p4597a1ad30)" style="fill: none; stroke: #f78166; stroke-width: 2.5; stroke-linecap: square"/>
   </g>
  </g>
 </g>
 <defs>
  <clipPath id="p4597a1ad30">
   <rect x="51.750938" y="29.837812" width="558" height="277.2"/>
  </clipPath>
 </defs>
</svg>
